M48
; DRILL file {KiCad 5.1.10-88a1d61d58~90~ubuntu20.04.1} date Fri Dec 17 14:40:23 2021
; FORMAT={-:-/ absolute / inch / decimal}
; #@! TF.CreationDate,2021-12-17T14:40:23-08:00
; #@! TF.GenerationSoftware,Kicad,Pcbnew,5.1.10-88a1d61d58~90~ubuntu20.04.1
FMAT,2
INCH
T1C0.0079
T2C0.0315
T3C0.0394
T4C0.0472
T5C0.0591
T6C0.0669
T7C0.1339
%
G90
G05
T1
X3.9665Y-3.002
X3.9665Y-3.4449
X3.9665Y-3.6122
X3.9665Y-3.7598
X3.9665Y-3.8583
X3.9665Y-5.187
X3.9764Y-2.0177
X3.9764Y-2.3819
X3.9764Y-2.4803
X3.9764Y-2.5886
X3.9764Y-2.6969
X3.9764Y-2.7854
X3.9764Y-2.8937
X3.9764Y-3.1594
X3.9764Y-3.2972
X3.9764Y-4.065
X3.9764Y-4.1437
X3.9764Y-4.3209
X3.9764Y-4.4685
X3.9764Y-4.6457
X3.9764Y-4.8228
X3.9764Y-4.9705
X3.9764Y-5.315
X3.9862Y-5.1083
X3.9862Y-5.4429
X3.9862Y-5.5512
X3.9961Y-5.8563
X4.0157Y-4.0157
X4.124Y-3.9469
X4.124Y-4.0846
X4.2618Y-2.8248
X4.2717Y-1.998
X4.3209Y-5.8465
X4.3898Y-1.998
X4.4094Y-3.1594
X4.4094Y-3.2087
X4.439Y-5.7972
X4.4587Y-3.1496
X4.4587Y-3.189
X4.4587Y-3.2283
X4.4783Y-5.6988
X4.5079Y-3.1594
X4.5079Y-3.2087
X4.5276Y-1.998
X4.5354Y-2.7854
X4.5768Y-4.3504
X4.5866Y-5.0394
X4.626Y-2.9331
X4.626Y-3.7795
X4.626Y-4.3327
X4.626Y-5.0394
X4.6457Y-1.9882
X4.6752Y-4.3504
X4.6752Y-5.0394
X4.7047Y-2.8248
X4.7047Y-5.6004
X4.7047Y-5.6988
X4.7441Y-2.3012
X4.7441Y-4.0945
X4.7441Y-4.1339
X4.7441Y-4.1732
X4.7539Y-5.7972
X4.7736Y-5.3937
X4.7835Y-4.0945
X4.7835Y-4.1339
X4.7835Y-4.1732
X4.8031Y-5.6024
X4.8228Y-4.0945
X4.8228Y-4.1339
X4.8228Y-4.1732
X4.8327Y-5.7874
X4.8583Y-4.9606
X4.8622Y-2.3012
X4.8622Y-4.0945
X4.8622Y-4.1339
X4.8622Y-4.1732
X4.8622Y-5.4232
X4.8819Y-5.6988
X4.8957Y-4.9705
X4.9016Y-3.7402
X4.9016Y-4.0945
X4.9016Y-4.1339
X4.9016Y-4.1732
X4.9035Y-5.4823
X4.9705Y-3.7402
X4.9803Y-2.3012
X4.9902Y-2.8051
X4.9902Y-2.9823
X4.9902Y-3.8878
X5.0374Y-3.7283
X5.0394Y-2.0276
X5.0669Y-2.4587
X5.0984Y-2.3012
X5.1083Y-5.6988
X5.1476Y-5.8169
X5.1673Y-3.8681
X5.2008Y-4.1181
X5.2146Y-2.4587
X5.2165Y-2.3012
X5.2717Y-4.1398
X5.2756Y-2.0276
X5.2894Y-4.1693
X5.2953Y-5.7874
X5.3091Y-4.252
X5.3287Y-4.2165
X5.3346Y-2.3012
X5.3445Y-3.8346
X5.3543Y-5.6988
X5.3622Y-2.4587
X5.3661Y-2.0551
X5.4035Y-4.6949
X5.4311Y-3.8327
X5.4331Y-4.0157
X5.4528Y-2.3012
X5.4882Y-3.122
X5.4961Y-4.1654
X5.5217Y-4.6949
X5.5413Y-5.6004
X5.5512Y-4.0177
X5.561Y-2.8248
X5.5709Y-2.0374
X5.5807Y-5.6988
X5.5945Y-3.8327
X5.6004Y-3.1299
X5.6102Y-5.3898
X5.6299Y-5.7874
X5.6398Y-5.6024
X5.6693Y-2.0374
X5.6791Y-3.3937
X5.6909Y-2.9547
X5.6909Y-2.9921
X5.6988Y-5.4232
X5.6988Y-5.7677
X5.6988Y-5.8465
X5.7008Y-4.0413
X5.7087Y-2.7067
X5.7106Y-3.1823
X5.7283Y-4.6043
X5.7303Y-4.6673
X5.7382Y-2.9685
X5.7382Y-3.0807
X5.7382Y-5.4823
X5.748Y-3.6417
X5.7579Y-5.6988
X5.7638Y-4.0256
X5.7638Y-4.0945
X5.7756Y-3.7224
X5.7756Y-3.9567
X5.7894Y-2.9744
X5.7933Y-4.0709
X5.811Y-4.2165
X5.815Y-4.1555
X5.8169Y-4.0138
X5.8248Y-4.252
X5.8327Y-4.1831
X5.8376Y-3.7234
X5.8465Y-3.4843
X5.8661Y-4.3012
X5.876Y-2.0276
X5.8858Y-3.2992
X5.9055Y-3.7894
X5.9331Y-3.8957
X5.935Y-4.1339
X5.9941Y-3.2776
X5.9941Y-3.8976
X5.9941Y-4.1339
X5.9941Y-5.6988
X6.0236Y-3.7894
X6.0276Y-4.065
X6.0335Y-5.8169
X6.0433Y-4.0846
X6.0453Y-3.9665
X6.0472Y-3.9075
X6.0551Y-3.7795
X6.063Y-5.8661
X6.1417Y-4.1043
X6.1437Y-3.8976
X6.1516Y-5.8661
X6.1575Y-3.4469
X6.1713Y-3.7028
X6.1949Y-2.3701
X6.2106Y-3.4547
X6.2106Y-3.6909
X6.2205Y-4.1988
X6.2392Y-4.3022
X6.2579Y-3.7303
X6.2598Y-5.8661
X6.2795Y-3.7795
X6.2795Y-4.2205
X6.2894Y-3.4547
X6.2992Y-4.2028
X6.3012Y-4.3012
X6.3268Y-4.6004
X6.3484Y-3.8957
X6.3484Y-4.3406
X6.3524Y-4.6299
X6.3543Y-3.7382
X6.3543Y-4.1004
X6.3563Y-5.2224
X6.3583Y-3.4547
X6.3583Y-4.2047
X6.3681Y-3.315
X6.3681Y-5.8661
X6.376Y-4.3051
X6.378Y-3.748
X6.3858Y-3.7717
X6.3976Y-3.4055
X6.3976Y-3.7933
X6.4213Y-4.2067
X6.439Y-4.3012
X6.4488Y-3.1142
X6.4528Y-4.0059
X6.4528Y-4.0846
X6.4547Y-3.8976
X6.4567Y-3.937
X6.4567Y-4.1339
X6.4567Y-4.8031
X6.4567Y-4.8819
X6.4587Y-3.3642
X6.4646Y-3.9705
X6.4665Y-3.6693
X6.4665Y-3.7323
X6.4665Y-4.0256
X6.4665Y-4.3406
X6.4764Y-2.0079
X6.4764Y-5.8661
X6.4862Y-4.8031
X6.4862Y-4.8819
X6.4961Y-3.4429
X6.5059Y-4.1457
X6.5059Y-4.2598
X6.5148Y-3.249
X6.5157Y-4.8031
X6.5157Y-4.8819
X6.5335Y-3.3563
X6.5335Y-3.9862
X6.5354Y-3.75
X6.5354Y-3.8091
X6.5354Y-3.8661
X6.5453Y-4.8031
X6.5453Y-4.8819
X6.5453Y-5.8661
X6.5551Y-4.1457
X6.5748Y-3.7992
X6.5748Y-3.8287
X6.5748Y-3.8583
X6.5748Y-4.1752
X6.5748Y-4.8031
X6.5748Y-4.8819
X6.5886Y-5.2559
X6.5945Y-4.1457
X6.6043Y-1.998
X6.6043Y-3.2185
X6.6043Y-3.3878
X6.6043Y-3.6516
X6.6339Y-3.6516
X6.6417Y-5.2244
X6.6634Y-3.4941
X6.6634Y-3.5531
X6.6634Y-3.6516
X6.6831Y-5.8661
X6.752Y-4.8031
X6.752Y-4.8819
X6.7815Y-4.8031
X6.7815Y-4.8819
X6.811Y-4.8031
X6.811Y-4.8819
X6.8209Y-5.8661
X6.8307Y-1.998
X6.8406Y-4.8031
X6.8406Y-4.8819
X6.8701Y-4.8031
X6.8701Y-4.8819
X6.874Y-5.2559
X6.9272Y-5.2146
X6.939Y-5.876
X7.0118Y-3.7717
X7.0177Y-1.998
X7.0177Y-3.7303
X7.0374Y-4.8031
X7.0374Y-4.8819
X7.0571Y-4.2815
X7.0669Y-4.8031
X7.0669Y-4.8819
X7.0669Y-5.8661
X7.0965Y-4.2815
X7.0965Y-4.8031
X7.0965Y-4.8819
X7.1201Y-3.8169
X7.126Y-4.8031
X7.126Y-4.8819
X7.1358Y-4.2815
X7.1555Y-4.8031
X7.1555Y-4.8819
X7.1594Y-5.2559
X7.1752Y-4.2815
X7.1811Y-3.5866
X7.185Y-5.8661
X7.1929Y-3.6142
X7.2106Y-3.565
X7.2146Y-4.2815
X7.2323Y-3.4803
X7.2539Y-4.2815
X7.2913Y-2.4764
X7.3228Y-4.8031
X7.3228Y-4.8819
X7.3425Y-5.8661
X7.3524Y-4.8031
X7.3524Y-4.8819
X7.3622Y-1.998
X7.3819Y-4.8031
X7.3819Y-4.8819
X7.4114Y-4.8031
X7.4114Y-4.8819
X7.4409Y-4.8031
X7.4409Y-4.8819
X7.4449Y-5.2559
X7.4902Y-5.8661
X7.5295Y-1.998
X7.815Y-2.0079
X7.8346Y-2.3327
X7.8346Y-2.4409
X7.8346Y-2.5492
X7.8346Y-2.6772
X7.8346Y-2.7461
X7.8346Y-2.815
X7.8346Y-2.9429
X7.8346Y-3.0709
X7.8346Y-3.1594
X7.8346Y-3.2677
X7.8346Y-3.4055
X7.8346Y-3.5236
X7.8346Y-3.6811
X7.8346Y-3.8189
X7.8346Y-3.9567
X7.8346Y-4.0945
X7.8346Y-4.1831
X7.8346Y-4.3209
X7.8346Y-4.4094
X7.8346Y-4.498
X7.8346Y-4.5669
X7.8346Y-4.6654
X7.8346Y-4.7638
X7.8346Y-4.872
X7.8346Y-4.9902
X7.8346Y-5.128
X7.8346Y-5.2362
X7.8346Y-5.3346
X7.8346Y-5.4331
X7.8346Y-5.5118
X7.8346Y-5.8465
X7.8445Y-2.2441
T2
X6.5441Y-5.4724
X6.5441Y-5.7724
X6.6441Y-5.4724
X6.6441Y-5.7724
X6.7441Y-5.4724
X6.7441Y-5.7724
X6.8441Y-5.4724
X6.8441Y-5.7724
X6.9441Y-5.4724
X6.9441Y-5.7724
X7.0441Y-5.4724
X7.0441Y-5.7724
X7.1441Y-5.4724
X7.1441Y-5.7724
X7.2441Y-5.4724
X7.2441Y-5.7724
X7.4508Y-2.5098
X7.4508Y-2.6098
X7.4508Y-2.7098
X7.4508Y-2.8098
X7.4508Y-2.9098
X7.4508Y-3.0098
X7.4508Y-3.1098
X7.4508Y-3.2098
X7.7508Y-2.5098
X7.7508Y-2.6098
X7.7508Y-2.7098
X7.7508Y-2.8098
X7.7508Y-2.9098
X7.7508Y-3.0098
X7.7508Y-3.1098
X7.7508Y-3.2098
T3
X4.2323Y-5.4528
X4.4488Y-2.6083
X4.5488Y-2.6083
X4.5965Y-3.6516
X4.6457Y-5.374
X4.6965Y-3.6516
X4.8819Y-3.5433
X4.9705Y-4.5965
X5.0295Y-5.2953
X5.0705Y-4.5965
X5.1083Y-5.0591
X5.1673Y-4.3602
X5.2083Y-5.0591
X5.2264Y-5.4528
X5.2756Y-4.8228
X5.4724Y-5.2461
X5.5724Y-5.2461
X5.6724Y-5.2461
X5.7724Y-5.2461
X5.8713Y-2.1441
X5.8713Y-2.2441
X5.8957Y-4.5177
X5.935Y-3.1398
X5.935Y-3.5728
X5.9713Y-2.1441
X5.9713Y-2.2441
X6.0472Y-4.7933
X6.063Y-3.0315
X6.0713Y-2.1441
X6.0713Y-2.2441
X6.0728Y-2.8346
X6.1122Y-3.3858
X6.1122Y-5.2756
X6.1614Y-4.6791
X6.1614Y-4.9075
X6.1713Y-2.1441
X6.1713Y-2.2441
X6.2106Y-2.9429
X6.2106Y-3.2087
X6.2205Y-4.4094
X6.2713Y-2.1441
X6.2713Y-2.2441
X6.2756Y-4.7933
X6.2894Y-3.376
X6.3713Y-2.1441
X6.3713Y-2.2441
X6.4713Y-2.1441
X6.4713Y-2.2441
X6.4862Y-2.9626
X6.5713Y-2.1441
X6.5713Y-2.2441
X6.5862Y-2.9626
X6.6476Y-4.5177
X6.6713Y-2.1441
X6.6713Y-2.2441
X6.7224Y-2.7756
X6.7618Y-4.4035
X6.7618Y-4.6319
X6.876Y-4.5177
X7.0768Y-2.0965
X7.0768Y-2.1965
X7.0768Y-2.2965
X7.0768Y-2.3965
X7.0965Y-3.9469
X7.1965Y-3.9469
X7.3524Y-3.7697
X7.5787Y-4.5571
T4
X4.2126Y-3.4547
X4.2126Y-3.5925
X4.2126Y-4.5276
X4.2126Y-4.6654
X4.2126Y-4.8031
X4.2126Y-4.9409
X7.5984Y-3.7008
X7.5984Y-3.8386
X7.5984Y-3.9764
X7.5984Y-4.1142
T5
X5.4331Y-3.3858
X6.1614Y-4.7933
X6.7618Y-4.5177
X6.9587Y-3.3563
T6
X5.3331Y-3.2858
X5.3331Y-3.4858
X5.5331Y-3.2858
X5.5331Y-3.4858
X6.8587Y-3.2563
X6.8587Y-3.4563
X7.0587Y-3.2563
X7.0587Y-3.4563
T7
X4.1339Y-2.1654
X4.1339Y-5.7087
X7.6772Y-2.1654
X7.6772Y-5.7087
T0
M30
