%TF.GenerationSoftware,KiCad,Pcbnew,5.1.10-88a1d61d58~90~ubuntu20.04.1*%
%TF.CreationDate,2021-12-17T14:40:14-08:00*%
%TF.ProjectId,pmic-test-board,706d6963-2d74-4657-9374-2d626f617264,rev?*%
%TF.SameCoordinates,Original*%
%TF.FileFunction,Soldermask,Top*%
%TF.FilePolarity,Negative*%
%FSLAX46Y46*%
G04 Gerber Fmt 4.6, Leading zero omitted, Abs format (unit mm)*
G04 Created by KiCad (PCBNEW 5.1.10-88a1d61d58~90~ubuntu20.04.1) date 2021-12-17 14:40:14*
%MOMM*%
%LPD*%
G01*
G04 APERTURE LIST*
%ADD10C,2.000000*%
%ADD11R,1.050000X0.650000*%
%ADD12R,2.000000X1.700000*%
%ADD13O,1.700000X1.700000*%
%ADD14R,1.700000X1.700000*%
%ADD15R,1.750000X1.100000*%
%ADD16C,2.250000*%
%ADD17C,2.050000*%
%ADD18C,3.500000*%
%ADD19C,2.500000*%
%ADD20C,1.700000*%
%ADD21R,1.100000X1.300000*%
%ADD22R,0.650000X1.220000*%
%ADD23R,2.350000X1.780000*%
%ADD24R,0.800000X0.900000*%
%ADD25R,1.500000X2.000000*%
%ADD26R,3.800000X2.000000*%
%ADD27R,6.000000X6.000000*%
%ADD28R,0.400000X0.650000*%
%ADD29O,1.600000X1.600000*%
%ADD30R,1.600000X1.600000*%
%ADD31R,1.270000X4.200000*%
%ADD32R,1.350000X4.700000*%
%ADD33R,0.450000X0.600000*%
G04 APERTURE END LIST*
D10*
%TO.C,TP111*%
X107500000Y-138500000D03*
%TD*%
%TO.C,TP110*%
X155250000Y-134000000D03*
%TD*%
%TO.C,TP109*%
X127750000Y-134500000D03*
%TD*%
%TO.C,TP108*%
X132750000Y-138500000D03*
%TD*%
%TO.C,TP107*%
X118000000Y-136500000D03*
%TD*%
D11*
%TO.C,SW102*%
X137925000Y-97925000D03*
X142075000Y-97925000D03*
X137925000Y-100075000D03*
X142075000Y-100075000D03*
%TD*%
D12*
%TO.C,L101*%
X176250000Y-103000000D03*
X170250000Y-103000000D03*
%TD*%
D10*
%TO.C,TP106*%
X155250000Y-86000000D03*
%TD*%
%TO.C,TP105*%
X157750000Y-81500000D03*
%TD*%
%TO.C,R149*%
G36*
G01*
X155725000Y-89675000D02*
X156275000Y-89675000D01*
G75*
G02*
X156475000Y-89875000I0J-200000D01*
G01*
X156475000Y-90275000D01*
G75*
G02*
X156275000Y-90475000I-200000J0D01*
G01*
X155725000Y-90475000D01*
G75*
G02*
X155525000Y-90275000I0J200000D01*
G01*
X155525000Y-89875000D01*
G75*
G02*
X155725000Y-89675000I200000J0D01*
G01*
G37*
G36*
G01*
X155725000Y-88025000D02*
X156275000Y-88025000D01*
G75*
G02*
X156475000Y-88225000I0J-200000D01*
G01*
X156475000Y-88625000D01*
G75*
G02*
X156275000Y-88825000I-200000J0D01*
G01*
X155725000Y-88825000D01*
G75*
G02*
X155525000Y-88625000I0J200000D01*
G01*
X155525000Y-88225000D01*
G75*
G02*
X155725000Y-88025000I200000J0D01*
G01*
G37*
%TD*%
%TO.C,R148*%
G36*
G01*
X139325000Y-129975000D02*
X139325000Y-130525000D01*
G75*
G02*
X139125000Y-130725000I-200000J0D01*
G01*
X138725000Y-130725000D01*
G75*
G02*
X138525000Y-130525000I0J200000D01*
G01*
X138525000Y-129975000D01*
G75*
G02*
X138725000Y-129775000I200000J0D01*
G01*
X139125000Y-129775000D01*
G75*
G02*
X139325000Y-129975000I0J-200000D01*
G01*
G37*
G36*
G01*
X140975000Y-129975000D02*
X140975000Y-130525000D01*
G75*
G02*
X140775000Y-130725000I-200000J0D01*
G01*
X140375000Y-130725000D01*
G75*
G02*
X140175000Y-130525000I0J200000D01*
G01*
X140175000Y-129975000D01*
G75*
G02*
X140375000Y-129775000I200000J0D01*
G01*
X140775000Y-129775000D01*
G75*
G02*
X140975000Y-129975000I0J-200000D01*
G01*
G37*
%TD*%
%TO.C,R147*%
G36*
G01*
X156775000Y-60575000D02*
X156225000Y-60575000D01*
G75*
G02*
X156025000Y-60375000I0J200000D01*
G01*
X156025000Y-59975000D01*
G75*
G02*
X156225000Y-59775000I200000J0D01*
G01*
X156775000Y-59775000D01*
G75*
G02*
X156975000Y-59975000I0J-200000D01*
G01*
X156975000Y-60375000D01*
G75*
G02*
X156775000Y-60575000I-200000J0D01*
G01*
G37*
G36*
G01*
X156775000Y-62225000D02*
X156225000Y-62225000D01*
G75*
G02*
X156025000Y-62025000I0J200000D01*
G01*
X156025000Y-61625000D01*
G75*
G02*
X156225000Y-61425000I200000J0D01*
G01*
X156775000Y-61425000D01*
G75*
G02*
X156975000Y-61625000I0J-200000D01*
G01*
X156975000Y-62025000D01*
G75*
G02*
X156775000Y-62225000I-200000J0D01*
G01*
G37*
%TD*%
D13*
%TO.C,J204*%
X115540000Y-66250000D03*
D14*
X113000000Y-66250000D03*
%TD*%
%TO.C,R313*%
G36*
G01*
X186525000Y-55325000D02*
X185975000Y-55325000D01*
G75*
G02*
X185775000Y-55125000I0J200000D01*
G01*
X185775000Y-54725000D01*
G75*
G02*
X185975000Y-54525000I200000J0D01*
G01*
X186525000Y-54525000D01*
G75*
G02*
X186725000Y-54725000I0J-200000D01*
G01*
X186725000Y-55125000D01*
G75*
G02*
X186525000Y-55325000I-200000J0D01*
G01*
G37*
G36*
G01*
X186525000Y-56975000D02*
X185975000Y-56975000D01*
G75*
G02*
X185775000Y-56775000I0J200000D01*
G01*
X185775000Y-56375000D01*
G75*
G02*
X185975000Y-56175000I200000J0D01*
G01*
X186525000Y-56175000D01*
G75*
G02*
X186725000Y-56375000I0J-200000D01*
G01*
X186725000Y-56775000D01*
G75*
G02*
X186525000Y-56975000I-200000J0D01*
G01*
G37*
%TD*%
%TO.C,R312*%
G36*
G01*
X184525000Y-55325000D02*
X183975000Y-55325000D01*
G75*
G02*
X183775000Y-55125000I0J200000D01*
G01*
X183775000Y-54725000D01*
G75*
G02*
X183975000Y-54525000I200000J0D01*
G01*
X184525000Y-54525000D01*
G75*
G02*
X184725000Y-54725000I0J-200000D01*
G01*
X184725000Y-55125000D01*
G75*
G02*
X184525000Y-55325000I-200000J0D01*
G01*
G37*
G36*
G01*
X184525000Y-56975000D02*
X183975000Y-56975000D01*
G75*
G02*
X183775000Y-56775000I0J200000D01*
G01*
X183775000Y-56375000D01*
G75*
G02*
X183975000Y-56175000I200000J0D01*
G01*
X184525000Y-56175000D01*
G75*
G02*
X184725000Y-56375000I0J-200000D01*
G01*
X184725000Y-56775000D01*
G75*
G02*
X184525000Y-56975000I-200000J0D01*
G01*
G37*
%TD*%
%TO.C,FB401*%
G36*
G01*
X163375000Y-80381250D02*
X163375000Y-79618750D01*
G75*
G02*
X163593750Y-79400000I218750J0D01*
G01*
X164031250Y-79400000D01*
G75*
G02*
X164250000Y-79618750I0J-218750D01*
G01*
X164250000Y-80381250D01*
G75*
G02*
X164031250Y-80600000I-218750J0D01*
G01*
X163593750Y-80600000D01*
G75*
G02*
X163375000Y-80381250I0J218750D01*
G01*
G37*
G36*
G01*
X161250000Y-80381250D02*
X161250000Y-79618750D01*
G75*
G02*
X161468750Y-79400000I218750J0D01*
G01*
X161906250Y-79400000D01*
G75*
G02*
X162125000Y-79618750I0J-218750D01*
G01*
X162125000Y-80381250D01*
G75*
G02*
X161906250Y-80600000I-218750J0D01*
G01*
X161468750Y-80600000D01*
G75*
G02*
X161250000Y-80381250I0J218750D01*
G01*
G37*
%TD*%
%TO.C,R146*%
G36*
G01*
X148275000Y-140075000D02*
X147725000Y-140075000D01*
G75*
G02*
X147525000Y-139875000I0J200000D01*
G01*
X147525000Y-139475000D01*
G75*
G02*
X147725000Y-139275000I200000J0D01*
G01*
X148275000Y-139275000D01*
G75*
G02*
X148475000Y-139475000I0J-200000D01*
G01*
X148475000Y-139875000D01*
G75*
G02*
X148275000Y-140075000I-200000J0D01*
G01*
G37*
G36*
G01*
X148275000Y-141725000D02*
X147725000Y-141725000D01*
G75*
G02*
X147525000Y-141525000I0J200000D01*
G01*
X147525000Y-141125000D01*
G75*
G02*
X147725000Y-140925000I200000J0D01*
G01*
X148275000Y-140925000D01*
G75*
G02*
X148475000Y-141125000I0J-200000D01*
G01*
X148475000Y-141525000D01*
G75*
G02*
X148275000Y-141725000I-200000J0D01*
G01*
G37*
%TD*%
%TO.C,R145*%
G36*
G01*
X138475000Y-141175000D02*
X139025000Y-141175000D01*
G75*
G02*
X139225000Y-141375000I0J-200000D01*
G01*
X139225000Y-141775000D01*
G75*
G02*
X139025000Y-141975000I-200000J0D01*
G01*
X138475000Y-141975000D01*
G75*
G02*
X138275000Y-141775000I0J200000D01*
G01*
X138275000Y-141375000D01*
G75*
G02*
X138475000Y-141175000I200000J0D01*
G01*
G37*
G36*
G01*
X138475000Y-139525000D02*
X139025000Y-139525000D01*
G75*
G02*
X139225000Y-139725000I0J-200000D01*
G01*
X139225000Y-140125000D01*
G75*
G02*
X139025000Y-140325000I-200000J0D01*
G01*
X138475000Y-140325000D01*
G75*
G02*
X138275000Y-140125000I0J200000D01*
G01*
X138275000Y-139725000D01*
G75*
G02*
X138475000Y-139525000I200000J0D01*
G01*
G37*
%TD*%
%TO.C,R144*%
G36*
G01*
X126525000Y-140325000D02*
X125975000Y-140325000D01*
G75*
G02*
X125775000Y-140125000I0J200000D01*
G01*
X125775000Y-139725000D01*
G75*
G02*
X125975000Y-139525000I200000J0D01*
G01*
X126525000Y-139525000D01*
G75*
G02*
X126725000Y-139725000I0J-200000D01*
G01*
X126725000Y-140125000D01*
G75*
G02*
X126525000Y-140325000I-200000J0D01*
G01*
G37*
G36*
G01*
X126525000Y-141975000D02*
X125975000Y-141975000D01*
G75*
G02*
X125775000Y-141775000I0J200000D01*
G01*
X125775000Y-141375000D01*
G75*
G02*
X125975000Y-141175000I200000J0D01*
G01*
X126525000Y-141175000D01*
G75*
G02*
X126725000Y-141375000I0J-200000D01*
G01*
X126725000Y-141775000D01*
G75*
G02*
X126525000Y-141975000I-200000J0D01*
G01*
G37*
%TD*%
%TO.C,R143*%
G36*
G01*
X117475000Y-141175000D02*
X118025000Y-141175000D01*
G75*
G02*
X118225000Y-141375000I0J-200000D01*
G01*
X118225000Y-141775000D01*
G75*
G02*
X118025000Y-141975000I-200000J0D01*
G01*
X117475000Y-141975000D01*
G75*
G02*
X117275000Y-141775000I0J200000D01*
G01*
X117275000Y-141375000D01*
G75*
G02*
X117475000Y-141175000I200000J0D01*
G01*
G37*
G36*
G01*
X117475000Y-139525000D02*
X118025000Y-139525000D01*
G75*
G02*
X118225000Y-139725000I0J-200000D01*
G01*
X118225000Y-140125000D01*
G75*
G02*
X118025000Y-140325000I-200000J0D01*
G01*
X117475000Y-140325000D01*
G75*
G02*
X117275000Y-140125000I0J200000D01*
G01*
X117275000Y-139725000D01*
G75*
G02*
X117475000Y-139525000I200000J0D01*
G01*
G37*
%TD*%
D15*
%TO.C,R201*%
X123875000Y-112450000D03*
X123875000Y-111050000D03*
X126625000Y-112450000D03*
X126625000Y-111050000D03*
%TD*%
D16*
%TO.C,J301*%
X140540000Y-83460000D03*
X140540000Y-88540000D03*
X135460000Y-88540000D03*
X135460000Y-83460000D03*
D17*
X138000000Y-86000000D03*
%TD*%
D16*
%TO.C,J110*%
X179290000Y-82710000D03*
X179290000Y-87790000D03*
X174210000Y-87790000D03*
X174210000Y-82710000D03*
D17*
X176750000Y-85250000D03*
%TD*%
%TO.C,R107*%
G36*
G01*
X160025000Y-91825000D02*
X159475000Y-91825000D01*
G75*
G02*
X159275000Y-91625000I0J200000D01*
G01*
X159275000Y-91225000D01*
G75*
G02*
X159475000Y-91025000I200000J0D01*
G01*
X160025000Y-91025000D01*
G75*
G02*
X160225000Y-91225000I0J-200000D01*
G01*
X160225000Y-91625000D01*
G75*
G02*
X160025000Y-91825000I-200000J0D01*
G01*
G37*
G36*
G01*
X160025000Y-93475000D02*
X159475000Y-93475000D01*
G75*
G02*
X159275000Y-93275000I0J200000D01*
G01*
X159275000Y-92875000D01*
G75*
G02*
X159475000Y-92675000I200000J0D01*
G01*
X160025000Y-92675000D01*
G75*
G02*
X160225000Y-92875000I0J-200000D01*
G01*
X160225000Y-93275000D01*
G75*
G02*
X160025000Y-93475000I-200000J0D01*
G01*
G37*
%TD*%
%TO.C,C301*%
G36*
G01*
X150925000Y-86000000D02*
X150925000Y-86500000D01*
G75*
G02*
X150700000Y-86725000I-225000J0D01*
G01*
X150250000Y-86725000D01*
G75*
G02*
X150025000Y-86500000I0J225000D01*
G01*
X150025000Y-86000000D01*
G75*
G02*
X150250000Y-85775000I225000J0D01*
G01*
X150700000Y-85775000D01*
G75*
G02*
X150925000Y-86000000I0J-225000D01*
G01*
G37*
G36*
G01*
X152475000Y-86000000D02*
X152475000Y-86500000D01*
G75*
G02*
X152250000Y-86725000I-225000J0D01*
G01*
X151800000Y-86725000D01*
G75*
G02*
X151575000Y-86500000I0J225000D01*
G01*
X151575000Y-86000000D01*
G75*
G02*
X151800000Y-85775000I225000J0D01*
G01*
X152250000Y-85775000D01*
G75*
G02*
X152475000Y-86000000I0J-225000D01*
G01*
G37*
%TD*%
%TO.C,R142*%
G36*
G01*
X178575000Y-102975000D02*
X178575000Y-103525000D01*
G75*
G02*
X178375000Y-103725000I-200000J0D01*
G01*
X177975000Y-103725000D01*
G75*
G02*
X177775000Y-103525000I0J200000D01*
G01*
X177775000Y-102975000D01*
G75*
G02*
X177975000Y-102775000I200000J0D01*
G01*
X178375000Y-102775000D01*
G75*
G02*
X178575000Y-102975000I0J-200000D01*
G01*
G37*
G36*
G01*
X180225000Y-102975000D02*
X180225000Y-103525000D01*
G75*
G02*
X180025000Y-103725000I-200000J0D01*
G01*
X179625000Y-103725000D01*
G75*
G02*
X179425000Y-103525000I0J200000D01*
G01*
X179425000Y-102975000D01*
G75*
G02*
X179625000Y-102775000I200000J0D01*
G01*
X180025000Y-102775000D01*
G75*
G02*
X180225000Y-102975000I0J-200000D01*
G01*
G37*
%TD*%
D18*
%TO.C,J118*%
X195000000Y-145000000D03*
%TD*%
%TO.C,J117*%
X105000000Y-145000000D03*
%TD*%
%TO.C,J116*%
X105000000Y-55000000D03*
%TD*%
%TO.C,J115*%
X195000000Y-55000000D03*
%TD*%
D19*
%TO.C,J114*%
X156500000Y-121750000D03*
D20*
X156500000Y-124650000D03*
X159400000Y-121750000D03*
X156500000Y-118850000D03*
X153600000Y-121750000D03*
%TD*%
%TO.C,C121*%
G36*
G01*
X143575000Y-138000000D02*
X143575000Y-137500000D01*
G75*
G02*
X143800000Y-137275000I225000J0D01*
G01*
X144250000Y-137275000D01*
G75*
G02*
X144475000Y-137500000I0J-225000D01*
G01*
X144475000Y-138000000D01*
G75*
G02*
X144250000Y-138225000I-225000J0D01*
G01*
X143800000Y-138225000D01*
G75*
G02*
X143575000Y-138000000I0J225000D01*
G01*
G37*
G36*
G01*
X142025000Y-138000000D02*
X142025000Y-137500000D01*
G75*
G02*
X142250000Y-137275000I225000J0D01*
G01*
X142700000Y-137275000D01*
G75*
G02*
X142925000Y-137500000I0J-225000D01*
G01*
X142925000Y-138000000D01*
G75*
G02*
X142700000Y-138225000I-225000J0D01*
G01*
X142250000Y-138225000D01*
G75*
G02*
X142025000Y-138000000I0J225000D01*
G01*
G37*
%TD*%
%TO.C,C120*%
G36*
G01*
X122325000Y-138000000D02*
X122325000Y-137500000D01*
G75*
G02*
X122550000Y-137275000I225000J0D01*
G01*
X123000000Y-137275000D01*
G75*
G02*
X123225000Y-137500000I0J-225000D01*
G01*
X123225000Y-138000000D01*
G75*
G02*
X123000000Y-138225000I-225000J0D01*
G01*
X122550000Y-138225000D01*
G75*
G02*
X122325000Y-138000000I0J225000D01*
G01*
G37*
G36*
G01*
X120775000Y-138000000D02*
X120775000Y-137500000D01*
G75*
G02*
X121000000Y-137275000I225000J0D01*
G01*
X121450000Y-137275000D01*
G75*
G02*
X121675000Y-137500000I0J-225000D01*
G01*
X121675000Y-138000000D01*
G75*
G02*
X121450000Y-138225000I-225000J0D01*
G01*
X121000000Y-138225000D01*
G75*
G02*
X120775000Y-138000000I0J225000D01*
G01*
G37*
%TD*%
D10*
%TO.C,J113*%
X193000000Y-94000000D03*
X193000000Y-97500000D03*
X193000000Y-101000000D03*
X193000000Y-104500000D03*
%TD*%
D13*
%TO.C,J105*%
X182790000Y-100250000D03*
D14*
X180250000Y-100250000D03*
%TD*%
D21*
%TO.C,X101*%
X148325000Y-97450000D03*
X148325000Y-99550000D03*
X146675000Y-99550000D03*
X146675000Y-97450000D03*
%TD*%
D22*
%TO.C,U401*%
X164050000Y-83940000D03*
X165000000Y-83940000D03*
X165950000Y-83940000D03*
X165950000Y-86560000D03*
X165000000Y-86560000D03*
X164050000Y-86560000D03*
%TD*%
D23*
%TO.C,U302*%
X145750000Y-78250000D03*
G36*
G01*
X144600000Y-77150000D02*
X144500000Y-77150000D01*
G75*
G02*
X144450000Y-77100000I0J50000D01*
G01*
X144450000Y-76425000D01*
G75*
G02*
X144500000Y-76375000I50000J0D01*
G01*
X144600000Y-76375000D01*
G75*
G02*
X144650000Y-76425000I0J-50000D01*
G01*
X144650000Y-77100000D01*
G75*
G02*
X144600000Y-77150000I-50000J0D01*
G01*
G37*
G36*
G01*
X145000000Y-77150000D02*
X144900000Y-77150000D01*
G75*
G02*
X144850000Y-77100000I0J50000D01*
G01*
X144850000Y-76425000D01*
G75*
G02*
X144900000Y-76375000I50000J0D01*
G01*
X145000000Y-76375000D01*
G75*
G02*
X145050000Y-76425000I0J-50000D01*
G01*
X145050000Y-77100000D01*
G75*
G02*
X145000000Y-77150000I-50000J0D01*
G01*
G37*
G36*
G01*
X145400000Y-77150000D02*
X145300000Y-77150000D01*
G75*
G02*
X145250000Y-77100000I0J50000D01*
G01*
X145250000Y-76425000D01*
G75*
G02*
X145300000Y-76375000I50000J0D01*
G01*
X145400000Y-76375000D01*
G75*
G02*
X145450000Y-76425000I0J-50000D01*
G01*
X145450000Y-77100000D01*
G75*
G02*
X145400000Y-77150000I-50000J0D01*
G01*
G37*
G36*
G01*
X145800000Y-77150000D02*
X145700000Y-77150000D01*
G75*
G02*
X145650000Y-77100000I0J50000D01*
G01*
X145650000Y-76425000D01*
G75*
G02*
X145700000Y-76375000I50000J0D01*
G01*
X145800000Y-76375000D01*
G75*
G02*
X145850000Y-76425000I0J-50000D01*
G01*
X145850000Y-77100000D01*
G75*
G02*
X145800000Y-77150000I-50000J0D01*
G01*
G37*
G36*
G01*
X146200000Y-77150000D02*
X146100000Y-77150000D01*
G75*
G02*
X146050000Y-77100000I0J50000D01*
G01*
X146050000Y-76425000D01*
G75*
G02*
X146100000Y-76375000I50000J0D01*
G01*
X146200000Y-76375000D01*
G75*
G02*
X146250000Y-76425000I0J-50000D01*
G01*
X146250000Y-77100000D01*
G75*
G02*
X146200000Y-77150000I-50000J0D01*
G01*
G37*
G36*
G01*
X146600000Y-77150000D02*
X146500000Y-77150000D01*
G75*
G02*
X146450000Y-77100000I0J50000D01*
G01*
X146450000Y-76425000D01*
G75*
G02*
X146500000Y-76375000I50000J0D01*
G01*
X146600000Y-76375000D01*
G75*
G02*
X146650000Y-76425000I0J-50000D01*
G01*
X146650000Y-77100000D01*
G75*
G02*
X146600000Y-77150000I-50000J0D01*
G01*
G37*
G36*
G01*
X147000000Y-77150000D02*
X146900000Y-77150000D01*
G75*
G02*
X146850000Y-77100000I0J50000D01*
G01*
X146850000Y-76425000D01*
G75*
G02*
X146900000Y-76375000I50000J0D01*
G01*
X147000000Y-76375000D01*
G75*
G02*
X147050000Y-76425000I0J-50000D01*
G01*
X147050000Y-77100000D01*
G75*
G02*
X147000000Y-77150000I-50000J0D01*
G01*
G37*
G36*
G01*
X147000000Y-80125000D02*
X146900000Y-80125000D01*
G75*
G02*
X146850000Y-80075000I0J50000D01*
G01*
X146850000Y-79400000D01*
G75*
G02*
X146900000Y-79350000I50000J0D01*
G01*
X147000000Y-79350000D01*
G75*
G02*
X147050000Y-79400000I0J-50000D01*
G01*
X147050000Y-80075000D01*
G75*
G02*
X147000000Y-80125000I-50000J0D01*
G01*
G37*
G36*
G01*
X146600000Y-80125000D02*
X146500000Y-80125000D01*
G75*
G02*
X146450000Y-80075000I0J50000D01*
G01*
X146450000Y-79400000D01*
G75*
G02*
X146500000Y-79350000I50000J0D01*
G01*
X146600000Y-79350000D01*
G75*
G02*
X146650000Y-79400000I0J-50000D01*
G01*
X146650000Y-80075000D01*
G75*
G02*
X146600000Y-80125000I-50000J0D01*
G01*
G37*
G36*
G01*
X146200000Y-80125000D02*
X146100000Y-80125000D01*
G75*
G02*
X146050000Y-80075000I0J50000D01*
G01*
X146050000Y-79400000D01*
G75*
G02*
X146100000Y-79350000I50000J0D01*
G01*
X146200000Y-79350000D01*
G75*
G02*
X146250000Y-79400000I0J-50000D01*
G01*
X146250000Y-80075000D01*
G75*
G02*
X146200000Y-80125000I-50000J0D01*
G01*
G37*
G36*
G01*
X145800000Y-80125000D02*
X145700000Y-80125000D01*
G75*
G02*
X145650000Y-80075000I0J50000D01*
G01*
X145650000Y-79400000D01*
G75*
G02*
X145700000Y-79350000I50000J0D01*
G01*
X145800000Y-79350000D01*
G75*
G02*
X145850000Y-79400000I0J-50000D01*
G01*
X145850000Y-80075000D01*
G75*
G02*
X145800000Y-80125000I-50000J0D01*
G01*
G37*
G36*
G01*
X145400000Y-80125000D02*
X145300000Y-80125000D01*
G75*
G02*
X145250000Y-80075000I0J50000D01*
G01*
X145250000Y-79400000D01*
G75*
G02*
X145300000Y-79350000I50000J0D01*
G01*
X145400000Y-79350000D01*
G75*
G02*
X145450000Y-79400000I0J-50000D01*
G01*
X145450000Y-80075000D01*
G75*
G02*
X145400000Y-80125000I-50000J0D01*
G01*
G37*
G36*
G01*
X145000000Y-80125000D02*
X144900000Y-80125000D01*
G75*
G02*
X144850000Y-80075000I0J50000D01*
G01*
X144850000Y-79400000D01*
G75*
G02*
X144900000Y-79350000I50000J0D01*
G01*
X145000000Y-79350000D01*
G75*
G02*
X145050000Y-79400000I0J-50000D01*
G01*
X145050000Y-80075000D01*
G75*
G02*
X145000000Y-80125000I-50000J0D01*
G01*
G37*
G36*
G01*
X144600000Y-80125000D02*
X144500000Y-80125000D01*
G75*
G02*
X144450000Y-80075000I0J50000D01*
G01*
X144450000Y-79400000D01*
G75*
G02*
X144500000Y-79350000I50000J0D01*
G01*
X144600000Y-79350000D01*
G75*
G02*
X144650000Y-79400000I0J-50000D01*
G01*
X144650000Y-80075000D01*
G75*
G02*
X144600000Y-80125000I-50000J0D01*
G01*
G37*
%TD*%
D24*
%TO.C,U301*%
X146000000Y-91750000D03*
X145050000Y-89750000D03*
X146950000Y-89750000D03*
%TD*%
D25*
%TO.C,U202*%
X124800000Y-98850000D03*
X120200000Y-98850000D03*
X122500000Y-98850000D03*
D26*
X122500000Y-105150000D03*
%TD*%
D25*
%TO.C,U201*%
X115550000Y-74600000D03*
X110950000Y-74600000D03*
X113250000Y-74600000D03*
D26*
X113250000Y-80900000D03*
%TD*%
D27*
%TO.C,U104*%
X158750000Y-101500000D03*
G36*
G01*
X162812500Y-97625000D02*
X163562500Y-97625000D01*
G75*
G02*
X163625000Y-97687500I0J-62500D01*
G01*
X163625000Y-97812500D01*
G75*
G02*
X163562500Y-97875000I-62500J0D01*
G01*
X162812500Y-97875000D01*
G75*
G02*
X162750000Y-97812500I0J62500D01*
G01*
X162750000Y-97687500D01*
G75*
G02*
X162812500Y-97625000I62500J0D01*
G01*
G37*
G36*
G01*
X162812500Y-98125000D02*
X163562500Y-98125000D01*
G75*
G02*
X163625000Y-98187500I0J-62500D01*
G01*
X163625000Y-98312500D01*
G75*
G02*
X163562500Y-98375000I-62500J0D01*
G01*
X162812500Y-98375000D01*
G75*
G02*
X162750000Y-98312500I0J62500D01*
G01*
X162750000Y-98187500D01*
G75*
G02*
X162812500Y-98125000I62500J0D01*
G01*
G37*
G36*
G01*
X162812500Y-98625000D02*
X163562500Y-98625000D01*
G75*
G02*
X163625000Y-98687500I0J-62500D01*
G01*
X163625000Y-98812500D01*
G75*
G02*
X163562500Y-98875000I-62500J0D01*
G01*
X162812500Y-98875000D01*
G75*
G02*
X162750000Y-98812500I0J62500D01*
G01*
X162750000Y-98687500D01*
G75*
G02*
X162812500Y-98625000I62500J0D01*
G01*
G37*
G36*
G01*
X162812500Y-99125000D02*
X163562500Y-99125000D01*
G75*
G02*
X163625000Y-99187500I0J-62500D01*
G01*
X163625000Y-99312500D01*
G75*
G02*
X163562500Y-99375000I-62500J0D01*
G01*
X162812500Y-99375000D01*
G75*
G02*
X162750000Y-99312500I0J62500D01*
G01*
X162750000Y-99187500D01*
G75*
G02*
X162812500Y-99125000I62500J0D01*
G01*
G37*
G36*
G01*
X162812500Y-99625000D02*
X163562500Y-99625000D01*
G75*
G02*
X163625000Y-99687500I0J-62500D01*
G01*
X163625000Y-99812500D01*
G75*
G02*
X163562500Y-99875000I-62500J0D01*
G01*
X162812500Y-99875000D01*
G75*
G02*
X162750000Y-99812500I0J62500D01*
G01*
X162750000Y-99687500D01*
G75*
G02*
X162812500Y-99625000I62500J0D01*
G01*
G37*
G36*
G01*
X162812500Y-100125000D02*
X163562500Y-100125000D01*
G75*
G02*
X163625000Y-100187500I0J-62500D01*
G01*
X163625000Y-100312500D01*
G75*
G02*
X163562500Y-100375000I-62500J0D01*
G01*
X162812500Y-100375000D01*
G75*
G02*
X162750000Y-100312500I0J62500D01*
G01*
X162750000Y-100187500D01*
G75*
G02*
X162812500Y-100125000I62500J0D01*
G01*
G37*
G36*
G01*
X162812500Y-100625000D02*
X163562500Y-100625000D01*
G75*
G02*
X163625000Y-100687500I0J-62500D01*
G01*
X163625000Y-100812500D01*
G75*
G02*
X163562500Y-100875000I-62500J0D01*
G01*
X162812500Y-100875000D01*
G75*
G02*
X162750000Y-100812500I0J62500D01*
G01*
X162750000Y-100687500D01*
G75*
G02*
X162812500Y-100625000I62500J0D01*
G01*
G37*
G36*
G01*
X162812500Y-101125000D02*
X163562500Y-101125000D01*
G75*
G02*
X163625000Y-101187500I0J-62500D01*
G01*
X163625000Y-101312500D01*
G75*
G02*
X163562500Y-101375000I-62500J0D01*
G01*
X162812500Y-101375000D01*
G75*
G02*
X162750000Y-101312500I0J62500D01*
G01*
X162750000Y-101187500D01*
G75*
G02*
X162812500Y-101125000I62500J0D01*
G01*
G37*
G36*
G01*
X162812500Y-101625000D02*
X163562500Y-101625000D01*
G75*
G02*
X163625000Y-101687500I0J-62500D01*
G01*
X163625000Y-101812500D01*
G75*
G02*
X163562500Y-101875000I-62500J0D01*
G01*
X162812500Y-101875000D01*
G75*
G02*
X162750000Y-101812500I0J62500D01*
G01*
X162750000Y-101687500D01*
G75*
G02*
X162812500Y-101625000I62500J0D01*
G01*
G37*
G36*
G01*
X162812500Y-102125000D02*
X163562500Y-102125000D01*
G75*
G02*
X163625000Y-102187500I0J-62500D01*
G01*
X163625000Y-102312500D01*
G75*
G02*
X163562500Y-102375000I-62500J0D01*
G01*
X162812500Y-102375000D01*
G75*
G02*
X162750000Y-102312500I0J62500D01*
G01*
X162750000Y-102187500D01*
G75*
G02*
X162812500Y-102125000I62500J0D01*
G01*
G37*
G36*
G01*
X162812500Y-102625000D02*
X163562500Y-102625000D01*
G75*
G02*
X163625000Y-102687500I0J-62500D01*
G01*
X163625000Y-102812500D01*
G75*
G02*
X163562500Y-102875000I-62500J0D01*
G01*
X162812500Y-102875000D01*
G75*
G02*
X162750000Y-102812500I0J62500D01*
G01*
X162750000Y-102687500D01*
G75*
G02*
X162812500Y-102625000I62500J0D01*
G01*
G37*
G36*
G01*
X162812500Y-103125000D02*
X163562500Y-103125000D01*
G75*
G02*
X163625000Y-103187500I0J-62500D01*
G01*
X163625000Y-103312500D01*
G75*
G02*
X163562500Y-103375000I-62500J0D01*
G01*
X162812500Y-103375000D01*
G75*
G02*
X162750000Y-103312500I0J62500D01*
G01*
X162750000Y-103187500D01*
G75*
G02*
X162812500Y-103125000I62500J0D01*
G01*
G37*
G36*
G01*
X162812500Y-103625000D02*
X163562500Y-103625000D01*
G75*
G02*
X163625000Y-103687500I0J-62500D01*
G01*
X163625000Y-103812500D01*
G75*
G02*
X163562500Y-103875000I-62500J0D01*
G01*
X162812500Y-103875000D01*
G75*
G02*
X162750000Y-103812500I0J62500D01*
G01*
X162750000Y-103687500D01*
G75*
G02*
X162812500Y-103625000I62500J0D01*
G01*
G37*
G36*
G01*
X162812500Y-104125000D02*
X163562500Y-104125000D01*
G75*
G02*
X163625000Y-104187500I0J-62500D01*
G01*
X163625000Y-104312500D01*
G75*
G02*
X163562500Y-104375000I-62500J0D01*
G01*
X162812500Y-104375000D01*
G75*
G02*
X162750000Y-104312500I0J62500D01*
G01*
X162750000Y-104187500D01*
G75*
G02*
X162812500Y-104125000I62500J0D01*
G01*
G37*
G36*
G01*
X162812500Y-104625000D02*
X163562500Y-104625000D01*
G75*
G02*
X163625000Y-104687500I0J-62500D01*
G01*
X163625000Y-104812500D01*
G75*
G02*
X163562500Y-104875000I-62500J0D01*
G01*
X162812500Y-104875000D01*
G75*
G02*
X162750000Y-104812500I0J62500D01*
G01*
X162750000Y-104687500D01*
G75*
G02*
X162812500Y-104625000I62500J0D01*
G01*
G37*
G36*
G01*
X162812500Y-105125000D02*
X163562500Y-105125000D01*
G75*
G02*
X163625000Y-105187500I0J-62500D01*
G01*
X163625000Y-105312500D01*
G75*
G02*
X163562500Y-105375000I-62500J0D01*
G01*
X162812500Y-105375000D01*
G75*
G02*
X162750000Y-105312500I0J62500D01*
G01*
X162750000Y-105187500D01*
G75*
G02*
X162812500Y-105125000I62500J0D01*
G01*
G37*
G36*
G01*
X162437500Y-105500000D02*
X162562500Y-105500000D01*
G75*
G02*
X162625000Y-105562500I0J-62500D01*
G01*
X162625000Y-106312500D01*
G75*
G02*
X162562500Y-106375000I-62500J0D01*
G01*
X162437500Y-106375000D01*
G75*
G02*
X162375000Y-106312500I0J62500D01*
G01*
X162375000Y-105562500D01*
G75*
G02*
X162437500Y-105500000I62500J0D01*
G01*
G37*
G36*
G01*
X161937500Y-105500000D02*
X162062500Y-105500000D01*
G75*
G02*
X162125000Y-105562500I0J-62500D01*
G01*
X162125000Y-106312500D01*
G75*
G02*
X162062500Y-106375000I-62500J0D01*
G01*
X161937500Y-106375000D01*
G75*
G02*
X161875000Y-106312500I0J62500D01*
G01*
X161875000Y-105562500D01*
G75*
G02*
X161937500Y-105500000I62500J0D01*
G01*
G37*
G36*
G01*
X161437500Y-105500000D02*
X161562500Y-105500000D01*
G75*
G02*
X161625000Y-105562500I0J-62500D01*
G01*
X161625000Y-106312500D01*
G75*
G02*
X161562500Y-106375000I-62500J0D01*
G01*
X161437500Y-106375000D01*
G75*
G02*
X161375000Y-106312500I0J62500D01*
G01*
X161375000Y-105562500D01*
G75*
G02*
X161437500Y-105500000I62500J0D01*
G01*
G37*
G36*
G01*
X160937500Y-105500000D02*
X161062500Y-105500000D01*
G75*
G02*
X161125000Y-105562500I0J-62500D01*
G01*
X161125000Y-106312500D01*
G75*
G02*
X161062500Y-106375000I-62500J0D01*
G01*
X160937500Y-106375000D01*
G75*
G02*
X160875000Y-106312500I0J62500D01*
G01*
X160875000Y-105562500D01*
G75*
G02*
X160937500Y-105500000I62500J0D01*
G01*
G37*
G36*
G01*
X160437500Y-105500000D02*
X160562500Y-105500000D01*
G75*
G02*
X160625000Y-105562500I0J-62500D01*
G01*
X160625000Y-106312500D01*
G75*
G02*
X160562500Y-106375000I-62500J0D01*
G01*
X160437500Y-106375000D01*
G75*
G02*
X160375000Y-106312500I0J62500D01*
G01*
X160375000Y-105562500D01*
G75*
G02*
X160437500Y-105500000I62500J0D01*
G01*
G37*
G36*
G01*
X159937500Y-105500000D02*
X160062500Y-105500000D01*
G75*
G02*
X160125000Y-105562500I0J-62500D01*
G01*
X160125000Y-106312500D01*
G75*
G02*
X160062500Y-106375000I-62500J0D01*
G01*
X159937500Y-106375000D01*
G75*
G02*
X159875000Y-106312500I0J62500D01*
G01*
X159875000Y-105562500D01*
G75*
G02*
X159937500Y-105500000I62500J0D01*
G01*
G37*
G36*
G01*
X159437500Y-105500000D02*
X159562500Y-105500000D01*
G75*
G02*
X159625000Y-105562500I0J-62500D01*
G01*
X159625000Y-106312500D01*
G75*
G02*
X159562500Y-106375000I-62500J0D01*
G01*
X159437500Y-106375000D01*
G75*
G02*
X159375000Y-106312500I0J62500D01*
G01*
X159375000Y-105562500D01*
G75*
G02*
X159437500Y-105500000I62500J0D01*
G01*
G37*
G36*
G01*
X158937500Y-105500000D02*
X159062500Y-105500000D01*
G75*
G02*
X159125000Y-105562500I0J-62500D01*
G01*
X159125000Y-106312500D01*
G75*
G02*
X159062500Y-106375000I-62500J0D01*
G01*
X158937500Y-106375000D01*
G75*
G02*
X158875000Y-106312500I0J62500D01*
G01*
X158875000Y-105562500D01*
G75*
G02*
X158937500Y-105500000I62500J0D01*
G01*
G37*
G36*
G01*
X158437500Y-105500000D02*
X158562500Y-105500000D01*
G75*
G02*
X158625000Y-105562500I0J-62500D01*
G01*
X158625000Y-106312500D01*
G75*
G02*
X158562500Y-106375000I-62500J0D01*
G01*
X158437500Y-106375000D01*
G75*
G02*
X158375000Y-106312500I0J62500D01*
G01*
X158375000Y-105562500D01*
G75*
G02*
X158437500Y-105500000I62500J0D01*
G01*
G37*
G36*
G01*
X157937500Y-105500000D02*
X158062500Y-105500000D01*
G75*
G02*
X158125000Y-105562500I0J-62500D01*
G01*
X158125000Y-106312500D01*
G75*
G02*
X158062500Y-106375000I-62500J0D01*
G01*
X157937500Y-106375000D01*
G75*
G02*
X157875000Y-106312500I0J62500D01*
G01*
X157875000Y-105562500D01*
G75*
G02*
X157937500Y-105500000I62500J0D01*
G01*
G37*
G36*
G01*
X157437500Y-105500000D02*
X157562500Y-105500000D01*
G75*
G02*
X157625000Y-105562500I0J-62500D01*
G01*
X157625000Y-106312500D01*
G75*
G02*
X157562500Y-106375000I-62500J0D01*
G01*
X157437500Y-106375000D01*
G75*
G02*
X157375000Y-106312500I0J62500D01*
G01*
X157375000Y-105562500D01*
G75*
G02*
X157437500Y-105500000I62500J0D01*
G01*
G37*
G36*
G01*
X156937500Y-105500000D02*
X157062500Y-105500000D01*
G75*
G02*
X157125000Y-105562500I0J-62500D01*
G01*
X157125000Y-106312500D01*
G75*
G02*
X157062500Y-106375000I-62500J0D01*
G01*
X156937500Y-106375000D01*
G75*
G02*
X156875000Y-106312500I0J62500D01*
G01*
X156875000Y-105562500D01*
G75*
G02*
X156937500Y-105500000I62500J0D01*
G01*
G37*
G36*
G01*
X156437500Y-105500000D02*
X156562500Y-105500000D01*
G75*
G02*
X156625000Y-105562500I0J-62500D01*
G01*
X156625000Y-106312500D01*
G75*
G02*
X156562500Y-106375000I-62500J0D01*
G01*
X156437500Y-106375000D01*
G75*
G02*
X156375000Y-106312500I0J62500D01*
G01*
X156375000Y-105562500D01*
G75*
G02*
X156437500Y-105500000I62500J0D01*
G01*
G37*
G36*
G01*
X155937500Y-105500000D02*
X156062500Y-105500000D01*
G75*
G02*
X156125000Y-105562500I0J-62500D01*
G01*
X156125000Y-106312500D01*
G75*
G02*
X156062500Y-106375000I-62500J0D01*
G01*
X155937500Y-106375000D01*
G75*
G02*
X155875000Y-106312500I0J62500D01*
G01*
X155875000Y-105562500D01*
G75*
G02*
X155937500Y-105500000I62500J0D01*
G01*
G37*
G36*
G01*
X155437500Y-105500000D02*
X155562500Y-105500000D01*
G75*
G02*
X155625000Y-105562500I0J-62500D01*
G01*
X155625000Y-106312500D01*
G75*
G02*
X155562500Y-106375000I-62500J0D01*
G01*
X155437500Y-106375000D01*
G75*
G02*
X155375000Y-106312500I0J62500D01*
G01*
X155375000Y-105562500D01*
G75*
G02*
X155437500Y-105500000I62500J0D01*
G01*
G37*
G36*
G01*
X154937500Y-105500000D02*
X155062500Y-105500000D01*
G75*
G02*
X155125000Y-105562500I0J-62500D01*
G01*
X155125000Y-106312500D01*
G75*
G02*
X155062500Y-106375000I-62500J0D01*
G01*
X154937500Y-106375000D01*
G75*
G02*
X154875000Y-106312500I0J62500D01*
G01*
X154875000Y-105562500D01*
G75*
G02*
X154937500Y-105500000I62500J0D01*
G01*
G37*
G36*
G01*
X153937500Y-105125000D02*
X154687500Y-105125000D01*
G75*
G02*
X154750000Y-105187500I0J-62500D01*
G01*
X154750000Y-105312500D01*
G75*
G02*
X154687500Y-105375000I-62500J0D01*
G01*
X153937500Y-105375000D01*
G75*
G02*
X153875000Y-105312500I0J62500D01*
G01*
X153875000Y-105187500D01*
G75*
G02*
X153937500Y-105125000I62500J0D01*
G01*
G37*
G36*
G01*
X153937500Y-104625000D02*
X154687500Y-104625000D01*
G75*
G02*
X154750000Y-104687500I0J-62500D01*
G01*
X154750000Y-104812500D01*
G75*
G02*
X154687500Y-104875000I-62500J0D01*
G01*
X153937500Y-104875000D01*
G75*
G02*
X153875000Y-104812500I0J62500D01*
G01*
X153875000Y-104687500D01*
G75*
G02*
X153937500Y-104625000I62500J0D01*
G01*
G37*
G36*
G01*
X153937500Y-104125000D02*
X154687500Y-104125000D01*
G75*
G02*
X154750000Y-104187500I0J-62500D01*
G01*
X154750000Y-104312500D01*
G75*
G02*
X154687500Y-104375000I-62500J0D01*
G01*
X153937500Y-104375000D01*
G75*
G02*
X153875000Y-104312500I0J62500D01*
G01*
X153875000Y-104187500D01*
G75*
G02*
X153937500Y-104125000I62500J0D01*
G01*
G37*
G36*
G01*
X153937500Y-103625000D02*
X154687500Y-103625000D01*
G75*
G02*
X154750000Y-103687500I0J-62500D01*
G01*
X154750000Y-103812500D01*
G75*
G02*
X154687500Y-103875000I-62500J0D01*
G01*
X153937500Y-103875000D01*
G75*
G02*
X153875000Y-103812500I0J62500D01*
G01*
X153875000Y-103687500D01*
G75*
G02*
X153937500Y-103625000I62500J0D01*
G01*
G37*
G36*
G01*
X153937500Y-103125000D02*
X154687500Y-103125000D01*
G75*
G02*
X154750000Y-103187500I0J-62500D01*
G01*
X154750000Y-103312500D01*
G75*
G02*
X154687500Y-103375000I-62500J0D01*
G01*
X153937500Y-103375000D01*
G75*
G02*
X153875000Y-103312500I0J62500D01*
G01*
X153875000Y-103187500D01*
G75*
G02*
X153937500Y-103125000I62500J0D01*
G01*
G37*
G36*
G01*
X153937500Y-102625000D02*
X154687500Y-102625000D01*
G75*
G02*
X154750000Y-102687500I0J-62500D01*
G01*
X154750000Y-102812500D01*
G75*
G02*
X154687500Y-102875000I-62500J0D01*
G01*
X153937500Y-102875000D01*
G75*
G02*
X153875000Y-102812500I0J62500D01*
G01*
X153875000Y-102687500D01*
G75*
G02*
X153937500Y-102625000I62500J0D01*
G01*
G37*
G36*
G01*
X153937500Y-102125000D02*
X154687500Y-102125000D01*
G75*
G02*
X154750000Y-102187500I0J-62500D01*
G01*
X154750000Y-102312500D01*
G75*
G02*
X154687500Y-102375000I-62500J0D01*
G01*
X153937500Y-102375000D01*
G75*
G02*
X153875000Y-102312500I0J62500D01*
G01*
X153875000Y-102187500D01*
G75*
G02*
X153937500Y-102125000I62500J0D01*
G01*
G37*
G36*
G01*
X153937500Y-101625000D02*
X154687500Y-101625000D01*
G75*
G02*
X154750000Y-101687500I0J-62500D01*
G01*
X154750000Y-101812500D01*
G75*
G02*
X154687500Y-101875000I-62500J0D01*
G01*
X153937500Y-101875000D01*
G75*
G02*
X153875000Y-101812500I0J62500D01*
G01*
X153875000Y-101687500D01*
G75*
G02*
X153937500Y-101625000I62500J0D01*
G01*
G37*
G36*
G01*
X153937500Y-101125000D02*
X154687500Y-101125000D01*
G75*
G02*
X154750000Y-101187500I0J-62500D01*
G01*
X154750000Y-101312500D01*
G75*
G02*
X154687500Y-101375000I-62500J0D01*
G01*
X153937500Y-101375000D01*
G75*
G02*
X153875000Y-101312500I0J62500D01*
G01*
X153875000Y-101187500D01*
G75*
G02*
X153937500Y-101125000I62500J0D01*
G01*
G37*
G36*
G01*
X153937500Y-100625000D02*
X154687500Y-100625000D01*
G75*
G02*
X154750000Y-100687500I0J-62500D01*
G01*
X154750000Y-100812500D01*
G75*
G02*
X154687500Y-100875000I-62500J0D01*
G01*
X153937500Y-100875000D01*
G75*
G02*
X153875000Y-100812500I0J62500D01*
G01*
X153875000Y-100687500D01*
G75*
G02*
X153937500Y-100625000I62500J0D01*
G01*
G37*
G36*
G01*
X153937500Y-100125000D02*
X154687500Y-100125000D01*
G75*
G02*
X154750000Y-100187500I0J-62500D01*
G01*
X154750000Y-100312500D01*
G75*
G02*
X154687500Y-100375000I-62500J0D01*
G01*
X153937500Y-100375000D01*
G75*
G02*
X153875000Y-100312500I0J62500D01*
G01*
X153875000Y-100187500D01*
G75*
G02*
X153937500Y-100125000I62500J0D01*
G01*
G37*
G36*
G01*
X153937500Y-99625000D02*
X154687500Y-99625000D01*
G75*
G02*
X154750000Y-99687500I0J-62500D01*
G01*
X154750000Y-99812500D01*
G75*
G02*
X154687500Y-99875000I-62500J0D01*
G01*
X153937500Y-99875000D01*
G75*
G02*
X153875000Y-99812500I0J62500D01*
G01*
X153875000Y-99687500D01*
G75*
G02*
X153937500Y-99625000I62500J0D01*
G01*
G37*
G36*
G01*
X153937500Y-99125000D02*
X154687500Y-99125000D01*
G75*
G02*
X154750000Y-99187500I0J-62500D01*
G01*
X154750000Y-99312500D01*
G75*
G02*
X154687500Y-99375000I-62500J0D01*
G01*
X153937500Y-99375000D01*
G75*
G02*
X153875000Y-99312500I0J62500D01*
G01*
X153875000Y-99187500D01*
G75*
G02*
X153937500Y-99125000I62500J0D01*
G01*
G37*
G36*
G01*
X153937500Y-98625000D02*
X154687500Y-98625000D01*
G75*
G02*
X154750000Y-98687500I0J-62500D01*
G01*
X154750000Y-98812500D01*
G75*
G02*
X154687500Y-98875000I-62500J0D01*
G01*
X153937500Y-98875000D01*
G75*
G02*
X153875000Y-98812500I0J62500D01*
G01*
X153875000Y-98687500D01*
G75*
G02*
X153937500Y-98625000I62500J0D01*
G01*
G37*
G36*
G01*
X153937500Y-98125000D02*
X154687500Y-98125000D01*
G75*
G02*
X154750000Y-98187500I0J-62500D01*
G01*
X154750000Y-98312500D01*
G75*
G02*
X154687500Y-98375000I-62500J0D01*
G01*
X153937500Y-98375000D01*
G75*
G02*
X153875000Y-98312500I0J62500D01*
G01*
X153875000Y-98187500D01*
G75*
G02*
X153937500Y-98125000I62500J0D01*
G01*
G37*
G36*
G01*
X153937500Y-97625000D02*
X154687500Y-97625000D01*
G75*
G02*
X154750000Y-97687500I0J-62500D01*
G01*
X154750000Y-97812500D01*
G75*
G02*
X154687500Y-97875000I-62500J0D01*
G01*
X153937500Y-97875000D01*
G75*
G02*
X153875000Y-97812500I0J62500D01*
G01*
X153875000Y-97687500D01*
G75*
G02*
X153937500Y-97625000I62500J0D01*
G01*
G37*
G36*
G01*
X154937500Y-96625000D02*
X155062500Y-96625000D01*
G75*
G02*
X155125000Y-96687500I0J-62500D01*
G01*
X155125000Y-97437500D01*
G75*
G02*
X155062500Y-97500000I-62500J0D01*
G01*
X154937500Y-97500000D01*
G75*
G02*
X154875000Y-97437500I0J62500D01*
G01*
X154875000Y-96687500D01*
G75*
G02*
X154937500Y-96625000I62500J0D01*
G01*
G37*
G36*
G01*
X155437500Y-96625000D02*
X155562500Y-96625000D01*
G75*
G02*
X155625000Y-96687500I0J-62500D01*
G01*
X155625000Y-97437500D01*
G75*
G02*
X155562500Y-97500000I-62500J0D01*
G01*
X155437500Y-97500000D01*
G75*
G02*
X155375000Y-97437500I0J62500D01*
G01*
X155375000Y-96687500D01*
G75*
G02*
X155437500Y-96625000I62500J0D01*
G01*
G37*
G36*
G01*
X155937500Y-96625000D02*
X156062500Y-96625000D01*
G75*
G02*
X156125000Y-96687500I0J-62500D01*
G01*
X156125000Y-97437500D01*
G75*
G02*
X156062500Y-97500000I-62500J0D01*
G01*
X155937500Y-97500000D01*
G75*
G02*
X155875000Y-97437500I0J62500D01*
G01*
X155875000Y-96687500D01*
G75*
G02*
X155937500Y-96625000I62500J0D01*
G01*
G37*
G36*
G01*
X156437500Y-96625000D02*
X156562500Y-96625000D01*
G75*
G02*
X156625000Y-96687500I0J-62500D01*
G01*
X156625000Y-97437500D01*
G75*
G02*
X156562500Y-97500000I-62500J0D01*
G01*
X156437500Y-97500000D01*
G75*
G02*
X156375000Y-97437500I0J62500D01*
G01*
X156375000Y-96687500D01*
G75*
G02*
X156437500Y-96625000I62500J0D01*
G01*
G37*
G36*
G01*
X156937500Y-96625000D02*
X157062500Y-96625000D01*
G75*
G02*
X157125000Y-96687500I0J-62500D01*
G01*
X157125000Y-97437500D01*
G75*
G02*
X157062500Y-97500000I-62500J0D01*
G01*
X156937500Y-97500000D01*
G75*
G02*
X156875000Y-97437500I0J62500D01*
G01*
X156875000Y-96687500D01*
G75*
G02*
X156937500Y-96625000I62500J0D01*
G01*
G37*
G36*
G01*
X157437500Y-96625000D02*
X157562500Y-96625000D01*
G75*
G02*
X157625000Y-96687500I0J-62500D01*
G01*
X157625000Y-97437500D01*
G75*
G02*
X157562500Y-97500000I-62500J0D01*
G01*
X157437500Y-97500000D01*
G75*
G02*
X157375000Y-97437500I0J62500D01*
G01*
X157375000Y-96687500D01*
G75*
G02*
X157437500Y-96625000I62500J0D01*
G01*
G37*
G36*
G01*
X157937500Y-96625000D02*
X158062500Y-96625000D01*
G75*
G02*
X158125000Y-96687500I0J-62500D01*
G01*
X158125000Y-97437500D01*
G75*
G02*
X158062500Y-97500000I-62500J0D01*
G01*
X157937500Y-97500000D01*
G75*
G02*
X157875000Y-97437500I0J62500D01*
G01*
X157875000Y-96687500D01*
G75*
G02*
X157937500Y-96625000I62500J0D01*
G01*
G37*
G36*
G01*
X158437500Y-96625000D02*
X158562500Y-96625000D01*
G75*
G02*
X158625000Y-96687500I0J-62500D01*
G01*
X158625000Y-97437500D01*
G75*
G02*
X158562500Y-97500000I-62500J0D01*
G01*
X158437500Y-97500000D01*
G75*
G02*
X158375000Y-97437500I0J62500D01*
G01*
X158375000Y-96687500D01*
G75*
G02*
X158437500Y-96625000I62500J0D01*
G01*
G37*
G36*
G01*
X158937500Y-96625000D02*
X159062500Y-96625000D01*
G75*
G02*
X159125000Y-96687500I0J-62500D01*
G01*
X159125000Y-97437500D01*
G75*
G02*
X159062500Y-97500000I-62500J0D01*
G01*
X158937500Y-97500000D01*
G75*
G02*
X158875000Y-97437500I0J62500D01*
G01*
X158875000Y-96687500D01*
G75*
G02*
X158937500Y-96625000I62500J0D01*
G01*
G37*
G36*
G01*
X159437500Y-96625000D02*
X159562500Y-96625000D01*
G75*
G02*
X159625000Y-96687500I0J-62500D01*
G01*
X159625000Y-97437500D01*
G75*
G02*
X159562500Y-97500000I-62500J0D01*
G01*
X159437500Y-97500000D01*
G75*
G02*
X159375000Y-97437500I0J62500D01*
G01*
X159375000Y-96687500D01*
G75*
G02*
X159437500Y-96625000I62500J0D01*
G01*
G37*
G36*
G01*
X159937500Y-96625000D02*
X160062500Y-96625000D01*
G75*
G02*
X160125000Y-96687500I0J-62500D01*
G01*
X160125000Y-97437500D01*
G75*
G02*
X160062500Y-97500000I-62500J0D01*
G01*
X159937500Y-97500000D01*
G75*
G02*
X159875000Y-97437500I0J62500D01*
G01*
X159875000Y-96687500D01*
G75*
G02*
X159937500Y-96625000I62500J0D01*
G01*
G37*
G36*
G01*
X160437500Y-96625000D02*
X160562500Y-96625000D01*
G75*
G02*
X160625000Y-96687500I0J-62500D01*
G01*
X160625000Y-97437500D01*
G75*
G02*
X160562500Y-97500000I-62500J0D01*
G01*
X160437500Y-97500000D01*
G75*
G02*
X160375000Y-97437500I0J62500D01*
G01*
X160375000Y-96687500D01*
G75*
G02*
X160437500Y-96625000I62500J0D01*
G01*
G37*
G36*
G01*
X160937500Y-96625000D02*
X161062500Y-96625000D01*
G75*
G02*
X161125000Y-96687500I0J-62500D01*
G01*
X161125000Y-97437500D01*
G75*
G02*
X161062500Y-97500000I-62500J0D01*
G01*
X160937500Y-97500000D01*
G75*
G02*
X160875000Y-97437500I0J62500D01*
G01*
X160875000Y-96687500D01*
G75*
G02*
X160937500Y-96625000I62500J0D01*
G01*
G37*
G36*
G01*
X161437500Y-96625000D02*
X161562500Y-96625000D01*
G75*
G02*
X161625000Y-96687500I0J-62500D01*
G01*
X161625000Y-97437500D01*
G75*
G02*
X161562500Y-97500000I-62500J0D01*
G01*
X161437500Y-97500000D01*
G75*
G02*
X161375000Y-97437500I0J62500D01*
G01*
X161375000Y-96687500D01*
G75*
G02*
X161437500Y-96625000I62500J0D01*
G01*
G37*
G36*
G01*
X161937500Y-96625000D02*
X162062500Y-96625000D01*
G75*
G02*
X162125000Y-96687500I0J-62500D01*
G01*
X162125000Y-97437500D01*
G75*
G02*
X162062500Y-97500000I-62500J0D01*
G01*
X161937500Y-97500000D01*
G75*
G02*
X161875000Y-97437500I0J62500D01*
G01*
X161875000Y-96687500D01*
G75*
G02*
X161937500Y-96625000I62500J0D01*
G01*
G37*
G36*
G01*
X162437500Y-96625000D02*
X162562500Y-96625000D01*
G75*
G02*
X162625000Y-96687500I0J-62500D01*
G01*
X162625000Y-97437500D01*
G75*
G02*
X162562500Y-97500000I-62500J0D01*
G01*
X162437500Y-97500000D01*
G75*
G02*
X162375000Y-97437500I0J62500D01*
G01*
X162375000Y-96687500D01*
G75*
G02*
X162437500Y-96625000I62500J0D01*
G01*
G37*
%TD*%
%TO.C,U103*%
G36*
G01*
X143255000Y-113300000D02*
X143555000Y-113300000D01*
G75*
G02*
X143705000Y-113450000I0J-150000D01*
G01*
X143705000Y-114750000D01*
G75*
G02*
X143555000Y-114900000I-150000J0D01*
G01*
X143255000Y-114900000D01*
G75*
G02*
X143105000Y-114750000I0J150000D01*
G01*
X143105000Y-113450000D01*
G75*
G02*
X143255000Y-113300000I150000J0D01*
G01*
G37*
G36*
G01*
X141985000Y-113300000D02*
X142285000Y-113300000D01*
G75*
G02*
X142435000Y-113450000I0J-150000D01*
G01*
X142435000Y-114750000D01*
G75*
G02*
X142285000Y-114900000I-150000J0D01*
G01*
X141985000Y-114900000D01*
G75*
G02*
X141835000Y-114750000I0J150000D01*
G01*
X141835000Y-113450000D01*
G75*
G02*
X141985000Y-113300000I150000J0D01*
G01*
G37*
G36*
G01*
X140715000Y-113300000D02*
X141015000Y-113300000D01*
G75*
G02*
X141165000Y-113450000I0J-150000D01*
G01*
X141165000Y-114750000D01*
G75*
G02*
X141015000Y-114900000I-150000J0D01*
G01*
X140715000Y-114900000D01*
G75*
G02*
X140565000Y-114750000I0J150000D01*
G01*
X140565000Y-113450000D01*
G75*
G02*
X140715000Y-113300000I150000J0D01*
G01*
G37*
G36*
G01*
X139445000Y-113300000D02*
X139745000Y-113300000D01*
G75*
G02*
X139895000Y-113450000I0J-150000D01*
G01*
X139895000Y-114750000D01*
G75*
G02*
X139745000Y-114900000I-150000J0D01*
G01*
X139445000Y-114900000D01*
G75*
G02*
X139295000Y-114750000I0J150000D01*
G01*
X139295000Y-113450000D01*
G75*
G02*
X139445000Y-113300000I150000J0D01*
G01*
G37*
G36*
G01*
X139445000Y-106100000D02*
X139745000Y-106100000D01*
G75*
G02*
X139895000Y-106250000I0J-150000D01*
G01*
X139895000Y-107550000D01*
G75*
G02*
X139745000Y-107700000I-150000J0D01*
G01*
X139445000Y-107700000D01*
G75*
G02*
X139295000Y-107550000I0J150000D01*
G01*
X139295000Y-106250000D01*
G75*
G02*
X139445000Y-106100000I150000J0D01*
G01*
G37*
G36*
G01*
X140715000Y-106100000D02*
X141015000Y-106100000D01*
G75*
G02*
X141165000Y-106250000I0J-150000D01*
G01*
X141165000Y-107550000D01*
G75*
G02*
X141015000Y-107700000I-150000J0D01*
G01*
X140715000Y-107700000D01*
G75*
G02*
X140565000Y-107550000I0J150000D01*
G01*
X140565000Y-106250000D01*
G75*
G02*
X140715000Y-106100000I150000J0D01*
G01*
G37*
G36*
G01*
X141985000Y-106100000D02*
X142285000Y-106100000D01*
G75*
G02*
X142435000Y-106250000I0J-150000D01*
G01*
X142435000Y-107550000D01*
G75*
G02*
X142285000Y-107700000I-150000J0D01*
G01*
X141985000Y-107700000D01*
G75*
G02*
X141835000Y-107550000I0J150000D01*
G01*
X141835000Y-106250000D01*
G75*
G02*
X141985000Y-106100000I150000J0D01*
G01*
G37*
G36*
G01*
X143255000Y-106100000D02*
X143555000Y-106100000D01*
G75*
G02*
X143705000Y-106250000I0J-150000D01*
G01*
X143705000Y-107550000D01*
G75*
G02*
X143555000Y-107700000I-150000J0D01*
G01*
X143255000Y-107700000D01*
G75*
G02*
X143105000Y-107550000I0J150000D01*
G01*
X143105000Y-106250000D01*
G75*
G02*
X143255000Y-106100000I150000J0D01*
G01*
G37*
%TD*%
D28*
%TO.C,U102*%
X142600000Y-139800000D03*
X143900000Y-139800000D03*
X143250000Y-141700000D03*
X143250000Y-139800000D03*
X143900000Y-141700000D03*
X142600000Y-141700000D03*
%TD*%
%TO.C,U101*%
X121350000Y-139800000D03*
X122650000Y-139800000D03*
X122000000Y-141700000D03*
X122000000Y-139800000D03*
X122650000Y-141700000D03*
X121350000Y-141700000D03*
%TD*%
D10*
%TO.C,TP401*%
X192500000Y-115750000D03*
%TD*%
%TO.C,TP306*%
X170750000Y-70500000D03*
%TD*%
%TO.C,TP305*%
X150750000Y-79750000D03*
%TD*%
%TO.C,TP304*%
X154000000Y-77000000D03*
%TD*%
%TO.C,TP303*%
X157750000Y-74750000D03*
%TD*%
%TO.C,TP302*%
X154250000Y-72000000D03*
%TD*%
%TO.C,TP301*%
X150750000Y-90750000D03*
%TD*%
%TO.C,TP203*%
X134000000Y-122500000D03*
%TD*%
%TO.C,TP202*%
X124000000Y-90000000D03*
%TD*%
%TO.C,TP201*%
X131250000Y-110750000D03*
%TD*%
%TO.C,TP104*%
X158000000Y-112000000D03*
%TD*%
%TO.C,TP103*%
X149750000Y-114750000D03*
%TD*%
%TO.C,TP102*%
X186750000Y-95750000D03*
%TD*%
%TO.C,TP101*%
X159750000Y-85750000D03*
%TD*%
D29*
%TO.C,SW501*%
X184000000Y-146620000D03*
X166220000Y-139000000D03*
X181460000Y-146620000D03*
X168760000Y-139000000D03*
X178920000Y-146620000D03*
X171300000Y-139000000D03*
X176380000Y-146620000D03*
X173840000Y-139000000D03*
X173840000Y-146620000D03*
X176380000Y-139000000D03*
X171300000Y-146620000D03*
X178920000Y-139000000D03*
X168760000Y-146620000D03*
X181460000Y-139000000D03*
X166220000Y-146620000D03*
D30*
X184000000Y-139000000D03*
%TD*%
D29*
%TO.C,SW101*%
X196870000Y-63750000D03*
X189250000Y-81530000D03*
X196870000Y-66290000D03*
X189250000Y-78990000D03*
X196870000Y-68830000D03*
X189250000Y-76450000D03*
X196870000Y-71370000D03*
X189250000Y-73910000D03*
X196870000Y-73910000D03*
X189250000Y-71370000D03*
X196870000Y-76450000D03*
X189250000Y-68830000D03*
X196870000Y-78990000D03*
X189250000Y-66290000D03*
X196870000Y-81530000D03*
D30*
X189250000Y-63750000D03*
%TD*%
%TO.C,R516*%
G36*
G01*
X185825000Y-128350000D02*
X188675000Y-128350000D01*
G75*
G02*
X188925000Y-128600000I0J-250000D01*
G01*
X188925000Y-129325000D01*
G75*
G02*
X188675000Y-129575000I-250000J0D01*
G01*
X185825000Y-129575000D01*
G75*
G02*
X185575000Y-129325000I0J250000D01*
G01*
X185575000Y-128600000D01*
G75*
G02*
X185825000Y-128350000I250000J0D01*
G01*
G37*
G36*
G01*
X185825000Y-122425000D02*
X188675000Y-122425000D01*
G75*
G02*
X188925000Y-122675000I0J-250000D01*
G01*
X188925000Y-123400000D01*
G75*
G02*
X188675000Y-123650000I-250000J0D01*
G01*
X185825000Y-123650000D01*
G75*
G02*
X185575000Y-123400000I0J250000D01*
G01*
X185575000Y-122675000D01*
G75*
G02*
X185825000Y-122425000I250000J0D01*
G01*
G37*
%TD*%
%TO.C,R515*%
G36*
G01*
X187675000Y-135275000D02*
X187675000Y-134725000D01*
G75*
G02*
X187875000Y-134525000I200000J0D01*
G01*
X188275000Y-134525000D01*
G75*
G02*
X188475000Y-134725000I0J-200000D01*
G01*
X188475000Y-135275000D01*
G75*
G02*
X188275000Y-135475000I-200000J0D01*
G01*
X187875000Y-135475000D01*
G75*
G02*
X187675000Y-135275000I0J200000D01*
G01*
G37*
G36*
G01*
X186025000Y-135275000D02*
X186025000Y-134725000D01*
G75*
G02*
X186225000Y-134525000I200000J0D01*
G01*
X186625000Y-134525000D01*
G75*
G02*
X186825000Y-134725000I0J-200000D01*
G01*
X186825000Y-135275000D01*
G75*
G02*
X186625000Y-135475000I-200000J0D01*
G01*
X186225000Y-135475000D01*
G75*
G02*
X186025000Y-135275000I0J200000D01*
G01*
G37*
%TD*%
%TO.C,R514*%
G36*
G01*
X184425000Y-133775000D02*
X184425000Y-133225000D01*
G75*
G02*
X184625000Y-133025000I200000J0D01*
G01*
X185025000Y-133025000D01*
G75*
G02*
X185225000Y-133225000I0J-200000D01*
G01*
X185225000Y-133775000D01*
G75*
G02*
X185025000Y-133975000I-200000J0D01*
G01*
X184625000Y-133975000D01*
G75*
G02*
X184425000Y-133775000I0J200000D01*
G01*
G37*
G36*
G01*
X182775000Y-133775000D02*
X182775000Y-133225000D01*
G75*
G02*
X182975000Y-133025000I200000J0D01*
G01*
X183375000Y-133025000D01*
G75*
G02*
X183575000Y-133225000I0J-200000D01*
G01*
X183575000Y-133775000D01*
G75*
G02*
X183375000Y-133975000I-200000J0D01*
G01*
X182975000Y-133975000D01*
G75*
G02*
X182775000Y-133775000I0J200000D01*
G01*
G37*
%TD*%
%TO.C,R513*%
G36*
G01*
X184425000Y-135275000D02*
X184425000Y-134725000D01*
G75*
G02*
X184625000Y-134525000I200000J0D01*
G01*
X185025000Y-134525000D01*
G75*
G02*
X185225000Y-134725000I0J-200000D01*
G01*
X185225000Y-135275000D01*
G75*
G02*
X185025000Y-135475000I-200000J0D01*
G01*
X184625000Y-135475000D01*
G75*
G02*
X184425000Y-135275000I0J200000D01*
G01*
G37*
G36*
G01*
X182775000Y-135275000D02*
X182775000Y-134725000D01*
G75*
G02*
X182975000Y-134525000I200000J0D01*
G01*
X183375000Y-134525000D01*
G75*
G02*
X183575000Y-134725000I0J-200000D01*
G01*
X183575000Y-135275000D01*
G75*
G02*
X183375000Y-135475000I-200000J0D01*
G01*
X182975000Y-135475000D01*
G75*
G02*
X182775000Y-135275000I0J200000D01*
G01*
G37*
%TD*%
%TO.C,R512*%
G36*
G01*
X178575000Y-128350000D02*
X181425000Y-128350000D01*
G75*
G02*
X181675000Y-128600000I0J-250000D01*
G01*
X181675000Y-129325000D01*
G75*
G02*
X181425000Y-129575000I-250000J0D01*
G01*
X178575000Y-129575000D01*
G75*
G02*
X178325000Y-129325000I0J250000D01*
G01*
X178325000Y-128600000D01*
G75*
G02*
X178575000Y-128350000I250000J0D01*
G01*
G37*
G36*
G01*
X178575000Y-122425000D02*
X181425000Y-122425000D01*
G75*
G02*
X181675000Y-122675000I0J-250000D01*
G01*
X181675000Y-123400000D01*
G75*
G02*
X181425000Y-123650000I-250000J0D01*
G01*
X178575000Y-123650000D01*
G75*
G02*
X178325000Y-123400000I0J250000D01*
G01*
X178325000Y-122675000D01*
G75*
G02*
X178575000Y-122425000I250000J0D01*
G01*
G37*
%TD*%
%TO.C,R511*%
G36*
G01*
X180425000Y-135275000D02*
X180425000Y-134725000D01*
G75*
G02*
X180625000Y-134525000I200000J0D01*
G01*
X181025000Y-134525000D01*
G75*
G02*
X181225000Y-134725000I0J-200000D01*
G01*
X181225000Y-135275000D01*
G75*
G02*
X181025000Y-135475000I-200000J0D01*
G01*
X180625000Y-135475000D01*
G75*
G02*
X180425000Y-135275000I0J200000D01*
G01*
G37*
G36*
G01*
X178775000Y-135275000D02*
X178775000Y-134725000D01*
G75*
G02*
X178975000Y-134525000I200000J0D01*
G01*
X179375000Y-134525000D01*
G75*
G02*
X179575000Y-134725000I0J-200000D01*
G01*
X179575000Y-135275000D01*
G75*
G02*
X179375000Y-135475000I-200000J0D01*
G01*
X178975000Y-135475000D01*
G75*
G02*
X178775000Y-135275000I0J200000D01*
G01*
G37*
%TD*%
%TO.C,R510*%
G36*
G01*
X177175000Y-133775000D02*
X177175000Y-133225000D01*
G75*
G02*
X177375000Y-133025000I200000J0D01*
G01*
X177775000Y-133025000D01*
G75*
G02*
X177975000Y-133225000I0J-200000D01*
G01*
X177975000Y-133775000D01*
G75*
G02*
X177775000Y-133975000I-200000J0D01*
G01*
X177375000Y-133975000D01*
G75*
G02*
X177175000Y-133775000I0J200000D01*
G01*
G37*
G36*
G01*
X175525000Y-133775000D02*
X175525000Y-133225000D01*
G75*
G02*
X175725000Y-133025000I200000J0D01*
G01*
X176125000Y-133025000D01*
G75*
G02*
X176325000Y-133225000I0J-200000D01*
G01*
X176325000Y-133775000D01*
G75*
G02*
X176125000Y-133975000I-200000J0D01*
G01*
X175725000Y-133975000D01*
G75*
G02*
X175525000Y-133775000I0J200000D01*
G01*
G37*
%TD*%
%TO.C,R509*%
G36*
G01*
X177175000Y-135275000D02*
X177175000Y-134725000D01*
G75*
G02*
X177375000Y-134525000I200000J0D01*
G01*
X177775000Y-134525000D01*
G75*
G02*
X177975000Y-134725000I0J-200000D01*
G01*
X177975000Y-135275000D01*
G75*
G02*
X177775000Y-135475000I-200000J0D01*
G01*
X177375000Y-135475000D01*
G75*
G02*
X177175000Y-135275000I0J200000D01*
G01*
G37*
G36*
G01*
X175525000Y-135275000D02*
X175525000Y-134725000D01*
G75*
G02*
X175725000Y-134525000I200000J0D01*
G01*
X176125000Y-134525000D01*
G75*
G02*
X176325000Y-134725000I0J-200000D01*
G01*
X176325000Y-135275000D01*
G75*
G02*
X176125000Y-135475000I-200000J0D01*
G01*
X175725000Y-135475000D01*
G75*
G02*
X175525000Y-135275000I0J200000D01*
G01*
G37*
%TD*%
%TO.C,R508*%
G36*
G01*
X171325000Y-128350000D02*
X174175000Y-128350000D01*
G75*
G02*
X174425000Y-128600000I0J-250000D01*
G01*
X174425000Y-129325000D01*
G75*
G02*
X174175000Y-129575000I-250000J0D01*
G01*
X171325000Y-129575000D01*
G75*
G02*
X171075000Y-129325000I0J250000D01*
G01*
X171075000Y-128600000D01*
G75*
G02*
X171325000Y-128350000I250000J0D01*
G01*
G37*
G36*
G01*
X171325000Y-122425000D02*
X174175000Y-122425000D01*
G75*
G02*
X174425000Y-122675000I0J-250000D01*
G01*
X174425000Y-123400000D01*
G75*
G02*
X174175000Y-123650000I-250000J0D01*
G01*
X171325000Y-123650000D01*
G75*
G02*
X171075000Y-123400000I0J250000D01*
G01*
X171075000Y-122675000D01*
G75*
G02*
X171325000Y-122425000I250000J0D01*
G01*
G37*
%TD*%
%TO.C,R507*%
G36*
G01*
X173175000Y-135275000D02*
X173175000Y-134725000D01*
G75*
G02*
X173375000Y-134525000I200000J0D01*
G01*
X173775000Y-134525000D01*
G75*
G02*
X173975000Y-134725000I0J-200000D01*
G01*
X173975000Y-135275000D01*
G75*
G02*
X173775000Y-135475000I-200000J0D01*
G01*
X173375000Y-135475000D01*
G75*
G02*
X173175000Y-135275000I0J200000D01*
G01*
G37*
G36*
G01*
X171525000Y-135275000D02*
X171525000Y-134725000D01*
G75*
G02*
X171725000Y-134525000I200000J0D01*
G01*
X172125000Y-134525000D01*
G75*
G02*
X172325000Y-134725000I0J-200000D01*
G01*
X172325000Y-135275000D01*
G75*
G02*
X172125000Y-135475000I-200000J0D01*
G01*
X171725000Y-135475000D01*
G75*
G02*
X171525000Y-135275000I0J200000D01*
G01*
G37*
%TD*%
%TO.C,R506*%
G36*
G01*
X169925000Y-133775000D02*
X169925000Y-133225000D01*
G75*
G02*
X170125000Y-133025000I200000J0D01*
G01*
X170525000Y-133025000D01*
G75*
G02*
X170725000Y-133225000I0J-200000D01*
G01*
X170725000Y-133775000D01*
G75*
G02*
X170525000Y-133975000I-200000J0D01*
G01*
X170125000Y-133975000D01*
G75*
G02*
X169925000Y-133775000I0J200000D01*
G01*
G37*
G36*
G01*
X168275000Y-133775000D02*
X168275000Y-133225000D01*
G75*
G02*
X168475000Y-133025000I200000J0D01*
G01*
X168875000Y-133025000D01*
G75*
G02*
X169075000Y-133225000I0J-200000D01*
G01*
X169075000Y-133775000D01*
G75*
G02*
X168875000Y-133975000I-200000J0D01*
G01*
X168475000Y-133975000D01*
G75*
G02*
X168275000Y-133775000I0J200000D01*
G01*
G37*
%TD*%
%TO.C,R505*%
G36*
G01*
X169925000Y-135275000D02*
X169925000Y-134725000D01*
G75*
G02*
X170125000Y-134525000I200000J0D01*
G01*
X170525000Y-134525000D01*
G75*
G02*
X170725000Y-134725000I0J-200000D01*
G01*
X170725000Y-135275000D01*
G75*
G02*
X170525000Y-135475000I-200000J0D01*
G01*
X170125000Y-135475000D01*
G75*
G02*
X169925000Y-135275000I0J200000D01*
G01*
G37*
G36*
G01*
X168275000Y-135275000D02*
X168275000Y-134725000D01*
G75*
G02*
X168475000Y-134525000I200000J0D01*
G01*
X168875000Y-134525000D01*
G75*
G02*
X169075000Y-134725000I0J-200000D01*
G01*
X169075000Y-135275000D01*
G75*
G02*
X168875000Y-135475000I-200000J0D01*
G01*
X168475000Y-135475000D01*
G75*
G02*
X168275000Y-135275000I0J200000D01*
G01*
G37*
%TD*%
%TO.C,R504*%
G36*
G01*
X164075000Y-128350000D02*
X166925000Y-128350000D01*
G75*
G02*
X167175000Y-128600000I0J-250000D01*
G01*
X167175000Y-129325000D01*
G75*
G02*
X166925000Y-129575000I-250000J0D01*
G01*
X164075000Y-129575000D01*
G75*
G02*
X163825000Y-129325000I0J250000D01*
G01*
X163825000Y-128600000D01*
G75*
G02*
X164075000Y-128350000I250000J0D01*
G01*
G37*
G36*
G01*
X164075000Y-122425000D02*
X166925000Y-122425000D01*
G75*
G02*
X167175000Y-122675000I0J-250000D01*
G01*
X167175000Y-123400000D01*
G75*
G02*
X166925000Y-123650000I-250000J0D01*
G01*
X164075000Y-123650000D01*
G75*
G02*
X163825000Y-123400000I0J250000D01*
G01*
X163825000Y-122675000D01*
G75*
G02*
X164075000Y-122425000I250000J0D01*
G01*
G37*
%TD*%
%TO.C,R503*%
G36*
G01*
X165925000Y-135275000D02*
X165925000Y-134725000D01*
G75*
G02*
X166125000Y-134525000I200000J0D01*
G01*
X166525000Y-134525000D01*
G75*
G02*
X166725000Y-134725000I0J-200000D01*
G01*
X166725000Y-135275000D01*
G75*
G02*
X166525000Y-135475000I-200000J0D01*
G01*
X166125000Y-135475000D01*
G75*
G02*
X165925000Y-135275000I0J200000D01*
G01*
G37*
G36*
G01*
X164275000Y-135275000D02*
X164275000Y-134725000D01*
G75*
G02*
X164475000Y-134525000I200000J0D01*
G01*
X164875000Y-134525000D01*
G75*
G02*
X165075000Y-134725000I0J-200000D01*
G01*
X165075000Y-135275000D01*
G75*
G02*
X164875000Y-135475000I-200000J0D01*
G01*
X164475000Y-135475000D01*
G75*
G02*
X164275000Y-135275000I0J200000D01*
G01*
G37*
%TD*%
%TO.C,R502*%
G36*
G01*
X162675000Y-133775000D02*
X162675000Y-133225000D01*
G75*
G02*
X162875000Y-133025000I200000J0D01*
G01*
X163275000Y-133025000D01*
G75*
G02*
X163475000Y-133225000I0J-200000D01*
G01*
X163475000Y-133775000D01*
G75*
G02*
X163275000Y-133975000I-200000J0D01*
G01*
X162875000Y-133975000D01*
G75*
G02*
X162675000Y-133775000I0J200000D01*
G01*
G37*
G36*
G01*
X161025000Y-133775000D02*
X161025000Y-133225000D01*
G75*
G02*
X161225000Y-133025000I200000J0D01*
G01*
X161625000Y-133025000D01*
G75*
G02*
X161825000Y-133225000I0J-200000D01*
G01*
X161825000Y-133775000D01*
G75*
G02*
X161625000Y-133975000I-200000J0D01*
G01*
X161225000Y-133975000D01*
G75*
G02*
X161025000Y-133775000I0J200000D01*
G01*
G37*
%TD*%
%TO.C,R501*%
G36*
G01*
X162675000Y-135275000D02*
X162675000Y-134725000D01*
G75*
G02*
X162875000Y-134525000I200000J0D01*
G01*
X163275000Y-134525000D01*
G75*
G02*
X163475000Y-134725000I0J-200000D01*
G01*
X163475000Y-135275000D01*
G75*
G02*
X163275000Y-135475000I-200000J0D01*
G01*
X162875000Y-135475000D01*
G75*
G02*
X162675000Y-135275000I0J200000D01*
G01*
G37*
G36*
G01*
X161025000Y-135275000D02*
X161025000Y-134725000D01*
G75*
G02*
X161225000Y-134525000I200000J0D01*
G01*
X161625000Y-134525000D01*
G75*
G02*
X161825000Y-134725000I0J-200000D01*
G01*
X161825000Y-135275000D01*
G75*
G02*
X161625000Y-135475000I-200000J0D01*
G01*
X161225000Y-135475000D01*
G75*
G02*
X161025000Y-135275000I0J200000D01*
G01*
G37*
%TD*%
%TO.C,R404*%
G36*
G01*
X165175000Y-89025000D02*
X165175000Y-88475000D01*
G75*
G02*
X165375000Y-88275000I200000J0D01*
G01*
X165775000Y-88275000D01*
G75*
G02*
X165975000Y-88475000I0J-200000D01*
G01*
X165975000Y-89025000D01*
G75*
G02*
X165775000Y-89225000I-200000J0D01*
G01*
X165375000Y-89225000D01*
G75*
G02*
X165175000Y-89025000I0J200000D01*
G01*
G37*
G36*
G01*
X163525000Y-89025000D02*
X163525000Y-88475000D01*
G75*
G02*
X163725000Y-88275000I200000J0D01*
G01*
X164125000Y-88275000D01*
G75*
G02*
X164325000Y-88475000I0J-200000D01*
G01*
X164325000Y-89025000D01*
G75*
G02*
X164125000Y-89225000I-200000J0D01*
G01*
X163725000Y-89225000D01*
G75*
G02*
X163525000Y-89025000I0J200000D01*
G01*
G37*
%TD*%
%TO.C,R403*%
G36*
G01*
X168175000Y-90525000D02*
X168175000Y-89975000D01*
G75*
G02*
X168375000Y-89775000I200000J0D01*
G01*
X168775000Y-89775000D01*
G75*
G02*
X168975000Y-89975000I0J-200000D01*
G01*
X168975000Y-90525000D01*
G75*
G02*
X168775000Y-90725000I-200000J0D01*
G01*
X168375000Y-90725000D01*
G75*
G02*
X168175000Y-90525000I0J200000D01*
G01*
G37*
G36*
G01*
X166525000Y-90525000D02*
X166525000Y-89975000D01*
G75*
G02*
X166725000Y-89775000I200000J0D01*
G01*
X167125000Y-89775000D01*
G75*
G02*
X167325000Y-89975000I0J-200000D01*
G01*
X167325000Y-90525000D01*
G75*
G02*
X167125000Y-90725000I-200000J0D01*
G01*
X166725000Y-90725000D01*
G75*
G02*
X166525000Y-90525000I0J200000D01*
G01*
G37*
%TD*%
%TO.C,R402*%
G36*
G01*
X166675000Y-80525000D02*
X166675000Y-79975000D01*
G75*
G02*
X166875000Y-79775000I200000J0D01*
G01*
X167275000Y-79775000D01*
G75*
G02*
X167475000Y-79975000I0J-200000D01*
G01*
X167475000Y-80525000D01*
G75*
G02*
X167275000Y-80725000I-200000J0D01*
G01*
X166875000Y-80725000D01*
G75*
G02*
X166675000Y-80525000I0J200000D01*
G01*
G37*
G36*
G01*
X165025000Y-80525000D02*
X165025000Y-79975000D01*
G75*
G02*
X165225000Y-79775000I200000J0D01*
G01*
X165625000Y-79775000D01*
G75*
G02*
X165825000Y-79975000I0J-200000D01*
G01*
X165825000Y-80525000D01*
G75*
G02*
X165625000Y-80725000I-200000J0D01*
G01*
X165225000Y-80725000D01*
G75*
G02*
X165025000Y-80525000I0J200000D01*
G01*
G37*
%TD*%
%TO.C,R401*%
G36*
G01*
X163675000Y-82025000D02*
X163675000Y-81475000D01*
G75*
G02*
X163875000Y-81275000I200000J0D01*
G01*
X164275000Y-81275000D01*
G75*
G02*
X164475000Y-81475000I0J-200000D01*
G01*
X164475000Y-82025000D01*
G75*
G02*
X164275000Y-82225000I-200000J0D01*
G01*
X163875000Y-82225000D01*
G75*
G02*
X163675000Y-82025000I0J200000D01*
G01*
G37*
G36*
G01*
X162025000Y-82025000D02*
X162025000Y-81475000D01*
G75*
G02*
X162225000Y-81275000I200000J0D01*
G01*
X162625000Y-81275000D01*
G75*
G02*
X162825000Y-81475000I0J-200000D01*
G01*
X162825000Y-82025000D01*
G75*
G02*
X162625000Y-82225000I-200000J0D01*
G01*
X162225000Y-82225000D01*
G75*
G02*
X162025000Y-82025000I0J200000D01*
G01*
G37*
%TD*%
%TO.C,R311*%
G36*
G01*
X143975000Y-83425000D02*
X144525000Y-83425000D01*
G75*
G02*
X144725000Y-83625000I0J-200000D01*
G01*
X144725000Y-84025000D01*
G75*
G02*
X144525000Y-84225000I-200000J0D01*
G01*
X143975000Y-84225000D01*
G75*
G02*
X143775000Y-84025000I0J200000D01*
G01*
X143775000Y-83625000D01*
G75*
G02*
X143975000Y-83425000I200000J0D01*
G01*
G37*
G36*
G01*
X143975000Y-81775000D02*
X144525000Y-81775000D01*
G75*
G02*
X144725000Y-81975000I0J-200000D01*
G01*
X144725000Y-82375000D01*
G75*
G02*
X144525000Y-82575000I-200000J0D01*
G01*
X143975000Y-82575000D01*
G75*
G02*
X143775000Y-82375000I0J200000D01*
G01*
X143775000Y-81975000D01*
G75*
G02*
X143975000Y-81775000I200000J0D01*
G01*
G37*
%TD*%
%TO.C,R310*%
G36*
G01*
X145475000Y-83425000D02*
X146025000Y-83425000D01*
G75*
G02*
X146225000Y-83625000I0J-200000D01*
G01*
X146225000Y-84025000D01*
G75*
G02*
X146025000Y-84225000I-200000J0D01*
G01*
X145475000Y-84225000D01*
G75*
G02*
X145275000Y-84025000I0J200000D01*
G01*
X145275000Y-83625000D01*
G75*
G02*
X145475000Y-83425000I200000J0D01*
G01*
G37*
G36*
G01*
X145475000Y-81775000D02*
X146025000Y-81775000D01*
G75*
G02*
X146225000Y-81975000I0J-200000D01*
G01*
X146225000Y-82375000D01*
G75*
G02*
X146025000Y-82575000I-200000J0D01*
G01*
X145475000Y-82575000D01*
G75*
G02*
X145275000Y-82375000I0J200000D01*
G01*
X145275000Y-81975000D01*
G75*
G02*
X145475000Y-81775000I200000J0D01*
G01*
G37*
%TD*%
%TO.C,R309*%
G36*
G01*
X149575000Y-76225000D02*
X149575000Y-76775000D01*
G75*
G02*
X149375000Y-76975000I-200000J0D01*
G01*
X148975000Y-76975000D01*
G75*
G02*
X148775000Y-76775000I0J200000D01*
G01*
X148775000Y-76225000D01*
G75*
G02*
X148975000Y-76025000I200000J0D01*
G01*
X149375000Y-76025000D01*
G75*
G02*
X149575000Y-76225000I0J-200000D01*
G01*
G37*
G36*
G01*
X151225000Y-76225000D02*
X151225000Y-76775000D01*
G75*
G02*
X151025000Y-76975000I-200000J0D01*
G01*
X150625000Y-76975000D01*
G75*
G02*
X150425000Y-76775000I0J200000D01*
G01*
X150425000Y-76225000D01*
G75*
G02*
X150625000Y-76025000I200000J0D01*
G01*
X151025000Y-76025000D01*
G75*
G02*
X151225000Y-76225000I0J-200000D01*
G01*
G37*
%TD*%
%TO.C,R308*%
G36*
G01*
X149575000Y-74475000D02*
X149575000Y-75025000D01*
G75*
G02*
X149375000Y-75225000I-200000J0D01*
G01*
X148975000Y-75225000D01*
G75*
G02*
X148775000Y-75025000I0J200000D01*
G01*
X148775000Y-74475000D01*
G75*
G02*
X148975000Y-74275000I200000J0D01*
G01*
X149375000Y-74275000D01*
G75*
G02*
X149575000Y-74475000I0J-200000D01*
G01*
G37*
G36*
G01*
X151225000Y-74475000D02*
X151225000Y-75025000D01*
G75*
G02*
X151025000Y-75225000I-200000J0D01*
G01*
X150625000Y-75225000D01*
G75*
G02*
X150425000Y-75025000I0J200000D01*
G01*
X150425000Y-74475000D01*
G75*
G02*
X150625000Y-74275000I200000J0D01*
G01*
X151025000Y-74275000D01*
G75*
G02*
X151225000Y-74475000I0J-200000D01*
G01*
G37*
%TD*%
%TO.C,R307*%
G36*
G01*
X149575000Y-72725000D02*
X149575000Y-73275000D01*
G75*
G02*
X149375000Y-73475000I-200000J0D01*
G01*
X148975000Y-73475000D01*
G75*
G02*
X148775000Y-73275000I0J200000D01*
G01*
X148775000Y-72725000D01*
G75*
G02*
X148975000Y-72525000I200000J0D01*
G01*
X149375000Y-72525000D01*
G75*
G02*
X149575000Y-72725000I0J-200000D01*
G01*
G37*
G36*
G01*
X151225000Y-72725000D02*
X151225000Y-73275000D01*
G75*
G02*
X151025000Y-73475000I-200000J0D01*
G01*
X150625000Y-73475000D01*
G75*
G02*
X150425000Y-73275000I0J200000D01*
G01*
X150425000Y-72725000D01*
G75*
G02*
X150625000Y-72525000I200000J0D01*
G01*
X151025000Y-72525000D01*
G75*
G02*
X151225000Y-72725000I0J-200000D01*
G01*
G37*
%TD*%
%TO.C,R306*%
G36*
G01*
X149575000Y-70975000D02*
X149575000Y-71525000D01*
G75*
G02*
X149375000Y-71725000I-200000J0D01*
G01*
X148975000Y-71725000D01*
G75*
G02*
X148775000Y-71525000I0J200000D01*
G01*
X148775000Y-70975000D01*
G75*
G02*
X148975000Y-70775000I200000J0D01*
G01*
X149375000Y-70775000D01*
G75*
G02*
X149575000Y-70975000I0J-200000D01*
G01*
G37*
G36*
G01*
X151225000Y-70975000D02*
X151225000Y-71525000D01*
G75*
G02*
X151025000Y-71725000I-200000J0D01*
G01*
X150625000Y-71725000D01*
G75*
G02*
X150425000Y-71525000I0J200000D01*
G01*
X150425000Y-70975000D01*
G75*
G02*
X150625000Y-70775000I200000J0D01*
G01*
X151025000Y-70775000D01*
G75*
G02*
X151225000Y-70975000I0J-200000D01*
G01*
G37*
%TD*%
%TO.C,R305*%
G36*
G01*
X146975000Y-83425000D02*
X147525000Y-83425000D01*
G75*
G02*
X147725000Y-83625000I0J-200000D01*
G01*
X147725000Y-84025000D01*
G75*
G02*
X147525000Y-84225000I-200000J0D01*
G01*
X146975000Y-84225000D01*
G75*
G02*
X146775000Y-84025000I0J200000D01*
G01*
X146775000Y-83625000D01*
G75*
G02*
X146975000Y-83425000I200000J0D01*
G01*
G37*
G36*
G01*
X146975000Y-81775000D02*
X147525000Y-81775000D01*
G75*
G02*
X147725000Y-81975000I0J-200000D01*
G01*
X147725000Y-82375000D01*
G75*
G02*
X147525000Y-82575000I-200000J0D01*
G01*
X146975000Y-82575000D01*
G75*
G02*
X146775000Y-82375000I0J200000D01*
G01*
X146775000Y-81975000D01*
G75*
G02*
X146975000Y-81775000I200000J0D01*
G01*
G37*
%TD*%
%TO.C,R304*%
G36*
G01*
X150825000Y-87475000D02*
X150825000Y-88025000D01*
G75*
G02*
X150625000Y-88225000I-200000J0D01*
G01*
X150225000Y-88225000D01*
G75*
G02*
X150025000Y-88025000I0J200000D01*
G01*
X150025000Y-87475000D01*
G75*
G02*
X150225000Y-87275000I200000J0D01*
G01*
X150625000Y-87275000D01*
G75*
G02*
X150825000Y-87475000I0J-200000D01*
G01*
G37*
G36*
G01*
X152475000Y-87475000D02*
X152475000Y-88025000D01*
G75*
G02*
X152275000Y-88225000I-200000J0D01*
G01*
X151875000Y-88225000D01*
G75*
G02*
X151675000Y-88025000I0J200000D01*
G01*
X151675000Y-87475000D01*
G75*
G02*
X151875000Y-87275000I200000J0D01*
G01*
X152275000Y-87275000D01*
G75*
G02*
X152475000Y-87475000I0J-200000D01*
G01*
G37*
%TD*%
%TO.C,R303*%
G36*
G01*
X148475000Y-83425000D02*
X149025000Y-83425000D01*
G75*
G02*
X149225000Y-83625000I0J-200000D01*
G01*
X149225000Y-84025000D01*
G75*
G02*
X149025000Y-84225000I-200000J0D01*
G01*
X148475000Y-84225000D01*
G75*
G02*
X148275000Y-84025000I0J200000D01*
G01*
X148275000Y-83625000D01*
G75*
G02*
X148475000Y-83425000I200000J0D01*
G01*
G37*
G36*
G01*
X148475000Y-81775000D02*
X149025000Y-81775000D01*
G75*
G02*
X149225000Y-81975000I0J-200000D01*
G01*
X149225000Y-82375000D01*
G75*
G02*
X149025000Y-82575000I-200000J0D01*
G01*
X148475000Y-82575000D01*
G75*
G02*
X148275000Y-82375000I0J200000D01*
G01*
X148275000Y-81975000D01*
G75*
G02*
X148475000Y-81775000I200000J0D01*
G01*
G37*
%TD*%
%TO.C,R302*%
G36*
G01*
X146475000Y-87425000D02*
X147025000Y-87425000D01*
G75*
G02*
X147225000Y-87625000I0J-200000D01*
G01*
X147225000Y-88025000D01*
G75*
G02*
X147025000Y-88225000I-200000J0D01*
G01*
X146475000Y-88225000D01*
G75*
G02*
X146275000Y-88025000I0J200000D01*
G01*
X146275000Y-87625000D01*
G75*
G02*
X146475000Y-87425000I200000J0D01*
G01*
G37*
G36*
G01*
X146475000Y-85775000D02*
X147025000Y-85775000D01*
G75*
G02*
X147225000Y-85975000I0J-200000D01*
G01*
X147225000Y-86375000D01*
G75*
G02*
X147025000Y-86575000I-200000J0D01*
G01*
X146475000Y-86575000D01*
G75*
G02*
X146275000Y-86375000I0J200000D01*
G01*
X146275000Y-85975000D01*
G75*
G02*
X146475000Y-85775000I200000J0D01*
G01*
G37*
%TD*%
%TO.C,R301*%
G36*
G01*
X144725000Y-87425000D02*
X145275000Y-87425000D01*
G75*
G02*
X145475000Y-87625000I0J-200000D01*
G01*
X145475000Y-88025000D01*
G75*
G02*
X145275000Y-88225000I-200000J0D01*
G01*
X144725000Y-88225000D01*
G75*
G02*
X144525000Y-88025000I0J200000D01*
G01*
X144525000Y-87625000D01*
G75*
G02*
X144725000Y-87425000I200000J0D01*
G01*
G37*
G36*
G01*
X144725000Y-85775000D02*
X145275000Y-85775000D01*
G75*
G02*
X145475000Y-85975000I0J-200000D01*
G01*
X145475000Y-86375000D01*
G75*
G02*
X145275000Y-86575000I-200000J0D01*
G01*
X144725000Y-86575000D01*
G75*
G02*
X144525000Y-86375000I0J200000D01*
G01*
X144525000Y-85975000D01*
G75*
G02*
X144725000Y-85775000I200000J0D01*
G01*
G37*
%TD*%
%TO.C,R204*%
G36*
G01*
X130575000Y-124725000D02*
X130575000Y-125275000D01*
G75*
G02*
X130375000Y-125475000I-200000J0D01*
G01*
X129975000Y-125475000D01*
G75*
G02*
X129775000Y-125275000I0J200000D01*
G01*
X129775000Y-124725000D01*
G75*
G02*
X129975000Y-124525000I200000J0D01*
G01*
X130375000Y-124525000D01*
G75*
G02*
X130575000Y-124725000I0J-200000D01*
G01*
G37*
G36*
G01*
X132225000Y-124725000D02*
X132225000Y-125275000D01*
G75*
G02*
X132025000Y-125475000I-200000J0D01*
G01*
X131625000Y-125475000D01*
G75*
G02*
X131425000Y-125275000I0J200000D01*
G01*
X131425000Y-124725000D01*
G75*
G02*
X131625000Y-124525000I200000J0D01*
G01*
X132025000Y-124525000D01*
G75*
G02*
X132225000Y-124725000I0J-200000D01*
G01*
G37*
%TD*%
%TO.C,R203*%
G36*
G01*
X113575000Y-69225000D02*
X113575000Y-69775000D01*
G75*
G02*
X113375000Y-69975000I-200000J0D01*
G01*
X112975000Y-69975000D01*
G75*
G02*
X112775000Y-69775000I0J200000D01*
G01*
X112775000Y-69225000D01*
G75*
G02*
X112975000Y-69025000I200000J0D01*
G01*
X113375000Y-69025000D01*
G75*
G02*
X113575000Y-69225000I0J-200000D01*
G01*
G37*
G36*
G01*
X115225000Y-69225000D02*
X115225000Y-69775000D01*
G75*
G02*
X115025000Y-69975000I-200000J0D01*
G01*
X114625000Y-69975000D01*
G75*
G02*
X114425000Y-69775000I0J200000D01*
G01*
X114425000Y-69225000D01*
G75*
G02*
X114625000Y-69025000I200000J0D01*
G01*
X115025000Y-69025000D01*
G75*
G02*
X115225000Y-69225000I0J-200000D01*
G01*
G37*
%TD*%
%TO.C,R202*%
G36*
G01*
X122825000Y-93475000D02*
X122825000Y-94025000D01*
G75*
G02*
X122625000Y-94225000I-200000J0D01*
G01*
X122225000Y-94225000D01*
G75*
G02*
X122025000Y-94025000I0J200000D01*
G01*
X122025000Y-93475000D01*
G75*
G02*
X122225000Y-93275000I200000J0D01*
G01*
X122625000Y-93275000D01*
G75*
G02*
X122825000Y-93475000I0J-200000D01*
G01*
G37*
G36*
G01*
X124475000Y-93475000D02*
X124475000Y-94025000D01*
G75*
G02*
X124275000Y-94225000I-200000J0D01*
G01*
X123875000Y-94225000D01*
G75*
G02*
X123675000Y-94025000I0J200000D01*
G01*
X123675000Y-93475000D01*
G75*
G02*
X123875000Y-93275000I200000J0D01*
G01*
X124275000Y-93275000D01*
G75*
G02*
X124475000Y-93475000I0J-200000D01*
G01*
G37*
%TD*%
%TO.C,R141*%
G36*
G01*
X155575000Y-108225000D02*
X155575000Y-108775000D01*
G75*
G02*
X155375000Y-108975000I-200000J0D01*
G01*
X154975000Y-108975000D01*
G75*
G02*
X154775000Y-108775000I0J200000D01*
G01*
X154775000Y-108225000D01*
G75*
G02*
X154975000Y-108025000I200000J0D01*
G01*
X155375000Y-108025000D01*
G75*
G02*
X155575000Y-108225000I0J-200000D01*
G01*
G37*
G36*
G01*
X157225000Y-108225000D02*
X157225000Y-108775000D01*
G75*
G02*
X157025000Y-108975000I-200000J0D01*
G01*
X156625000Y-108975000D01*
G75*
G02*
X156425000Y-108775000I0J200000D01*
G01*
X156425000Y-108225000D01*
G75*
G02*
X156625000Y-108025000I200000J0D01*
G01*
X157025000Y-108025000D01*
G75*
G02*
X157225000Y-108225000I0J-200000D01*
G01*
G37*
%TD*%
%TO.C,R140*%
G36*
G01*
X163175000Y-110525000D02*
X163175000Y-109975000D01*
G75*
G02*
X163375000Y-109775000I200000J0D01*
G01*
X163775000Y-109775000D01*
G75*
G02*
X163975000Y-109975000I0J-200000D01*
G01*
X163975000Y-110525000D01*
G75*
G02*
X163775000Y-110725000I-200000J0D01*
G01*
X163375000Y-110725000D01*
G75*
G02*
X163175000Y-110525000I0J200000D01*
G01*
G37*
G36*
G01*
X161525000Y-110525000D02*
X161525000Y-109975000D01*
G75*
G02*
X161725000Y-109775000I200000J0D01*
G01*
X162125000Y-109775000D01*
G75*
G02*
X162325000Y-109975000I0J-200000D01*
G01*
X162325000Y-110525000D01*
G75*
G02*
X162125000Y-110725000I-200000J0D01*
G01*
X161725000Y-110725000D01*
G75*
G02*
X161525000Y-110525000I0J200000D01*
G01*
G37*
%TD*%
%TO.C,R139*%
G36*
G01*
X172875001Y-94350000D02*
X171624999Y-94350000D01*
G75*
G02*
X171375000Y-94100001I0J249999D01*
G01*
X171375000Y-93474999D01*
G75*
G02*
X171624999Y-93225000I249999J0D01*
G01*
X172875001Y-93225000D01*
G75*
G02*
X173125000Y-93474999I0J-249999D01*
G01*
X173125000Y-94100001D01*
G75*
G02*
X172875001Y-94350000I-249999J0D01*
G01*
G37*
G36*
G01*
X172875001Y-97275000D02*
X171624999Y-97275000D01*
G75*
G02*
X171375000Y-97025001I0J249999D01*
G01*
X171375000Y-96399999D01*
G75*
G02*
X171624999Y-96150000I249999J0D01*
G01*
X172875001Y-96150000D01*
G75*
G02*
X173125000Y-96399999I0J-249999D01*
G01*
X173125000Y-97025001D01*
G75*
G02*
X172875001Y-97275000I-249999J0D01*
G01*
G37*
%TD*%
%TO.C,R138*%
G36*
G01*
X139225000Y-103925000D02*
X139775000Y-103925000D01*
G75*
G02*
X139975000Y-104125000I0J-200000D01*
G01*
X139975000Y-104525000D01*
G75*
G02*
X139775000Y-104725000I-200000J0D01*
G01*
X139225000Y-104725000D01*
G75*
G02*
X139025000Y-104525000I0J200000D01*
G01*
X139025000Y-104125000D01*
G75*
G02*
X139225000Y-103925000I200000J0D01*
G01*
G37*
G36*
G01*
X139225000Y-102275000D02*
X139775000Y-102275000D01*
G75*
G02*
X139975000Y-102475000I0J-200000D01*
G01*
X139975000Y-102875000D01*
G75*
G02*
X139775000Y-103075000I-200000J0D01*
G01*
X139225000Y-103075000D01*
G75*
G02*
X139025000Y-102875000I0J200000D01*
G01*
X139025000Y-102475000D01*
G75*
G02*
X139225000Y-102275000I200000J0D01*
G01*
G37*
%TD*%
%TO.C,R137*%
G36*
G01*
X139025000Y-117325000D02*
X138475000Y-117325000D01*
G75*
G02*
X138275000Y-117125000I0J200000D01*
G01*
X138275000Y-116725000D01*
G75*
G02*
X138475000Y-116525000I200000J0D01*
G01*
X139025000Y-116525000D01*
G75*
G02*
X139225000Y-116725000I0J-200000D01*
G01*
X139225000Y-117125000D01*
G75*
G02*
X139025000Y-117325000I-200000J0D01*
G01*
G37*
G36*
G01*
X139025000Y-118975000D02*
X138475000Y-118975000D01*
G75*
G02*
X138275000Y-118775000I0J200000D01*
G01*
X138275000Y-118375000D01*
G75*
G02*
X138475000Y-118175000I200000J0D01*
G01*
X139025000Y-118175000D01*
G75*
G02*
X139225000Y-118375000I0J-200000D01*
G01*
X139225000Y-118775000D01*
G75*
G02*
X139025000Y-118975000I-200000J0D01*
G01*
G37*
%TD*%
%TO.C,R136*%
G36*
G01*
X137525000Y-117325000D02*
X136975000Y-117325000D01*
G75*
G02*
X136775000Y-117125000I0J200000D01*
G01*
X136775000Y-116725000D01*
G75*
G02*
X136975000Y-116525000I200000J0D01*
G01*
X137525000Y-116525000D01*
G75*
G02*
X137725000Y-116725000I0J-200000D01*
G01*
X137725000Y-117125000D01*
G75*
G02*
X137525000Y-117325000I-200000J0D01*
G01*
G37*
G36*
G01*
X137525000Y-118975000D02*
X136975000Y-118975000D01*
G75*
G02*
X136775000Y-118775000I0J200000D01*
G01*
X136775000Y-118375000D01*
G75*
G02*
X136975000Y-118175000I200000J0D01*
G01*
X137525000Y-118175000D01*
G75*
G02*
X137725000Y-118375000I0J-200000D01*
G01*
X137725000Y-118775000D01*
G75*
G02*
X137525000Y-118975000I-200000J0D01*
G01*
G37*
%TD*%
%TO.C,R135*%
G36*
G01*
X140725000Y-103925000D02*
X141275000Y-103925000D01*
G75*
G02*
X141475000Y-104125000I0J-200000D01*
G01*
X141475000Y-104525000D01*
G75*
G02*
X141275000Y-104725000I-200000J0D01*
G01*
X140725000Y-104725000D01*
G75*
G02*
X140525000Y-104525000I0J200000D01*
G01*
X140525000Y-104125000D01*
G75*
G02*
X140725000Y-103925000I200000J0D01*
G01*
G37*
G36*
G01*
X140725000Y-102275000D02*
X141275000Y-102275000D01*
G75*
G02*
X141475000Y-102475000I0J-200000D01*
G01*
X141475000Y-102875000D01*
G75*
G02*
X141275000Y-103075000I-200000J0D01*
G01*
X140725000Y-103075000D01*
G75*
G02*
X140525000Y-102875000I0J200000D01*
G01*
X140525000Y-102475000D01*
G75*
G02*
X140725000Y-102275000I200000J0D01*
G01*
G37*
%TD*%
%TO.C,R134*%
G36*
G01*
X151775000Y-60575000D02*
X151225000Y-60575000D01*
G75*
G02*
X151025000Y-60375000I0J200000D01*
G01*
X151025000Y-59975000D01*
G75*
G02*
X151225000Y-59775000I200000J0D01*
G01*
X151775000Y-59775000D01*
G75*
G02*
X151975000Y-59975000I0J-200000D01*
G01*
X151975000Y-60375000D01*
G75*
G02*
X151775000Y-60575000I-200000J0D01*
G01*
G37*
G36*
G01*
X151775000Y-62225000D02*
X151225000Y-62225000D01*
G75*
G02*
X151025000Y-62025000I0J200000D01*
G01*
X151025000Y-61625000D01*
G75*
G02*
X151225000Y-61425000I200000J0D01*
G01*
X151775000Y-61425000D01*
G75*
G02*
X151975000Y-61625000I0J-200000D01*
G01*
X151975000Y-62025000D01*
G75*
G02*
X151775000Y-62225000I-200000J0D01*
G01*
G37*
%TD*%
%TO.C,R133*%
G36*
G01*
X146775000Y-60575000D02*
X146225000Y-60575000D01*
G75*
G02*
X146025000Y-60375000I0J200000D01*
G01*
X146025000Y-59975000D01*
G75*
G02*
X146225000Y-59775000I200000J0D01*
G01*
X146775000Y-59775000D01*
G75*
G02*
X146975000Y-59975000I0J-200000D01*
G01*
X146975000Y-60375000D01*
G75*
G02*
X146775000Y-60575000I-200000J0D01*
G01*
G37*
G36*
G01*
X146775000Y-62225000D02*
X146225000Y-62225000D01*
G75*
G02*
X146025000Y-62025000I0J200000D01*
G01*
X146025000Y-61625000D01*
G75*
G02*
X146225000Y-61425000I200000J0D01*
G01*
X146775000Y-61425000D01*
G75*
G02*
X146975000Y-61625000I0J-200000D01*
G01*
X146975000Y-62025000D01*
G75*
G02*
X146775000Y-62225000I-200000J0D01*
G01*
G37*
%TD*%
%TO.C,R132*%
G36*
G01*
X154275000Y-60575000D02*
X153725000Y-60575000D01*
G75*
G02*
X153525000Y-60375000I0J200000D01*
G01*
X153525000Y-59975000D01*
G75*
G02*
X153725000Y-59775000I200000J0D01*
G01*
X154275000Y-59775000D01*
G75*
G02*
X154475000Y-59975000I0J-200000D01*
G01*
X154475000Y-60375000D01*
G75*
G02*
X154275000Y-60575000I-200000J0D01*
G01*
G37*
G36*
G01*
X154275000Y-62225000D02*
X153725000Y-62225000D01*
G75*
G02*
X153525000Y-62025000I0J200000D01*
G01*
X153525000Y-61625000D01*
G75*
G02*
X153725000Y-61425000I200000J0D01*
G01*
X154275000Y-61425000D01*
G75*
G02*
X154475000Y-61625000I0J-200000D01*
G01*
X154475000Y-62025000D01*
G75*
G02*
X154275000Y-62225000I-200000J0D01*
G01*
G37*
%TD*%
%TO.C,R131*%
G36*
G01*
X149275000Y-60575000D02*
X148725000Y-60575000D01*
G75*
G02*
X148525000Y-60375000I0J200000D01*
G01*
X148525000Y-59975000D01*
G75*
G02*
X148725000Y-59775000I200000J0D01*
G01*
X149275000Y-59775000D01*
G75*
G02*
X149475000Y-59975000I0J-200000D01*
G01*
X149475000Y-60375000D01*
G75*
G02*
X149275000Y-60575000I-200000J0D01*
G01*
G37*
G36*
G01*
X149275000Y-62225000D02*
X148725000Y-62225000D01*
G75*
G02*
X148525000Y-62025000I0J200000D01*
G01*
X148525000Y-61625000D01*
G75*
G02*
X148725000Y-61425000I200000J0D01*
G01*
X149275000Y-61425000D01*
G75*
G02*
X149475000Y-61625000I0J-200000D01*
G01*
X149475000Y-62025000D01*
G75*
G02*
X149275000Y-62225000I-200000J0D01*
G01*
G37*
%TD*%
%TO.C,R130*%
G36*
G01*
X137725000Y-103925000D02*
X138275000Y-103925000D01*
G75*
G02*
X138475000Y-104125000I0J-200000D01*
G01*
X138475000Y-104525000D01*
G75*
G02*
X138275000Y-104725000I-200000J0D01*
G01*
X137725000Y-104725000D01*
G75*
G02*
X137525000Y-104525000I0J200000D01*
G01*
X137525000Y-104125000D01*
G75*
G02*
X137725000Y-103925000I200000J0D01*
G01*
G37*
G36*
G01*
X137725000Y-102275000D02*
X138275000Y-102275000D01*
G75*
G02*
X138475000Y-102475000I0J-200000D01*
G01*
X138475000Y-102875000D01*
G75*
G02*
X138275000Y-103075000I-200000J0D01*
G01*
X137725000Y-103075000D01*
G75*
G02*
X137525000Y-102875000I0J200000D01*
G01*
X137525000Y-102475000D01*
G75*
G02*
X137725000Y-102275000I200000J0D01*
G01*
G37*
%TD*%
%TO.C,R129*%
G36*
G01*
X143525000Y-117325000D02*
X142975000Y-117325000D01*
G75*
G02*
X142775000Y-117125000I0J200000D01*
G01*
X142775000Y-116725000D01*
G75*
G02*
X142975000Y-116525000I200000J0D01*
G01*
X143525000Y-116525000D01*
G75*
G02*
X143725000Y-116725000I0J-200000D01*
G01*
X143725000Y-117125000D01*
G75*
G02*
X143525000Y-117325000I-200000J0D01*
G01*
G37*
G36*
G01*
X143525000Y-118975000D02*
X142975000Y-118975000D01*
G75*
G02*
X142775000Y-118775000I0J200000D01*
G01*
X142775000Y-118375000D01*
G75*
G02*
X142975000Y-118175000I200000J0D01*
G01*
X143525000Y-118175000D01*
G75*
G02*
X143725000Y-118375000I0J-200000D01*
G01*
X143725000Y-118775000D01*
G75*
G02*
X143525000Y-118975000I-200000J0D01*
G01*
G37*
%TD*%
%TO.C,R128*%
G36*
G01*
X120775000Y-56575000D02*
X120225000Y-56575000D01*
G75*
G02*
X120025000Y-56375000I0J200000D01*
G01*
X120025000Y-55975000D01*
G75*
G02*
X120225000Y-55775000I200000J0D01*
G01*
X120775000Y-55775000D01*
G75*
G02*
X120975000Y-55975000I0J-200000D01*
G01*
X120975000Y-56375000D01*
G75*
G02*
X120775000Y-56575000I-200000J0D01*
G01*
G37*
G36*
G01*
X120775000Y-58225000D02*
X120225000Y-58225000D01*
G75*
G02*
X120025000Y-58025000I0J200000D01*
G01*
X120025000Y-57625000D01*
G75*
G02*
X120225000Y-57425000I200000J0D01*
G01*
X120775000Y-57425000D01*
G75*
G02*
X120975000Y-57625000I0J-200000D01*
G01*
X120975000Y-58025000D01*
G75*
G02*
X120775000Y-58225000I-200000J0D01*
G01*
G37*
%TD*%
%TO.C,R127*%
G36*
G01*
X140525000Y-117325000D02*
X139975000Y-117325000D01*
G75*
G02*
X139775000Y-117125000I0J200000D01*
G01*
X139775000Y-116725000D01*
G75*
G02*
X139975000Y-116525000I200000J0D01*
G01*
X140525000Y-116525000D01*
G75*
G02*
X140725000Y-116725000I0J-200000D01*
G01*
X140725000Y-117125000D01*
G75*
G02*
X140525000Y-117325000I-200000J0D01*
G01*
G37*
G36*
G01*
X140525000Y-118975000D02*
X139975000Y-118975000D01*
G75*
G02*
X139775000Y-118775000I0J200000D01*
G01*
X139775000Y-118375000D01*
G75*
G02*
X139975000Y-118175000I200000J0D01*
G01*
X140525000Y-118175000D01*
G75*
G02*
X140725000Y-118375000I0J-200000D01*
G01*
X140725000Y-118775000D01*
G75*
G02*
X140525000Y-118975000I-200000J0D01*
G01*
G37*
%TD*%
%TO.C,R126*%
G36*
G01*
X123775000Y-56575000D02*
X123225000Y-56575000D01*
G75*
G02*
X123025000Y-56375000I0J200000D01*
G01*
X123025000Y-55975000D01*
G75*
G02*
X123225000Y-55775000I200000J0D01*
G01*
X123775000Y-55775000D01*
G75*
G02*
X123975000Y-55975000I0J-200000D01*
G01*
X123975000Y-56375000D01*
G75*
G02*
X123775000Y-56575000I-200000J0D01*
G01*
G37*
G36*
G01*
X123775000Y-58225000D02*
X123225000Y-58225000D01*
G75*
G02*
X123025000Y-58025000I0J200000D01*
G01*
X123025000Y-57625000D01*
G75*
G02*
X123225000Y-57425000I200000J0D01*
G01*
X123775000Y-57425000D01*
G75*
G02*
X123975000Y-57625000I0J-200000D01*
G01*
X123975000Y-58025000D01*
G75*
G02*
X123775000Y-58225000I-200000J0D01*
G01*
G37*
%TD*%
%TO.C,R125*%
G36*
G01*
X143725000Y-103925000D02*
X144275000Y-103925000D01*
G75*
G02*
X144475000Y-104125000I0J-200000D01*
G01*
X144475000Y-104525000D01*
G75*
G02*
X144275000Y-104725000I-200000J0D01*
G01*
X143725000Y-104725000D01*
G75*
G02*
X143525000Y-104525000I0J200000D01*
G01*
X143525000Y-104125000D01*
G75*
G02*
X143725000Y-103925000I200000J0D01*
G01*
G37*
G36*
G01*
X143725000Y-102275000D02*
X144275000Y-102275000D01*
G75*
G02*
X144475000Y-102475000I0J-200000D01*
G01*
X144475000Y-102875000D01*
G75*
G02*
X144275000Y-103075000I-200000J0D01*
G01*
X143725000Y-103075000D01*
G75*
G02*
X143525000Y-102875000I0J200000D01*
G01*
X143525000Y-102475000D01*
G75*
G02*
X143725000Y-102275000I200000J0D01*
G01*
G37*
%TD*%
%TO.C,R124*%
G36*
G01*
X141475000Y-118175000D02*
X142025000Y-118175000D01*
G75*
G02*
X142225000Y-118375000I0J-200000D01*
G01*
X142225000Y-118775000D01*
G75*
G02*
X142025000Y-118975000I-200000J0D01*
G01*
X141475000Y-118975000D01*
G75*
G02*
X141275000Y-118775000I0J200000D01*
G01*
X141275000Y-118375000D01*
G75*
G02*
X141475000Y-118175000I200000J0D01*
G01*
G37*
G36*
G01*
X141475000Y-116525000D02*
X142025000Y-116525000D01*
G75*
G02*
X142225000Y-116725000I0J-200000D01*
G01*
X142225000Y-117125000D01*
G75*
G02*
X142025000Y-117325000I-200000J0D01*
G01*
X141475000Y-117325000D01*
G75*
G02*
X141275000Y-117125000I0J200000D01*
G01*
X141275000Y-116725000D01*
G75*
G02*
X141475000Y-116525000I200000J0D01*
G01*
G37*
%TD*%
%TO.C,R123*%
G36*
G01*
X142775000Y-103075000D02*
X142225000Y-103075000D01*
G75*
G02*
X142025000Y-102875000I0J200000D01*
G01*
X142025000Y-102475000D01*
G75*
G02*
X142225000Y-102275000I200000J0D01*
G01*
X142775000Y-102275000D01*
G75*
G02*
X142975000Y-102475000I0J-200000D01*
G01*
X142975000Y-102875000D01*
G75*
G02*
X142775000Y-103075000I-200000J0D01*
G01*
G37*
G36*
G01*
X142775000Y-104725000D02*
X142225000Y-104725000D01*
G75*
G02*
X142025000Y-104525000I0J200000D01*
G01*
X142025000Y-104125000D01*
G75*
G02*
X142225000Y-103925000I200000J0D01*
G01*
X142775000Y-103925000D01*
G75*
G02*
X142975000Y-104125000I0J-200000D01*
G01*
X142975000Y-104525000D01*
G75*
G02*
X142775000Y-104725000I-200000J0D01*
G01*
G37*
%TD*%
%TO.C,R122*%
G36*
G01*
X161775000Y-91825000D02*
X161225000Y-91825000D01*
G75*
G02*
X161025000Y-91625000I0J200000D01*
G01*
X161025000Y-91225000D01*
G75*
G02*
X161225000Y-91025000I200000J0D01*
G01*
X161775000Y-91025000D01*
G75*
G02*
X161975000Y-91225000I0J-200000D01*
G01*
X161975000Y-91625000D01*
G75*
G02*
X161775000Y-91825000I-200000J0D01*
G01*
G37*
G36*
G01*
X161775000Y-93475000D02*
X161225000Y-93475000D01*
G75*
G02*
X161025000Y-93275000I0J200000D01*
G01*
X161025000Y-92875000D01*
G75*
G02*
X161225000Y-92675000I200000J0D01*
G01*
X161775000Y-92675000D01*
G75*
G02*
X161975000Y-92875000I0J-200000D01*
G01*
X161975000Y-93275000D01*
G75*
G02*
X161775000Y-93475000I-200000J0D01*
G01*
G37*
%TD*%
%TO.C,R121*%
G36*
G01*
X157475000Y-92675000D02*
X158025000Y-92675000D01*
G75*
G02*
X158225000Y-92875000I0J-200000D01*
G01*
X158225000Y-93275000D01*
G75*
G02*
X158025000Y-93475000I-200000J0D01*
G01*
X157475000Y-93475000D01*
G75*
G02*
X157275000Y-93275000I0J200000D01*
G01*
X157275000Y-92875000D01*
G75*
G02*
X157475000Y-92675000I200000J0D01*
G01*
G37*
G36*
G01*
X157475000Y-91025000D02*
X158025000Y-91025000D01*
G75*
G02*
X158225000Y-91225000I0J-200000D01*
G01*
X158225000Y-91625000D01*
G75*
G02*
X158025000Y-91825000I-200000J0D01*
G01*
X157475000Y-91825000D01*
G75*
G02*
X157275000Y-91625000I0J200000D01*
G01*
X157275000Y-91225000D01*
G75*
G02*
X157475000Y-91025000I200000J0D01*
G01*
G37*
%TD*%
%TO.C,R120*%
G36*
G01*
X155725000Y-92675000D02*
X156275000Y-92675000D01*
G75*
G02*
X156475000Y-92875000I0J-200000D01*
G01*
X156475000Y-93275000D01*
G75*
G02*
X156275000Y-93475000I-200000J0D01*
G01*
X155725000Y-93475000D01*
G75*
G02*
X155525000Y-93275000I0J200000D01*
G01*
X155525000Y-92875000D01*
G75*
G02*
X155725000Y-92675000I200000J0D01*
G01*
G37*
G36*
G01*
X155725000Y-91025000D02*
X156275000Y-91025000D01*
G75*
G02*
X156475000Y-91225000I0J-200000D01*
G01*
X156475000Y-91625000D01*
G75*
G02*
X156275000Y-91825000I-200000J0D01*
G01*
X155725000Y-91825000D01*
G75*
G02*
X155525000Y-91625000I0J200000D01*
G01*
X155525000Y-91225000D01*
G75*
G02*
X155725000Y-91025000I200000J0D01*
G01*
G37*
%TD*%
%TO.C,R119*%
G36*
G01*
X168225000Y-107925000D02*
X168775000Y-107925000D01*
G75*
G02*
X168975000Y-108125000I0J-200000D01*
G01*
X168975000Y-108525000D01*
G75*
G02*
X168775000Y-108725000I-200000J0D01*
G01*
X168225000Y-108725000D01*
G75*
G02*
X168025000Y-108525000I0J200000D01*
G01*
X168025000Y-108125000D01*
G75*
G02*
X168225000Y-107925000I200000J0D01*
G01*
G37*
G36*
G01*
X168225000Y-106275000D02*
X168775000Y-106275000D01*
G75*
G02*
X168975000Y-106475000I0J-200000D01*
G01*
X168975000Y-106875000D01*
G75*
G02*
X168775000Y-107075000I-200000J0D01*
G01*
X168225000Y-107075000D01*
G75*
G02*
X168025000Y-106875000I0J200000D01*
G01*
X168025000Y-106475000D01*
G75*
G02*
X168225000Y-106275000I200000J0D01*
G01*
G37*
%TD*%
%TO.C,R118*%
G36*
G01*
X135475000Y-99425000D02*
X136025000Y-99425000D01*
G75*
G02*
X136225000Y-99625000I0J-200000D01*
G01*
X136225000Y-100025000D01*
G75*
G02*
X136025000Y-100225000I-200000J0D01*
G01*
X135475000Y-100225000D01*
G75*
G02*
X135275000Y-100025000I0J200000D01*
G01*
X135275000Y-99625000D01*
G75*
G02*
X135475000Y-99425000I200000J0D01*
G01*
G37*
G36*
G01*
X135475000Y-97775000D02*
X136025000Y-97775000D01*
G75*
G02*
X136225000Y-97975000I0J-200000D01*
G01*
X136225000Y-98375000D01*
G75*
G02*
X136025000Y-98575000I-200000J0D01*
G01*
X135475000Y-98575000D01*
G75*
G02*
X135275000Y-98375000I0J200000D01*
G01*
X135275000Y-97975000D01*
G75*
G02*
X135475000Y-97775000I200000J0D01*
G01*
G37*
%TD*%
%TO.C,R117*%
G36*
G01*
X144475000Y-96675000D02*
X145025000Y-96675000D01*
G75*
G02*
X145225000Y-96875000I0J-200000D01*
G01*
X145225000Y-97275000D01*
G75*
G02*
X145025000Y-97475000I-200000J0D01*
G01*
X144475000Y-97475000D01*
G75*
G02*
X144275000Y-97275000I0J200000D01*
G01*
X144275000Y-96875000D01*
G75*
G02*
X144475000Y-96675000I200000J0D01*
G01*
G37*
G36*
G01*
X144475000Y-95025000D02*
X145025000Y-95025000D01*
G75*
G02*
X145225000Y-95225000I0J-200000D01*
G01*
X145225000Y-95625000D01*
G75*
G02*
X145025000Y-95825000I-200000J0D01*
G01*
X144475000Y-95825000D01*
G75*
G02*
X144275000Y-95625000I0J200000D01*
G01*
X144275000Y-95225000D01*
G75*
G02*
X144475000Y-95025000I200000J0D01*
G01*
G37*
%TD*%
%TO.C,R116*%
G36*
G01*
X185575000Y-76225000D02*
X185575000Y-76775000D01*
G75*
G02*
X185375000Y-76975000I-200000J0D01*
G01*
X184975000Y-76975000D01*
G75*
G02*
X184775000Y-76775000I0J200000D01*
G01*
X184775000Y-76225000D01*
G75*
G02*
X184975000Y-76025000I200000J0D01*
G01*
X185375000Y-76025000D01*
G75*
G02*
X185575000Y-76225000I0J-200000D01*
G01*
G37*
G36*
G01*
X187225000Y-76225000D02*
X187225000Y-76775000D01*
G75*
G02*
X187025000Y-76975000I-200000J0D01*
G01*
X186625000Y-76975000D01*
G75*
G02*
X186425000Y-76775000I0J200000D01*
G01*
X186425000Y-76225000D01*
G75*
G02*
X186625000Y-76025000I200000J0D01*
G01*
X187025000Y-76025000D01*
G75*
G02*
X187225000Y-76225000I0J-200000D01*
G01*
G37*
%TD*%
%TO.C,R115*%
G36*
G01*
X185575000Y-73475000D02*
X185575000Y-74025000D01*
G75*
G02*
X185375000Y-74225000I-200000J0D01*
G01*
X184975000Y-74225000D01*
G75*
G02*
X184775000Y-74025000I0J200000D01*
G01*
X184775000Y-73475000D01*
G75*
G02*
X184975000Y-73275000I200000J0D01*
G01*
X185375000Y-73275000D01*
G75*
G02*
X185575000Y-73475000I0J-200000D01*
G01*
G37*
G36*
G01*
X187225000Y-73475000D02*
X187225000Y-74025000D01*
G75*
G02*
X187025000Y-74225000I-200000J0D01*
G01*
X186625000Y-74225000D01*
G75*
G02*
X186425000Y-74025000I0J200000D01*
G01*
X186425000Y-73475000D01*
G75*
G02*
X186625000Y-73275000I200000J0D01*
G01*
X187025000Y-73275000D01*
G75*
G02*
X187225000Y-73475000I0J-200000D01*
G01*
G37*
%TD*%
%TO.C,R114*%
G36*
G01*
X185575000Y-70975000D02*
X185575000Y-71525000D01*
G75*
G02*
X185375000Y-71725000I-200000J0D01*
G01*
X184975000Y-71725000D01*
G75*
G02*
X184775000Y-71525000I0J200000D01*
G01*
X184775000Y-70975000D01*
G75*
G02*
X184975000Y-70775000I200000J0D01*
G01*
X185375000Y-70775000D01*
G75*
G02*
X185575000Y-70975000I0J-200000D01*
G01*
G37*
G36*
G01*
X187225000Y-70975000D02*
X187225000Y-71525000D01*
G75*
G02*
X187025000Y-71725000I-200000J0D01*
G01*
X186625000Y-71725000D01*
G75*
G02*
X186425000Y-71525000I0J200000D01*
G01*
X186425000Y-70975000D01*
G75*
G02*
X186625000Y-70775000I200000J0D01*
G01*
X187025000Y-70775000D01*
G75*
G02*
X187225000Y-70975000I0J-200000D01*
G01*
G37*
%TD*%
%TO.C,R113*%
G36*
G01*
X185575000Y-68475000D02*
X185575000Y-69025000D01*
G75*
G02*
X185375000Y-69225000I-200000J0D01*
G01*
X184975000Y-69225000D01*
G75*
G02*
X184775000Y-69025000I0J200000D01*
G01*
X184775000Y-68475000D01*
G75*
G02*
X184975000Y-68275000I200000J0D01*
G01*
X185375000Y-68275000D01*
G75*
G02*
X185575000Y-68475000I0J-200000D01*
G01*
G37*
G36*
G01*
X187225000Y-68475000D02*
X187225000Y-69025000D01*
G75*
G02*
X187025000Y-69225000I-200000J0D01*
G01*
X186625000Y-69225000D01*
G75*
G02*
X186425000Y-69025000I0J200000D01*
G01*
X186425000Y-68475000D01*
G75*
G02*
X186625000Y-68275000I200000J0D01*
G01*
X187025000Y-68275000D01*
G75*
G02*
X187225000Y-68475000I0J-200000D01*
G01*
G37*
%TD*%
%TO.C,R112*%
G36*
G01*
X185575000Y-65975000D02*
X185575000Y-66525000D01*
G75*
G02*
X185375000Y-66725000I-200000J0D01*
G01*
X184975000Y-66725000D01*
G75*
G02*
X184775000Y-66525000I0J200000D01*
G01*
X184775000Y-65975000D01*
G75*
G02*
X184975000Y-65775000I200000J0D01*
G01*
X185375000Y-65775000D01*
G75*
G02*
X185575000Y-65975000I0J-200000D01*
G01*
G37*
G36*
G01*
X187225000Y-65975000D02*
X187225000Y-66525000D01*
G75*
G02*
X187025000Y-66725000I-200000J0D01*
G01*
X186625000Y-66725000D01*
G75*
G02*
X186425000Y-66525000I0J200000D01*
G01*
X186425000Y-65975000D01*
G75*
G02*
X186625000Y-65775000I200000J0D01*
G01*
X187025000Y-65775000D01*
G75*
G02*
X187225000Y-65975000I0J-200000D01*
G01*
G37*
%TD*%
%TO.C,R111*%
G36*
G01*
X126775000Y-56575000D02*
X126225000Y-56575000D01*
G75*
G02*
X126025000Y-56375000I0J200000D01*
G01*
X126025000Y-55975000D01*
G75*
G02*
X126225000Y-55775000I200000J0D01*
G01*
X126775000Y-55775000D01*
G75*
G02*
X126975000Y-55975000I0J-200000D01*
G01*
X126975000Y-56375000D01*
G75*
G02*
X126775000Y-56575000I-200000J0D01*
G01*
G37*
G36*
G01*
X126775000Y-58225000D02*
X126225000Y-58225000D01*
G75*
G02*
X126025000Y-58025000I0J200000D01*
G01*
X126025000Y-57625000D01*
G75*
G02*
X126225000Y-57425000I200000J0D01*
G01*
X126775000Y-57425000D01*
G75*
G02*
X126975000Y-57625000I0J-200000D01*
G01*
X126975000Y-58025000D01*
G75*
G02*
X126775000Y-58225000I-200000J0D01*
G01*
G37*
%TD*%
%TO.C,R110*%
G36*
G01*
X185575000Y-63475000D02*
X185575000Y-64025000D01*
G75*
G02*
X185375000Y-64225000I-200000J0D01*
G01*
X184975000Y-64225000D01*
G75*
G02*
X184775000Y-64025000I0J200000D01*
G01*
X184775000Y-63475000D01*
G75*
G02*
X184975000Y-63275000I200000J0D01*
G01*
X185375000Y-63275000D01*
G75*
G02*
X185575000Y-63475000I0J-200000D01*
G01*
G37*
G36*
G01*
X187225000Y-63475000D02*
X187225000Y-64025000D01*
G75*
G02*
X187025000Y-64225000I-200000J0D01*
G01*
X186625000Y-64225000D01*
G75*
G02*
X186425000Y-64025000I0J200000D01*
G01*
X186425000Y-63475000D01*
G75*
G02*
X186625000Y-63275000I200000J0D01*
G01*
X187025000Y-63275000D01*
G75*
G02*
X187225000Y-63475000I0J-200000D01*
G01*
G37*
%TD*%
%TO.C,R109*%
G36*
G01*
X129775000Y-56575000D02*
X129225000Y-56575000D01*
G75*
G02*
X129025000Y-56375000I0J200000D01*
G01*
X129025000Y-55975000D01*
G75*
G02*
X129225000Y-55775000I200000J0D01*
G01*
X129775000Y-55775000D01*
G75*
G02*
X129975000Y-55975000I0J-200000D01*
G01*
X129975000Y-56375000D01*
G75*
G02*
X129775000Y-56575000I-200000J0D01*
G01*
G37*
G36*
G01*
X129775000Y-58225000D02*
X129225000Y-58225000D01*
G75*
G02*
X129025000Y-58025000I0J200000D01*
G01*
X129025000Y-57625000D01*
G75*
G02*
X129225000Y-57425000I200000J0D01*
G01*
X129775000Y-57425000D01*
G75*
G02*
X129975000Y-57625000I0J-200000D01*
G01*
X129975000Y-58025000D01*
G75*
G02*
X129775000Y-58225000I-200000J0D01*
G01*
G37*
%TD*%
%TO.C,R108*%
G36*
G01*
X132775000Y-56575000D02*
X132225000Y-56575000D01*
G75*
G02*
X132025000Y-56375000I0J200000D01*
G01*
X132025000Y-55975000D01*
G75*
G02*
X132225000Y-55775000I200000J0D01*
G01*
X132775000Y-55775000D01*
G75*
G02*
X132975000Y-55975000I0J-200000D01*
G01*
X132975000Y-56375000D01*
G75*
G02*
X132775000Y-56575000I-200000J0D01*
G01*
G37*
G36*
G01*
X132775000Y-58225000D02*
X132225000Y-58225000D01*
G75*
G02*
X132025000Y-58025000I0J200000D01*
G01*
X132025000Y-57625000D01*
G75*
G02*
X132225000Y-57425000I200000J0D01*
G01*
X132775000Y-57425000D01*
G75*
G02*
X132975000Y-57625000I0J-200000D01*
G01*
X132975000Y-58025000D01*
G75*
G02*
X132775000Y-58225000I-200000J0D01*
G01*
G37*
%TD*%
%TO.C,R106*%
G36*
G01*
X135775000Y-56575000D02*
X135225000Y-56575000D01*
G75*
G02*
X135025000Y-56375000I0J200000D01*
G01*
X135025000Y-55975000D01*
G75*
G02*
X135225000Y-55775000I200000J0D01*
G01*
X135775000Y-55775000D01*
G75*
G02*
X135975000Y-55975000I0J-200000D01*
G01*
X135975000Y-56375000D01*
G75*
G02*
X135775000Y-56575000I-200000J0D01*
G01*
G37*
G36*
G01*
X135775000Y-58225000D02*
X135225000Y-58225000D01*
G75*
G02*
X135025000Y-58025000I0J200000D01*
G01*
X135025000Y-57625000D01*
G75*
G02*
X135225000Y-57425000I200000J0D01*
G01*
X135775000Y-57425000D01*
G75*
G02*
X135975000Y-57625000I0J-200000D01*
G01*
X135975000Y-58025000D01*
G75*
G02*
X135775000Y-58225000I-200000J0D01*
G01*
G37*
%TD*%
%TO.C,R105*%
G36*
G01*
X146025000Y-140325000D02*
X145475000Y-140325000D01*
G75*
G02*
X145275000Y-140125000I0J200000D01*
G01*
X145275000Y-139725000D01*
G75*
G02*
X145475000Y-139525000I200000J0D01*
G01*
X146025000Y-139525000D01*
G75*
G02*
X146225000Y-139725000I0J-200000D01*
G01*
X146225000Y-140125000D01*
G75*
G02*
X146025000Y-140325000I-200000J0D01*
G01*
G37*
G36*
G01*
X146025000Y-141975000D02*
X145475000Y-141975000D01*
G75*
G02*
X145275000Y-141775000I0J200000D01*
G01*
X145275000Y-141375000D01*
G75*
G02*
X145475000Y-141175000I200000J0D01*
G01*
X146025000Y-141175000D01*
G75*
G02*
X146225000Y-141375000I0J-200000D01*
G01*
X146225000Y-141775000D01*
G75*
G02*
X146025000Y-141975000I-200000J0D01*
G01*
G37*
%TD*%
%TO.C,R104*%
G36*
G01*
X141025000Y-140325000D02*
X140475000Y-140325000D01*
G75*
G02*
X140275000Y-140125000I0J200000D01*
G01*
X140275000Y-139725000D01*
G75*
G02*
X140475000Y-139525000I200000J0D01*
G01*
X141025000Y-139525000D01*
G75*
G02*
X141225000Y-139725000I0J-200000D01*
G01*
X141225000Y-140125000D01*
G75*
G02*
X141025000Y-140325000I-200000J0D01*
G01*
G37*
G36*
G01*
X141025000Y-141975000D02*
X140475000Y-141975000D01*
G75*
G02*
X140275000Y-141775000I0J200000D01*
G01*
X140275000Y-141375000D01*
G75*
G02*
X140475000Y-141175000I200000J0D01*
G01*
X141025000Y-141175000D01*
G75*
G02*
X141225000Y-141375000I0J-200000D01*
G01*
X141225000Y-141775000D01*
G75*
G02*
X141025000Y-141975000I-200000J0D01*
G01*
G37*
%TD*%
%TO.C,R103*%
G36*
G01*
X124775000Y-140325000D02*
X124225000Y-140325000D01*
G75*
G02*
X124025000Y-140125000I0J200000D01*
G01*
X124025000Y-139725000D01*
G75*
G02*
X124225000Y-139525000I200000J0D01*
G01*
X124775000Y-139525000D01*
G75*
G02*
X124975000Y-139725000I0J-200000D01*
G01*
X124975000Y-140125000D01*
G75*
G02*
X124775000Y-140325000I-200000J0D01*
G01*
G37*
G36*
G01*
X124775000Y-141975000D02*
X124225000Y-141975000D01*
G75*
G02*
X124025000Y-141775000I0J200000D01*
G01*
X124025000Y-141375000D01*
G75*
G02*
X124225000Y-141175000I200000J0D01*
G01*
X124775000Y-141175000D01*
G75*
G02*
X124975000Y-141375000I0J-200000D01*
G01*
X124975000Y-141775000D01*
G75*
G02*
X124775000Y-141975000I-200000J0D01*
G01*
G37*
%TD*%
%TO.C,R102*%
G36*
G01*
X119775000Y-140325000D02*
X119225000Y-140325000D01*
G75*
G02*
X119025000Y-140125000I0J200000D01*
G01*
X119025000Y-139725000D01*
G75*
G02*
X119225000Y-139525000I200000J0D01*
G01*
X119775000Y-139525000D01*
G75*
G02*
X119975000Y-139725000I0J-200000D01*
G01*
X119975000Y-140125000D01*
G75*
G02*
X119775000Y-140325000I-200000J0D01*
G01*
G37*
G36*
G01*
X119775000Y-141975000D02*
X119225000Y-141975000D01*
G75*
G02*
X119025000Y-141775000I0J200000D01*
G01*
X119025000Y-141375000D01*
G75*
G02*
X119225000Y-141175000I200000J0D01*
G01*
X119775000Y-141175000D01*
G75*
G02*
X119975000Y-141375000I0J-200000D01*
G01*
X119975000Y-141775000D01*
G75*
G02*
X119775000Y-141975000I-200000J0D01*
G01*
G37*
%TD*%
%TO.C,R101*%
G36*
G01*
X138775000Y-56575000D02*
X138225000Y-56575000D01*
G75*
G02*
X138025000Y-56375000I0J200000D01*
G01*
X138025000Y-55975000D01*
G75*
G02*
X138225000Y-55775000I200000J0D01*
G01*
X138775000Y-55775000D01*
G75*
G02*
X138975000Y-55975000I0J-200000D01*
G01*
X138975000Y-56375000D01*
G75*
G02*
X138775000Y-56575000I-200000J0D01*
G01*
G37*
G36*
G01*
X138775000Y-58225000D02*
X138225000Y-58225000D01*
G75*
G02*
X138025000Y-58025000I0J200000D01*
G01*
X138025000Y-57625000D01*
G75*
G02*
X138225000Y-57425000I200000J0D01*
G01*
X138775000Y-57425000D01*
G75*
G02*
X138975000Y-57625000I0J-200000D01*
G01*
X138975000Y-58025000D01*
G75*
G02*
X138775000Y-58225000I-200000J0D01*
G01*
G37*
%TD*%
D24*
%TO.C,Q504*%
X187500000Y-131500000D03*
X188450000Y-133500000D03*
X186550000Y-133500000D03*
%TD*%
%TO.C,Q503*%
X180250000Y-131500000D03*
X181200000Y-133500000D03*
X179300000Y-133500000D03*
%TD*%
%TO.C,Q502*%
X173000000Y-131500000D03*
X173950000Y-133500000D03*
X172050000Y-133500000D03*
%TD*%
%TO.C,Q501*%
X165750000Y-131500000D03*
X166700000Y-133500000D03*
X164800000Y-133500000D03*
%TD*%
%TO.C,Q104*%
X127750000Y-59750000D03*
X128700000Y-61750000D03*
X126800000Y-61750000D03*
%TD*%
%TO.C,Q103*%
X131500000Y-59750000D03*
X132450000Y-61750000D03*
X130550000Y-61750000D03*
%TD*%
%TO.C,Q102*%
X135250000Y-59750000D03*
X136200000Y-61750000D03*
X134300000Y-61750000D03*
%TD*%
D13*
%TO.C,J401*%
X167290000Y-75250000D03*
D14*
X164750000Y-75250000D03*
%TD*%
D10*
%TO.C,J208*%
X107000000Y-125500000D03*
X107000000Y-122000000D03*
X107000000Y-118500000D03*
X107000000Y-115000000D03*
%TD*%
%TO.C,J207*%
X107000000Y-87750000D03*
X107000000Y-91250000D03*
%TD*%
D13*
%TO.C,J205*%
X132290000Y-128500000D03*
D14*
X129750000Y-128500000D03*
%TD*%
D13*
%TO.C,J203*%
X119290000Y-92750000D03*
D14*
X116750000Y-92750000D03*
%TD*%
D13*
%TO.C,J202*%
X128790000Y-116750000D03*
D14*
X126250000Y-116750000D03*
%TD*%
D19*
%TO.C,J109*%
X171750000Y-114750000D03*
D20*
X171750000Y-117650000D03*
X174650000Y-114750000D03*
X171750000Y-111850000D03*
X168850000Y-114750000D03*
%TD*%
D13*
%TO.C,J108*%
X149130000Y-57000000D03*
X149130000Y-54460000D03*
X151670000Y-57000000D03*
X151670000Y-54460000D03*
X154210000Y-57000000D03*
X154210000Y-54460000D03*
X156750000Y-57000000D03*
X156750000Y-54460000D03*
X159290000Y-57000000D03*
X159290000Y-54460000D03*
X161830000Y-57000000D03*
X161830000Y-54460000D03*
X164370000Y-57000000D03*
X164370000Y-54460000D03*
X166910000Y-57000000D03*
X166910000Y-54460000D03*
X169450000Y-57000000D03*
D14*
X169450000Y-54460000D03*
%TD*%
D13*
%TO.C,J107*%
X179750000Y-60870000D03*
X179750000Y-58330000D03*
X179750000Y-55790000D03*
D14*
X179750000Y-53250000D03*
%TD*%
D13*
%TO.C,J106*%
X146620000Y-133250000D03*
X144080000Y-133250000D03*
X141540000Y-133250000D03*
D14*
X139000000Y-133250000D03*
%TD*%
D31*
%TO.C,J104*%
X149000000Y-147900000D03*
D32*
X151825000Y-147650000D03*
X146175000Y-147650000D03*
%TD*%
D31*
%TO.C,J103*%
X138750000Y-147900000D03*
D32*
X141575000Y-147650000D03*
X135925000Y-147650000D03*
%TD*%
D31*
%TO.C,J102*%
X126750000Y-147900000D03*
D32*
X129575000Y-147650000D03*
X123925000Y-147650000D03*
%TD*%
D31*
%TO.C,J101*%
X116750000Y-147900000D03*
D32*
X119575000Y-147650000D03*
X113925000Y-147650000D03*
%TD*%
%TO.C,FB301*%
G36*
G01*
X139868750Y-78875000D02*
X140631250Y-78875000D01*
G75*
G02*
X140850000Y-79093750I0J-218750D01*
G01*
X140850000Y-79531250D01*
G75*
G02*
X140631250Y-79750000I-218750J0D01*
G01*
X139868750Y-79750000D01*
G75*
G02*
X139650000Y-79531250I0J218750D01*
G01*
X139650000Y-79093750D01*
G75*
G02*
X139868750Y-78875000I218750J0D01*
G01*
G37*
G36*
G01*
X139868750Y-76750000D02*
X140631250Y-76750000D01*
G75*
G02*
X140850000Y-76968750I0J-218750D01*
G01*
X140850000Y-77406250D01*
G75*
G02*
X140631250Y-77625000I-218750J0D01*
G01*
X139868750Y-77625000D01*
G75*
G02*
X139650000Y-77406250I0J218750D01*
G01*
X139650000Y-76968750D01*
G75*
G02*
X139868750Y-76750000I218750J0D01*
G01*
G37*
%TD*%
%TO.C,FB203*%
G36*
G01*
X126625000Y-124618750D02*
X126625000Y-125381250D01*
G75*
G02*
X126406250Y-125600000I-218750J0D01*
G01*
X125968750Y-125600000D01*
G75*
G02*
X125750000Y-125381250I0J218750D01*
G01*
X125750000Y-124618750D01*
G75*
G02*
X125968750Y-124400000I218750J0D01*
G01*
X126406250Y-124400000D01*
G75*
G02*
X126625000Y-124618750I0J-218750D01*
G01*
G37*
G36*
G01*
X128750000Y-124618750D02*
X128750000Y-125381250D01*
G75*
G02*
X128531250Y-125600000I-218750J0D01*
G01*
X128093750Y-125600000D01*
G75*
G02*
X127875000Y-125381250I0J218750D01*
G01*
X127875000Y-124618750D01*
G75*
G02*
X128093750Y-124400000I218750J0D01*
G01*
X128531250Y-124400000D01*
G75*
G02*
X128750000Y-124618750I0J-218750D01*
G01*
G37*
%TD*%
%TO.C,FB202*%
G36*
G01*
X111125000Y-113118750D02*
X111125000Y-113881250D01*
G75*
G02*
X110906250Y-114100000I-218750J0D01*
G01*
X110468750Y-114100000D01*
G75*
G02*
X110250000Y-113881250I0J218750D01*
G01*
X110250000Y-113118750D01*
G75*
G02*
X110468750Y-112900000I218750J0D01*
G01*
X110906250Y-112900000D01*
G75*
G02*
X111125000Y-113118750I0J-218750D01*
G01*
G37*
G36*
G01*
X113250000Y-113118750D02*
X113250000Y-113881250D01*
G75*
G02*
X113031250Y-114100000I-218750J0D01*
G01*
X112593750Y-114100000D01*
G75*
G02*
X112375000Y-113881250I0J218750D01*
G01*
X112375000Y-113118750D01*
G75*
G02*
X112593750Y-112900000I218750J0D01*
G01*
X113031250Y-112900000D01*
G75*
G02*
X113250000Y-113118750I0J-218750D01*
G01*
G37*
%TD*%
%TO.C,FB201*%
G36*
G01*
X111625000Y-87618750D02*
X111625000Y-88381250D01*
G75*
G02*
X111406250Y-88600000I-218750J0D01*
G01*
X110968750Y-88600000D01*
G75*
G02*
X110750000Y-88381250I0J218750D01*
G01*
X110750000Y-87618750D01*
G75*
G02*
X110968750Y-87400000I218750J0D01*
G01*
X111406250Y-87400000D01*
G75*
G02*
X111625000Y-87618750I0J-218750D01*
G01*
G37*
G36*
G01*
X113750000Y-87618750D02*
X113750000Y-88381250D01*
G75*
G02*
X113531250Y-88600000I-218750J0D01*
G01*
X113093750Y-88600000D01*
G75*
G02*
X112875000Y-88381250I0J218750D01*
G01*
X112875000Y-87618750D01*
G75*
G02*
X113093750Y-87400000I218750J0D01*
G01*
X113531250Y-87400000D01*
G75*
G02*
X113750000Y-87618750I0J-218750D01*
G01*
G37*
%TD*%
%TO.C,D110*%
G36*
G01*
X120287500Y-53200000D02*
X120712500Y-53200000D01*
G75*
G02*
X120925000Y-53412500I0J-212500D01*
G01*
X120925000Y-54212500D01*
G75*
G02*
X120712500Y-54425000I-212500J0D01*
G01*
X120287500Y-54425000D01*
G75*
G02*
X120075000Y-54212500I0J212500D01*
G01*
X120075000Y-53412500D01*
G75*
G02*
X120287500Y-53200000I212500J0D01*
G01*
G37*
G36*
G01*
X120287500Y-51575000D02*
X120712500Y-51575000D01*
G75*
G02*
X120925000Y-51787500I0J-212500D01*
G01*
X120925000Y-52587500D01*
G75*
G02*
X120712500Y-52800000I-212500J0D01*
G01*
X120287500Y-52800000D01*
G75*
G02*
X120075000Y-52587500I0J212500D01*
G01*
X120075000Y-51787500D01*
G75*
G02*
X120287500Y-51575000I212500J0D01*
G01*
G37*
%TD*%
%TO.C,D109*%
G36*
G01*
X123287500Y-53200000D02*
X123712500Y-53200000D01*
G75*
G02*
X123925000Y-53412500I0J-212500D01*
G01*
X123925000Y-54212500D01*
G75*
G02*
X123712500Y-54425000I-212500J0D01*
G01*
X123287500Y-54425000D01*
G75*
G02*
X123075000Y-54212500I0J212500D01*
G01*
X123075000Y-53412500D01*
G75*
G02*
X123287500Y-53200000I212500J0D01*
G01*
G37*
G36*
G01*
X123287500Y-51575000D02*
X123712500Y-51575000D01*
G75*
G02*
X123925000Y-51787500I0J-212500D01*
G01*
X123925000Y-52587500D01*
G75*
G02*
X123712500Y-52800000I-212500J0D01*
G01*
X123287500Y-52800000D01*
G75*
G02*
X123075000Y-52587500I0J212500D01*
G01*
X123075000Y-51787500D01*
G75*
G02*
X123287500Y-51575000I212500J0D01*
G01*
G37*
%TD*%
D33*
%TO.C,D108*%
X167000000Y-105300000D03*
X167000000Y-103200000D03*
%TD*%
%TO.C,D107*%
X167000000Y-101800000D03*
X167000000Y-99700000D03*
%TD*%
%TO.C,D106*%
G36*
G01*
X126287500Y-53200000D02*
X126712500Y-53200000D01*
G75*
G02*
X126925000Y-53412500I0J-212500D01*
G01*
X126925000Y-54212500D01*
G75*
G02*
X126712500Y-54425000I-212500J0D01*
G01*
X126287500Y-54425000D01*
G75*
G02*
X126075000Y-54212500I0J212500D01*
G01*
X126075000Y-53412500D01*
G75*
G02*
X126287500Y-53200000I212500J0D01*
G01*
G37*
G36*
G01*
X126287500Y-51575000D02*
X126712500Y-51575000D01*
G75*
G02*
X126925000Y-51787500I0J-212500D01*
G01*
X126925000Y-52587500D01*
G75*
G02*
X126712500Y-52800000I-212500J0D01*
G01*
X126287500Y-52800000D01*
G75*
G02*
X126075000Y-52587500I0J212500D01*
G01*
X126075000Y-51787500D01*
G75*
G02*
X126287500Y-51575000I212500J0D01*
G01*
G37*
%TD*%
%TO.C,D105*%
G36*
G01*
X129287500Y-53200000D02*
X129712500Y-53200000D01*
G75*
G02*
X129925000Y-53412500I0J-212500D01*
G01*
X129925000Y-54212500D01*
G75*
G02*
X129712500Y-54425000I-212500J0D01*
G01*
X129287500Y-54425000D01*
G75*
G02*
X129075000Y-54212500I0J212500D01*
G01*
X129075000Y-53412500D01*
G75*
G02*
X129287500Y-53200000I212500J0D01*
G01*
G37*
G36*
G01*
X129287500Y-51575000D02*
X129712500Y-51575000D01*
G75*
G02*
X129925000Y-51787500I0J-212500D01*
G01*
X129925000Y-52587500D01*
G75*
G02*
X129712500Y-52800000I-212500J0D01*
G01*
X129287500Y-52800000D01*
G75*
G02*
X129075000Y-52587500I0J212500D01*
G01*
X129075000Y-51787500D01*
G75*
G02*
X129287500Y-51575000I212500J0D01*
G01*
G37*
%TD*%
%TO.C,D104*%
G36*
G01*
X132287500Y-53200000D02*
X132712500Y-53200000D01*
G75*
G02*
X132925000Y-53412500I0J-212500D01*
G01*
X132925000Y-54212500D01*
G75*
G02*
X132712500Y-54425000I-212500J0D01*
G01*
X132287500Y-54425000D01*
G75*
G02*
X132075000Y-54212500I0J212500D01*
G01*
X132075000Y-53412500D01*
G75*
G02*
X132287500Y-53200000I212500J0D01*
G01*
G37*
G36*
G01*
X132287500Y-51575000D02*
X132712500Y-51575000D01*
G75*
G02*
X132925000Y-51787500I0J-212500D01*
G01*
X132925000Y-52587500D01*
G75*
G02*
X132712500Y-52800000I-212500J0D01*
G01*
X132287500Y-52800000D01*
G75*
G02*
X132075000Y-52587500I0J212500D01*
G01*
X132075000Y-51787500D01*
G75*
G02*
X132287500Y-51575000I212500J0D01*
G01*
G37*
%TD*%
%TO.C,D102*%
G36*
G01*
X135287500Y-53200000D02*
X135712500Y-53200000D01*
G75*
G02*
X135925000Y-53412500I0J-212500D01*
G01*
X135925000Y-54212500D01*
G75*
G02*
X135712500Y-54425000I-212500J0D01*
G01*
X135287500Y-54425000D01*
G75*
G02*
X135075000Y-54212500I0J212500D01*
G01*
X135075000Y-53412500D01*
G75*
G02*
X135287500Y-53200000I212500J0D01*
G01*
G37*
G36*
G01*
X135287500Y-51575000D02*
X135712500Y-51575000D01*
G75*
G02*
X135925000Y-51787500I0J-212500D01*
G01*
X135925000Y-52587500D01*
G75*
G02*
X135712500Y-52800000I-212500J0D01*
G01*
X135287500Y-52800000D01*
G75*
G02*
X135075000Y-52587500I0J212500D01*
G01*
X135075000Y-51787500D01*
G75*
G02*
X135287500Y-51575000I212500J0D01*
G01*
G37*
%TD*%
%TO.C,D101*%
G36*
G01*
X138287500Y-53200000D02*
X138712500Y-53200000D01*
G75*
G02*
X138925000Y-53412500I0J-212500D01*
G01*
X138925000Y-54212500D01*
G75*
G02*
X138712500Y-54425000I-212500J0D01*
G01*
X138287500Y-54425000D01*
G75*
G02*
X138075000Y-54212500I0J212500D01*
G01*
X138075000Y-53412500D01*
G75*
G02*
X138287500Y-53200000I212500J0D01*
G01*
G37*
G36*
G01*
X138287500Y-51575000D02*
X138712500Y-51575000D01*
G75*
G02*
X138925000Y-51787500I0J-212500D01*
G01*
X138925000Y-52587500D01*
G75*
G02*
X138712500Y-52800000I-212500J0D01*
G01*
X138287500Y-52800000D01*
G75*
G02*
X138075000Y-52587500I0J212500D01*
G01*
X138075000Y-51787500D01*
G75*
G02*
X138287500Y-51575000I212500J0D01*
G01*
G37*
%TD*%
%TO.C,C404*%
G36*
G01*
X162250000Y-85325000D02*
X162750000Y-85325000D01*
G75*
G02*
X162975000Y-85550000I0J-225000D01*
G01*
X162975000Y-86000000D01*
G75*
G02*
X162750000Y-86225000I-225000J0D01*
G01*
X162250000Y-86225000D01*
G75*
G02*
X162025000Y-86000000I0J225000D01*
G01*
X162025000Y-85550000D01*
G75*
G02*
X162250000Y-85325000I225000J0D01*
G01*
G37*
G36*
G01*
X162250000Y-83775000D02*
X162750000Y-83775000D01*
G75*
G02*
X162975000Y-84000000I0J-225000D01*
G01*
X162975000Y-84450000D01*
G75*
G02*
X162750000Y-84675000I-225000J0D01*
G01*
X162250000Y-84675000D01*
G75*
G02*
X162025000Y-84450000I0J225000D01*
G01*
X162025000Y-84000000D01*
G75*
G02*
X162250000Y-83775000I225000J0D01*
G01*
G37*
%TD*%
%TO.C,C403*%
G36*
G01*
X165075000Y-90500000D02*
X165075000Y-90000000D01*
G75*
G02*
X165300000Y-89775000I225000J0D01*
G01*
X165750000Y-89775000D01*
G75*
G02*
X165975000Y-90000000I0J-225000D01*
G01*
X165975000Y-90500000D01*
G75*
G02*
X165750000Y-90725000I-225000J0D01*
G01*
X165300000Y-90725000D01*
G75*
G02*
X165075000Y-90500000I0J225000D01*
G01*
G37*
G36*
G01*
X163525000Y-90500000D02*
X163525000Y-90000000D01*
G75*
G02*
X163750000Y-89775000I225000J0D01*
G01*
X164200000Y-89775000D01*
G75*
G02*
X164425000Y-90000000I0J-225000D01*
G01*
X164425000Y-90500000D01*
G75*
G02*
X164200000Y-90725000I-225000J0D01*
G01*
X163750000Y-90725000D01*
G75*
G02*
X163525000Y-90500000I0J225000D01*
G01*
G37*
%TD*%
%TO.C,C402*%
G36*
G01*
X166575000Y-82000000D02*
X166575000Y-81500000D01*
G75*
G02*
X166800000Y-81275000I225000J0D01*
G01*
X167250000Y-81275000D01*
G75*
G02*
X167475000Y-81500000I0J-225000D01*
G01*
X167475000Y-82000000D01*
G75*
G02*
X167250000Y-82225000I-225000J0D01*
G01*
X166800000Y-82225000D01*
G75*
G02*
X166575000Y-82000000I0J225000D01*
G01*
G37*
G36*
G01*
X165025000Y-82000000D02*
X165025000Y-81500000D01*
G75*
G02*
X165250000Y-81275000I225000J0D01*
G01*
X165700000Y-81275000D01*
G75*
G02*
X165925000Y-81500000I0J-225000D01*
G01*
X165925000Y-82000000D01*
G75*
G02*
X165700000Y-82225000I-225000J0D01*
G01*
X165250000Y-82225000D01*
G75*
G02*
X165025000Y-82000000I0J225000D01*
G01*
G37*
%TD*%
%TO.C,C401*%
G36*
G01*
X168075000Y-89000000D02*
X168075000Y-88500000D01*
G75*
G02*
X168300000Y-88275000I225000J0D01*
G01*
X168750000Y-88275000D01*
G75*
G02*
X168975000Y-88500000I0J-225000D01*
G01*
X168975000Y-89000000D01*
G75*
G02*
X168750000Y-89225000I-225000J0D01*
G01*
X168300000Y-89225000D01*
G75*
G02*
X168075000Y-89000000I0J225000D01*
G01*
G37*
G36*
G01*
X166525000Y-89000000D02*
X166525000Y-88500000D01*
G75*
G02*
X166750000Y-88275000I225000J0D01*
G01*
X167200000Y-88275000D01*
G75*
G02*
X167425000Y-88500000I0J-225000D01*
G01*
X167425000Y-89000000D01*
G75*
G02*
X167200000Y-89225000I-225000J0D01*
G01*
X166750000Y-89225000D01*
G75*
G02*
X166525000Y-89000000I0J225000D01*
G01*
G37*
%TD*%
%TO.C,C303*%
G36*
G01*
X148250000Y-87325000D02*
X148750000Y-87325000D01*
G75*
G02*
X148975000Y-87550000I0J-225000D01*
G01*
X148975000Y-88000000D01*
G75*
G02*
X148750000Y-88225000I-225000J0D01*
G01*
X148250000Y-88225000D01*
G75*
G02*
X148025000Y-88000000I0J225000D01*
G01*
X148025000Y-87550000D01*
G75*
G02*
X148250000Y-87325000I225000J0D01*
G01*
G37*
G36*
G01*
X148250000Y-85775000D02*
X148750000Y-85775000D01*
G75*
G02*
X148975000Y-86000000I0J-225000D01*
G01*
X148975000Y-86450000D01*
G75*
G02*
X148750000Y-86675000I-225000J0D01*
G01*
X148250000Y-86675000D01*
G75*
G02*
X148025000Y-86450000I0J225000D01*
G01*
X148025000Y-86000000D01*
G75*
G02*
X148250000Y-85775000I225000J0D01*
G01*
G37*
%TD*%
%TO.C,C302*%
G36*
G01*
X142000000Y-78325000D02*
X142500000Y-78325000D01*
G75*
G02*
X142725000Y-78550000I0J-225000D01*
G01*
X142725000Y-79000000D01*
G75*
G02*
X142500000Y-79225000I-225000J0D01*
G01*
X142000000Y-79225000D01*
G75*
G02*
X141775000Y-79000000I0J225000D01*
G01*
X141775000Y-78550000D01*
G75*
G02*
X142000000Y-78325000I225000J0D01*
G01*
G37*
G36*
G01*
X142000000Y-76775000D02*
X142500000Y-76775000D01*
G75*
G02*
X142725000Y-77000000I0J-225000D01*
G01*
X142725000Y-77450000D01*
G75*
G02*
X142500000Y-77675000I-225000J0D01*
G01*
X142000000Y-77675000D01*
G75*
G02*
X141775000Y-77450000I0J225000D01*
G01*
X141775000Y-77000000D01*
G75*
G02*
X142000000Y-76775000I225000J0D01*
G01*
G37*
%TD*%
%TO.C,C211*%
G36*
G01*
X150625000Y-108324999D02*
X150625000Y-110175001D01*
G75*
G02*
X150375001Y-110425000I-249999J0D01*
G01*
X149549999Y-110425000D01*
G75*
G02*
X149300000Y-110175001I0J249999D01*
G01*
X149300000Y-108324999D01*
G75*
G02*
X149549999Y-108075000I249999J0D01*
G01*
X150375001Y-108075000D01*
G75*
G02*
X150625000Y-108324999I0J-249999D01*
G01*
G37*
G36*
G01*
X153700000Y-108324999D02*
X153700000Y-110175001D01*
G75*
G02*
X153450001Y-110425000I-249999J0D01*
G01*
X152624999Y-110425000D01*
G75*
G02*
X152375000Y-110175001I0J249999D01*
G01*
X152375000Y-108324999D01*
G75*
G02*
X152624999Y-108075000I249999J0D01*
G01*
X153450001Y-108075000D01*
G75*
G02*
X153700000Y-108324999I0J-249999D01*
G01*
G37*
%TD*%
%TO.C,C210*%
G36*
G01*
X117300000Y-71275000D02*
X117300000Y-72225000D01*
G75*
G02*
X117050000Y-72475000I-250000J0D01*
G01*
X116550000Y-72475000D01*
G75*
G02*
X116300000Y-72225000I0J250000D01*
G01*
X116300000Y-71275000D01*
G75*
G02*
X116550000Y-71025000I250000J0D01*
G01*
X117050000Y-71025000D01*
G75*
G02*
X117300000Y-71275000I0J-250000D01*
G01*
G37*
G36*
G01*
X119200000Y-71275000D02*
X119200000Y-72225000D01*
G75*
G02*
X118950000Y-72475000I-250000J0D01*
G01*
X118450000Y-72475000D01*
G75*
G02*
X118200000Y-72225000I0J250000D01*
G01*
X118200000Y-71275000D01*
G75*
G02*
X118450000Y-71025000I250000J0D01*
G01*
X118950000Y-71025000D01*
G75*
G02*
X119200000Y-71275000I0J-250000D01*
G01*
G37*
%TD*%
%TO.C,C209*%
G36*
G01*
X126550000Y-95525000D02*
X126550000Y-96475000D01*
G75*
G02*
X126300000Y-96725000I-250000J0D01*
G01*
X125800000Y-96725000D01*
G75*
G02*
X125550000Y-96475000I0J250000D01*
G01*
X125550000Y-95525000D01*
G75*
G02*
X125800000Y-95275000I250000J0D01*
G01*
X126300000Y-95275000D01*
G75*
G02*
X126550000Y-95525000I0J-250000D01*
G01*
G37*
G36*
G01*
X128450000Y-95525000D02*
X128450000Y-96475000D01*
G75*
G02*
X128200000Y-96725000I-250000J0D01*
G01*
X127700000Y-96725000D01*
G75*
G02*
X127450000Y-96475000I0J250000D01*
G01*
X127450000Y-95525000D01*
G75*
G02*
X127700000Y-95275000I250000J0D01*
G01*
X128200000Y-95275000D01*
G75*
G02*
X128450000Y-95525000I0J-250000D01*
G01*
G37*
%TD*%
%TO.C,C208*%
G36*
G01*
X123950000Y-96475000D02*
X123950000Y-95525000D01*
G75*
G02*
X124200000Y-95275000I250000J0D01*
G01*
X124700000Y-95275000D01*
G75*
G02*
X124950000Y-95525000I0J-250000D01*
G01*
X124950000Y-96475000D01*
G75*
G02*
X124700000Y-96725000I-250000J0D01*
G01*
X124200000Y-96725000D01*
G75*
G02*
X123950000Y-96475000I0J250000D01*
G01*
G37*
G36*
G01*
X122050000Y-96475000D02*
X122050000Y-95525000D01*
G75*
G02*
X122300000Y-95275000I250000J0D01*
G01*
X122800000Y-95275000D01*
G75*
G02*
X123050000Y-95525000I0J-250000D01*
G01*
X123050000Y-96475000D01*
G75*
G02*
X122800000Y-96725000I-250000J0D01*
G01*
X122300000Y-96725000D01*
G75*
G02*
X122050000Y-96475000I0J250000D01*
G01*
G37*
%TD*%
%TO.C,C207*%
G36*
G01*
X114700000Y-72225000D02*
X114700000Y-71275000D01*
G75*
G02*
X114950000Y-71025000I250000J0D01*
G01*
X115450000Y-71025000D01*
G75*
G02*
X115700000Y-71275000I0J-250000D01*
G01*
X115700000Y-72225000D01*
G75*
G02*
X115450000Y-72475000I-250000J0D01*
G01*
X114950000Y-72475000D01*
G75*
G02*
X114700000Y-72225000I0J250000D01*
G01*
G37*
G36*
G01*
X112800000Y-72225000D02*
X112800000Y-71275000D01*
G75*
G02*
X113050000Y-71025000I250000J0D01*
G01*
X113550000Y-71025000D01*
G75*
G02*
X113800000Y-71275000I0J-250000D01*
G01*
X113800000Y-72225000D01*
G75*
G02*
X113550000Y-72475000I-250000J0D01*
G01*
X113050000Y-72475000D01*
G75*
G02*
X112800000Y-72225000I0J250000D01*
G01*
G37*
%TD*%
%TO.C,C206*%
G36*
G01*
X169425001Y-94375000D02*
X167574999Y-94375000D01*
G75*
G02*
X167325000Y-94125001I0J249999D01*
G01*
X167325000Y-93299999D01*
G75*
G02*
X167574999Y-93050000I249999J0D01*
G01*
X169425001Y-93050000D01*
G75*
G02*
X169675000Y-93299999I0J-249999D01*
G01*
X169675000Y-94125001D01*
G75*
G02*
X169425001Y-94375000I-249999J0D01*
G01*
G37*
G36*
G01*
X169425001Y-97450000D02*
X167574999Y-97450000D01*
G75*
G02*
X167325000Y-97200001I0J249999D01*
G01*
X167325000Y-96374999D01*
G75*
G02*
X167574999Y-96125000I249999J0D01*
G01*
X169425001Y-96125000D01*
G75*
G02*
X169675000Y-96374999I0J-249999D01*
G01*
X169675000Y-97200001D01*
G75*
G02*
X169425001Y-97450000I-249999J0D01*
G01*
G37*
%TD*%
%TO.C,C205*%
G36*
G01*
X109550000Y-71275000D02*
X109550000Y-72225000D01*
G75*
G02*
X109300000Y-72475000I-250000J0D01*
G01*
X108800000Y-72475000D01*
G75*
G02*
X108550000Y-72225000I0J250000D01*
G01*
X108550000Y-71275000D01*
G75*
G02*
X108800000Y-71025000I250000J0D01*
G01*
X109300000Y-71025000D01*
G75*
G02*
X109550000Y-71275000I0J-250000D01*
G01*
G37*
G36*
G01*
X111450000Y-71275000D02*
X111450000Y-72225000D01*
G75*
G02*
X111200000Y-72475000I-250000J0D01*
G01*
X110700000Y-72475000D01*
G75*
G02*
X110450000Y-72225000I0J250000D01*
G01*
X110450000Y-71275000D01*
G75*
G02*
X110700000Y-71025000I250000J0D01*
G01*
X111200000Y-71025000D01*
G75*
G02*
X111450000Y-71275000I0J-250000D01*
G01*
G37*
%TD*%
%TO.C,C204*%
G36*
G01*
X118800000Y-95525000D02*
X118800000Y-96475000D01*
G75*
G02*
X118550000Y-96725000I-250000J0D01*
G01*
X118050000Y-96725000D01*
G75*
G02*
X117800000Y-96475000I0J250000D01*
G01*
X117800000Y-95525000D01*
G75*
G02*
X118050000Y-95275000I250000J0D01*
G01*
X118550000Y-95275000D01*
G75*
G02*
X118800000Y-95525000I0J-250000D01*
G01*
G37*
G36*
G01*
X120700000Y-95525000D02*
X120700000Y-96475000D01*
G75*
G02*
X120450000Y-96725000I-250000J0D01*
G01*
X119950000Y-96725000D01*
G75*
G02*
X119700000Y-96475000I0J250000D01*
G01*
X119700000Y-95525000D01*
G75*
G02*
X119950000Y-95275000I250000J0D01*
G01*
X120450000Y-95275000D01*
G75*
G02*
X120700000Y-95525000I0J-250000D01*
G01*
G37*
%TD*%
%TO.C,C203*%
G36*
G01*
X117975000Y-111300000D02*
X117025000Y-111300000D01*
G75*
G02*
X116775000Y-111050000I0J250000D01*
G01*
X116775000Y-110550000D01*
G75*
G02*
X117025000Y-110300000I250000J0D01*
G01*
X117975000Y-110300000D01*
G75*
G02*
X118225000Y-110550000I0J-250000D01*
G01*
X118225000Y-111050000D01*
G75*
G02*
X117975000Y-111300000I-250000J0D01*
G01*
G37*
G36*
G01*
X117975000Y-113200000D02*
X117025000Y-113200000D01*
G75*
G02*
X116775000Y-112950000I0J250000D01*
G01*
X116775000Y-112450000D01*
G75*
G02*
X117025000Y-112200000I250000J0D01*
G01*
X117975000Y-112200000D01*
G75*
G02*
X118225000Y-112450000I0J-250000D01*
G01*
X118225000Y-112950000D01*
G75*
G02*
X117975000Y-113200000I-250000J0D01*
G01*
G37*
%TD*%
%TO.C,C202*%
G36*
G01*
X107000000Y-101000000D02*
X107000000Y-103000000D01*
G75*
G02*
X106750000Y-103250000I-250000J0D01*
G01*
X102850000Y-103250000D01*
G75*
G02*
X102600000Y-103000000I0J250000D01*
G01*
X102600000Y-101000000D01*
G75*
G02*
X102850000Y-100750000I250000J0D01*
G01*
X106750000Y-100750000D01*
G75*
G02*
X107000000Y-101000000I0J-250000D01*
G01*
G37*
G36*
G01*
X115400000Y-101000000D02*
X115400000Y-103000000D01*
G75*
G02*
X115150000Y-103250000I-250000J0D01*
G01*
X111250000Y-103250000D01*
G75*
G02*
X111000000Y-103000000I0J250000D01*
G01*
X111000000Y-101000000D01*
G75*
G02*
X111250000Y-100750000I250000J0D01*
G01*
X115150000Y-100750000D01*
G75*
G02*
X115400000Y-101000000I0J-250000D01*
G01*
G37*
%TD*%
%TO.C,C201*%
G36*
G01*
X116500000Y-123250000D02*
X118500000Y-123250000D01*
G75*
G02*
X118750000Y-123500000I0J-250000D01*
G01*
X118750000Y-127400000D01*
G75*
G02*
X118500000Y-127650000I-250000J0D01*
G01*
X116500000Y-127650000D01*
G75*
G02*
X116250000Y-127400000I0J250000D01*
G01*
X116250000Y-123500000D01*
G75*
G02*
X116500000Y-123250000I250000J0D01*
G01*
G37*
G36*
G01*
X116500000Y-114850000D02*
X118500000Y-114850000D01*
G75*
G02*
X118750000Y-115100000I0J-250000D01*
G01*
X118750000Y-119000000D01*
G75*
G02*
X118500000Y-119250000I-250000J0D01*
G01*
X116500000Y-119250000D01*
G75*
G02*
X116250000Y-119000000I0J250000D01*
G01*
X116250000Y-115100000D01*
G75*
G02*
X116500000Y-114850000I250000J0D01*
G01*
G37*
%TD*%
%TO.C,C119*%
G36*
G01*
X159575000Y-108750000D02*
X159575000Y-108250000D01*
G75*
G02*
X159800000Y-108025000I225000J0D01*
G01*
X160250000Y-108025000D01*
G75*
G02*
X160475000Y-108250000I0J-225000D01*
G01*
X160475000Y-108750000D01*
G75*
G02*
X160250000Y-108975000I-225000J0D01*
G01*
X159800000Y-108975000D01*
G75*
G02*
X159575000Y-108750000I0J225000D01*
G01*
G37*
G36*
G01*
X158025000Y-108750000D02*
X158025000Y-108250000D01*
G75*
G02*
X158250000Y-108025000I225000J0D01*
G01*
X158700000Y-108025000D01*
G75*
G02*
X158925000Y-108250000I0J-225000D01*
G01*
X158925000Y-108750000D01*
G75*
G02*
X158700000Y-108975000I-225000J0D01*
G01*
X158250000Y-108975000D01*
G75*
G02*
X158025000Y-108750000I0J225000D01*
G01*
G37*
%TD*%
%TO.C,C118*%
G36*
G01*
X157175000Y-94500000D02*
X157175000Y-95000000D01*
G75*
G02*
X156950000Y-95225000I-225000J0D01*
G01*
X156500000Y-95225000D01*
G75*
G02*
X156275000Y-95000000I0J225000D01*
G01*
X156275000Y-94500000D01*
G75*
G02*
X156500000Y-94275000I225000J0D01*
G01*
X156950000Y-94275000D01*
G75*
G02*
X157175000Y-94500000I0J-225000D01*
G01*
G37*
G36*
G01*
X158725000Y-94500000D02*
X158725000Y-95000000D01*
G75*
G02*
X158500000Y-95225000I-225000J0D01*
G01*
X158050000Y-95225000D01*
G75*
G02*
X157825000Y-95000000I0J225000D01*
G01*
X157825000Y-94500000D01*
G75*
G02*
X158050000Y-94275000I225000J0D01*
G01*
X158500000Y-94275000D01*
G75*
G02*
X158725000Y-94500000I0J-225000D01*
G01*
G37*
%TD*%
%TO.C,C117*%
G36*
G01*
X163075000Y-108750000D02*
X163075000Y-108250000D01*
G75*
G02*
X163300000Y-108025000I225000J0D01*
G01*
X163750000Y-108025000D01*
G75*
G02*
X163975000Y-108250000I0J-225000D01*
G01*
X163975000Y-108750000D01*
G75*
G02*
X163750000Y-108975000I-225000J0D01*
G01*
X163300000Y-108975000D01*
G75*
G02*
X163075000Y-108750000I0J225000D01*
G01*
G37*
G36*
G01*
X161525000Y-108750000D02*
X161525000Y-108250000D01*
G75*
G02*
X161750000Y-108025000I225000J0D01*
G01*
X162200000Y-108025000D01*
G75*
G02*
X162425000Y-108250000I0J-225000D01*
G01*
X162425000Y-108750000D01*
G75*
G02*
X162200000Y-108975000I-225000J0D01*
G01*
X161750000Y-108975000D01*
G75*
G02*
X161525000Y-108750000I0J225000D01*
G01*
G37*
%TD*%
%TO.C,C116*%
G36*
G01*
X165500000Y-98675000D02*
X165000000Y-98675000D01*
G75*
G02*
X164775000Y-98450000I0J225000D01*
G01*
X164775000Y-98000000D01*
G75*
G02*
X165000000Y-97775000I225000J0D01*
G01*
X165500000Y-97775000D01*
G75*
G02*
X165725000Y-98000000I0J-225000D01*
G01*
X165725000Y-98450000D01*
G75*
G02*
X165500000Y-98675000I-225000J0D01*
G01*
G37*
G36*
G01*
X165500000Y-100225000D02*
X165000000Y-100225000D01*
G75*
G02*
X164775000Y-100000000I0J225000D01*
G01*
X164775000Y-99550000D01*
G75*
G02*
X165000000Y-99325000I225000J0D01*
G01*
X165500000Y-99325000D01*
G75*
G02*
X165725000Y-99550000I0J-225000D01*
G01*
X165725000Y-100000000D01*
G75*
G02*
X165500000Y-100225000I-225000J0D01*
G01*
G37*
%TD*%
%TO.C,C115*%
G36*
G01*
X165500000Y-101675000D02*
X165000000Y-101675000D01*
G75*
G02*
X164775000Y-101450000I0J225000D01*
G01*
X164775000Y-101000000D01*
G75*
G02*
X165000000Y-100775000I225000J0D01*
G01*
X165500000Y-100775000D01*
G75*
G02*
X165725000Y-101000000I0J-225000D01*
G01*
X165725000Y-101450000D01*
G75*
G02*
X165500000Y-101675000I-225000J0D01*
G01*
G37*
G36*
G01*
X165500000Y-103225000D02*
X165000000Y-103225000D01*
G75*
G02*
X164775000Y-103000000I0J225000D01*
G01*
X164775000Y-102550000D01*
G75*
G02*
X165000000Y-102325000I225000J0D01*
G01*
X165500000Y-102325000D01*
G75*
G02*
X165725000Y-102550000I0J-225000D01*
G01*
X165725000Y-103000000D01*
G75*
G02*
X165500000Y-103225000I-225000J0D01*
G01*
G37*
%TD*%
%TO.C,C114*%
G36*
G01*
X147175000Y-95000000D02*
X147175000Y-95500000D01*
G75*
G02*
X146950000Y-95725000I-225000J0D01*
G01*
X146500000Y-95725000D01*
G75*
G02*
X146275000Y-95500000I0J225000D01*
G01*
X146275000Y-95000000D01*
G75*
G02*
X146500000Y-94775000I225000J0D01*
G01*
X146950000Y-94775000D01*
G75*
G02*
X147175000Y-95000000I0J-225000D01*
G01*
G37*
G36*
G01*
X148725000Y-95000000D02*
X148725000Y-95500000D01*
G75*
G02*
X148500000Y-95725000I-225000J0D01*
G01*
X148050000Y-95725000D01*
G75*
G02*
X147825000Y-95500000I0J225000D01*
G01*
X147825000Y-95000000D01*
G75*
G02*
X148050000Y-94775000I225000J0D01*
G01*
X148500000Y-94775000D01*
G75*
G02*
X148725000Y-95000000I0J-225000D01*
G01*
G37*
%TD*%
%TO.C,C113*%
G36*
G01*
X165000000Y-107075000D02*
X165500000Y-107075000D01*
G75*
G02*
X165725000Y-107300000I0J-225000D01*
G01*
X165725000Y-107750000D01*
G75*
G02*
X165500000Y-107975000I-225000J0D01*
G01*
X165000000Y-107975000D01*
G75*
G02*
X164775000Y-107750000I0J225000D01*
G01*
X164775000Y-107300000D01*
G75*
G02*
X165000000Y-107075000I225000J0D01*
G01*
G37*
G36*
G01*
X165000000Y-105525000D02*
X165500000Y-105525000D01*
G75*
G02*
X165725000Y-105750000I0J-225000D01*
G01*
X165725000Y-106200000D01*
G75*
G02*
X165500000Y-106425000I-225000J0D01*
G01*
X165000000Y-106425000D01*
G75*
G02*
X164775000Y-106200000I0J225000D01*
G01*
X164775000Y-105750000D01*
G75*
G02*
X165000000Y-105525000I225000J0D01*
G01*
G37*
%TD*%
%TO.C,C112*%
G36*
G01*
X151175000Y-98000000D02*
X151175000Y-98500000D01*
G75*
G02*
X150950000Y-98725000I-225000J0D01*
G01*
X150500000Y-98725000D01*
G75*
G02*
X150275000Y-98500000I0J225000D01*
G01*
X150275000Y-98000000D01*
G75*
G02*
X150500000Y-97775000I225000J0D01*
G01*
X150950000Y-97775000D01*
G75*
G02*
X151175000Y-98000000I0J-225000D01*
G01*
G37*
G36*
G01*
X152725000Y-98000000D02*
X152725000Y-98500000D01*
G75*
G02*
X152500000Y-98725000I-225000J0D01*
G01*
X152050000Y-98725000D01*
G75*
G02*
X151825000Y-98500000I0J225000D01*
G01*
X151825000Y-98000000D01*
G75*
G02*
X152050000Y-97775000I225000J0D01*
G01*
X152500000Y-97775000D01*
G75*
G02*
X152725000Y-98000000I0J-225000D01*
G01*
G37*
%TD*%
%TO.C,C111*%
G36*
G01*
X165500000Y-95675000D02*
X165000000Y-95675000D01*
G75*
G02*
X164775000Y-95450000I0J225000D01*
G01*
X164775000Y-95000000D01*
G75*
G02*
X165000000Y-94775000I225000J0D01*
G01*
X165500000Y-94775000D01*
G75*
G02*
X165725000Y-95000000I0J-225000D01*
G01*
X165725000Y-95450000D01*
G75*
G02*
X165500000Y-95675000I-225000J0D01*
G01*
G37*
G36*
G01*
X165500000Y-97225000D02*
X165000000Y-97225000D01*
G75*
G02*
X164775000Y-97000000I0J225000D01*
G01*
X164775000Y-96550000D01*
G75*
G02*
X165000000Y-96325000I225000J0D01*
G01*
X165500000Y-96325000D01*
G75*
G02*
X165725000Y-96550000I0J-225000D01*
G01*
X165725000Y-97000000D01*
G75*
G02*
X165500000Y-97225000I-225000J0D01*
G01*
G37*
%TD*%
%TO.C,C110*%
G36*
G01*
X151175000Y-96000000D02*
X151175000Y-96500000D01*
G75*
G02*
X150950000Y-96725000I-225000J0D01*
G01*
X150500000Y-96725000D01*
G75*
G02*
X150275000Y-96500000I0J225000D01*
G01*
X150275000Y-96000000D01*
G75*
G02*
X150500000Y-95775000I225000J0D01*
G01*
X150950000Y-95775000D01*
G75*
G02*
X151175000Y-96000000I0J-225000D01*
G01*
G37*
G36*
G01*
X152725000Y-96000000D02*
X152725000Y-96500000D01*
G75*
G02*
X152500000Y-96725000I-225000J0D01*
G01*
X152050000Y-96725000D01*
G75*
G02*
X151825000Y-96500000I0J225000D01*
G01*
X151825000Y-96000000D01*
G75*
G02*
X152050000Y-95775000I225000J0D01*
G01*
X152500000Y-95775000D01*
G75*
G02*
X152725000Y-96000000I0J-225000D01*
G01*
G37*
%TD*%
%TO.C,C109*%
G36*
G01*
X151175000Y-104000000D02*
X151175000Y-104500000D01*
G75*
G02*
X150950000Y-104725000I-225000J0D01*
G01*
X150500000Y-104725000D01*
G75*
G02*
X150275000Y-104500000I0J225000D01*
G01*
X150275000Y-104000000D01*
G75*
G02*
X150500000Y-103775000I225000J0D01*
G01*
X150950000Y-103775000D01*
G75*
G02*
X151175000Y-104000000I0J-225000D01*
G01*
G37*
G36*
G01*
X152725000Y-104000000D02*
X152725000Y-104500000D01*
G75*
G02*
X152500000Y-104725000I-225000J0D01*
G01*
X152050000Y-104725000D01*
G75*
G02*
X151825000Y-104500000I0J225000D01*
G01*
X151825000Y-104000000D01*
G75*
G02*
X152050000Y-103775000I225000J0D01*
G01*
X152500000Y-103775000D01*
G75*
G02*
X152725000Y-104000000I0J-225000D01*
G01*
G37*
%TD*%
%TO.C,C108*%
G36*
G01*
X163750000Y-93675000D02*
X163250000Y-93675000D01*
G75*
G02*
X163025000Y-93450000I0J225000D01*
G01*
X163025000Y-93000000D01*
G75*
G02*
X163250000Y-92775000I225000J0D01*
G01*
X163750000Y-92775000D01*
G75*
G02*
X163975000Y-93000000I0J-225000D01*
G01*
X163975000Y-93450000D01*
G75*
G02*
X163750000Y-93675000I-225000J0D01*
G01*
G37*
G36*
G01*
X163750000Y-95225000D02*
X163250000Y-95225000D01*
G75*
G02*
X163025000Y-95000000I0J225000D01*
G01*
X163025000Y-94550000D01*
G75*
G02*
X163250000Y-94325000I225000J0D01*
G01*
X163750000Y-94325000D01*
G75*
G02*
X163975000Y-94550000I0J-225000D01*
G01*
X163975000Y-95000000D01*
G75*
G02*
X163750000Y-95225000I-225000J0D01*
G01*
G37*
%TD*%
%TO.C,C107*%
G36*
G01*
X144500000Y-118075000D02*
X145000000Y-118075000D01*
G75*
G02*
X145225000Y-118300000I0J-225000D01*
G01*
X145225000Y-118750000D01*
G75*
G02*
X145000000Y-118975000I-225000J0D01*
G01*
X144500000Y-118975000D01*
G75*
G02*
X144275000Y-118750000I0J225000D01*
G01*
X144275000Y-118300000D01*
G75*
G02*
X144500000Y-118075000I225000J0D01*
G01*
G37*
G36*
G01*
X144500000Y-116525000D02*
X145000000Y-116525000D01*
G75*
G02*
X145225000Y-116750000I0J-225000D01*
G01*
X145225000Y-117200000D01*
G75*
G02*
X145000000Y-117425000I-225000J0D01*
G01*
X144500000Y-117425000D01*
G75*
G02*
X144275000Y-117200000I0J225000D01*
G01*
X144275000Y-116750000D01*
G75*
G02*
X144500000Y-116525000I225000J0D01*
G01*
G37*
%TD*%
%TO.C,C106*%
G36*
G01*
X158000000Y-88925000D02*
X157500000Y-88925000D01*
G75*
G02*
X157275000Y-88700000I0J225000D01*
G01*
X157275000Y-88250000D01*
G75*
G02*
X157500000Y-88025000I225000J0D01*
G01*
X158000000Y-88025000D01*
G75*
G02*
X158225000Y-88250000I0J-225000D01*
G01*
X158225000Y-88700000D01*
G75*
G02*
X158000000Y-88925000I-225000J0D01*
G01*
G37*
G36*
G01*
X158000000Y-90475000D02*
X157500000Y-90475000D01*
G75*
G02*
X157275000Y-90250000I0J225000D01*
G01*
X157275000Y-89800000D01*
G75*
G02*
X157500000Y-89575000I225000J0D01*
G01*
X158000000Y-89575000D01*
G75*
G02*
X158225000Y-89800000I0J-225000D01*
G01*
X158225000Y-90250000D01*
G75*
G02*
X158000000Y-90475000I-225000J0D01*
G01*
G37*
%TD*%
%TO.C,C105*%
G36*
G01*
X160000000Y-88925000D02*
X159500000Y-88925000D01*
G75*
G02*
X159275000Y-88700000I0J225000D01*
G01*
X159275000Y-88250000D01*
G75*
G02*
X159500000Y-88025000I225000J0D01*
G01*
X160000000Y-88025000D01*
G75*
G02*
X160225000Y-88250000I0J-225000D01*
G01*
X160225000Y-88700000D01*
G75*
G02*
X160000000Y-88925000I-225000J0D01*
G01*
G37*
G36*
G01*
X160000000Y-90475000D02*
X159500000Y-90475000D01*
G75*
G02*
X159275000Y-90250000I0J225000D01*
G01*
X159275000Y-89800000D01*
G75*
G02*
X159500000Y-89575000I225000J0D01*
G01*
X160000000Y-89575000D01*
G75*
G02*
X160225000Y-89800000I0J-225000D01*
G01*
X160225000Y-90250000D01*
G75*
G02*
X160000000Y-90475000I-225000J0D01*
G01*
G37*
%TD*%
%TO.C,C104*%
G36*
G01*
X161750000Y-88925000D02*
X161250000Y-88925000D01*
G75*
G02*
X161025000Y-88700000I0J225000D01*
G01*
X161025000Y-88250000D01*
G75*
G02*
X161250000Y-88025000I225000J0D01*
G01*
X161750000Y-88025000D01*
G75*
G02*
X161975000Y-88250000I0J-225000D01*
G01*
X161975000Y-88700000D01*
G75*
G02*
X161750000Y-88925000I-225000J0D01*
G01*
G37*
G36*
G01*
X161750000Y-90475000D02*
X161250000Y-90475000D01*
G75*
G02*
X161025000Y-90250000I0J225000D01*
G01*
X161025000Y-89800000D01*
G75*
G02*
X161250000Y-89575000I225000J0D01*
G01*
X161750000Y-89575000D01*
G75*
G02*
X161975000Y-89800000I0J-225000D01*
G01*
X161975000Y-90250000D01*
G75*
G02*
X161750000Y-90475000I-225000J0D01*
G01*
G37*
%TD*%
%TO.C,C103*%
G36*
G01*
X179775000Y-107200000D02*
X180725000Y-107200000D01*
G75*
G02*
X180975000Y-107450000I0J-250000D01*
G01*
X180975000Y-107950000D01*
G75*
G02*
X180725000Y-108200000I-250000J0D01*
G01*
X179775000Y-108200000D01*
G75*
G02*
X179525000Y-107950000I0J250000D01*
G01*
X179525000Y-107450000D01*
G75*
G02*
X179775000Y-107200000I250000J0D01*
G01*
G37*
G36*
G01*
X179775000Y-105300000D02*
X180725000Y-105300000D01*
G75*
G02*
X180975000Y-105550000I0J-250000D01*
G01*
X180975000Y-106050000D01*
G75*
G02*
X180725000Y-106300000I-250000J0D01*
G01*
X179775000Y-106300000D01*
G75*
G02*
X179525000Y-106050000I0J250000D01*
G01*
X179525000Y-105550000D01*
G75*
G02*
X179775000Y-105300000I250000J0D01*
G01*
G37*
%TD*%
%TO.C,C102*%
G36*
G01*
X182574999Y-107125000D02*
X184425001Y-107125000D01*
G75*
G02*
X184675000Y-107374999I0J-249999D01*
G01*
X184675000Y-108200001D01*
G75*
G02*
X184425001Y-108450000I-249999J0D01*
G01*
X182574999Y-108450000D01*
G75*
G02*
X182325000Y-108200001I0J249999D01*
G01*
X182325000Y-107374999D01*
G75*
G02*
X182574999Y-107125000I249999J0D01*
G01*
G37*
G36*
G01*
X182574999Y-104050000D02*
X184425001Y-104050000D01*
G75*
G02*
X184675000Y-104299999I0J-249999D01*
G01*
X184675000Y-105125001D01*
G75*
G02*
X184425001Y-105375000I-249999J0D01*
G01*
X182574999Y-105375000D01*
G75*
G02*
X182325000Y-105125001I0J249999D01*
G01*
X182325000Y-104299999D01*
G75*
G02*
X182574999Y-104050000I249999J0D01*
G01*
G37*
%TD*%
%TO.C,C101*%
G36*
G01*
X167250000Y-107175000D02*
X166750000Y-107175000D01*
G75*
G02*
X166525000Y-106950000I0J225000D01*
G01*
X166525000Y-106500000D01*
G75*
G02*
X166750000Y-106275000I225000J0D01*
G01*
X167250000Y-106275000D01*
G75*
G02*
X167475000Y-106500000I0J-225000D01*
G01*
X167475000Y-106950000D01*
G75*
G02*
X167250000Y-107175000I-225000J0D01*
G01*
G37*
G36*
G01*
X167250000Y-108725000D02*
X166750000Y-108725000D01*
G75*
G02*
X166525000Y-108500000I0J225000D01*
G01*
X166525000Y-108050000D01*
G75*
G02*
X166750000Y-107825000I225000J0D01*
G01*
X167250000Y-107825000D01*
G75*
G02*
X167475000Y-108050000I0J-225000D01*
G01*
X167475000Y-108500000D01*
G75*
G02*
X167250000Y-108725000I-225000J0D01*
G01*
G37*
%TD*%
M02*
